<svg id="Layer_1" data-name="Layer 1" xmlns="http://www.w3.org/2000/svg" viewBox="0 0 164.05 125.28"><defs><style>.cls-1{fill:#f8931f;}</style></defs><g id="Group_91_kayak" data-name="Group 91 kayak"><g id="Layer_2" data-name="Layer 2"><g id="Group_141" data-name="Group 141"><path id="Path_675" data-name="Path 675" class="cls-1" d="M97.57,76.48c-5.2-2.8-4.5-5-9.9-8-8-4.4-16.2-3.4-18.9-3.3-23.7,1.1-54-45.1-54.1-45s10.8,22.4,37.2,44.7c44.5,37.5,97.6,44.9,98.5,42.5.4-1.1-10.5-4.1-21.2-16.3-4.9-5.6-4.8-7.3-8.6-9.6C112.37,76.58,106.67,81.38,97.57,76.48Z"/><g id="Group_140" data-name="Group 140"><g id="Group_139" data-name="Group 139"><path id="Path_676" data-name="Path 676" class="cls-1" d="M115.47,16.78l-11.4,7.1,4.9,5,10.2-9.1Z"/><path id="Path_677" data-name="Path 677" d="M32.67,107.08a1.11,1.11,0,0,1,.1-.8c.2-.4.3-.8,38.3-43.2,18.7-20.9,37.6-41.9,37.8-42.1a1.18,1.18,0,0,1,1.68,0l.12.13a1.35,1.35,0,0,1,0,1.7c-25.5,28.3-73.9,82.3-75.8,84.7a1.19,1.19,0,0,1-1.62.45l-.08-.05A2,2,0,0,1,32.67,107.08Z"/><path id="Path_678" data-name="Path 678" d="M25.17,109.08v-.2a1.11,1.11,0,0,1,.3-.8l7.8-9.1a4.38,4.38,0,0,1,6.19-.49l.21.19,1.1,1.1a5.08,5.08,0,0,1,.3,6.8l-7.8,9.1a1.12,1.12,0,0,1-1.58.12l0,0h0l-6.2-5.9A3.66,3.66,0,0,0,25.17,109.08Zm14.9-6.4a2.41,2.41,0,0,0-.7-1.3l-1.1-1.1a2.29,2.29,0,0,0-3.22.1l-.08.1-7.1,8.2,4.5,4.3,7.1-8.2a2.69,2.69,0,0,0,.6-1.7C40.17,103,40.07,102.88,40.07,102.68Z"/></g><path id="Path_679" data-name="Path 679" d="M102.77,24.78a2.18,2.18,0,0,1-.1-.8,4.58,4.58,0,0,1,1.2-3.4l7.3-8.4a1.11,1.11,0,0,1,1.57-.13l0,0h0l6.4,6.1a1.11,1.11,0,0,1,.11,1.58v0h0l-7.3,8.4a4.29,4.29,0,0,1-6,.55l-.27-.25h0l-1.4-1.3A4.12,4.12,0,0,1,102.77,24.78Zm9.3-10.2-6.6,7.6a2.59,2.59,0,0,0,.1,3.4l1.4,1.3a2.16,2.16,0,0,0,3,0l.15-.17,6.6-7.6Z"/></g><path id="Path_680" data-name="Path 680" d="M155,112.28l-4.1-1.3a303.31,303.31,0,0,1-85.2-41.9,297.31,297.31,0,0,1-33.6-27.5c-7.1-6.7-14-14-20.6-21.6l-2.8-3.3,4.2.8c5.7,1.1,11.9,2.5,18.4,4.3a212.19,212.19,0,0,1,54.9,23.8,218.49,218.49,0,0,1,66.4,63.1Zm-138.3-91c5.7,6.3,11.5,12.4,17.5,18.1a312.3,312.3,0,0,0,33.2,27.3,301.76,301.76,0,0,0,80.2,40.2,212.94,212.94,0,0,0-62.9-58.6,210.62,210.62,0,0,0-54.2-23.6C25.67,23.38,21,22.28,16.67,21.28Z"/><path id="Path_681" data-name="Path 681" d="M151.17,111.08a198.09,198.09,0,0,1-94.1-39.7,191.38,191.38,0,0,1-45.8-51.6l2.6-1.6a190.12,190.12,0,0,0,45,50.8,194.73,194.73,0,0,0,92.7,39.1Z"/><path id="Path_682" data-name="Path 682" d="M85.37,66.78a23.69,23.69,0,0,1-5.8-.9,76.32,76.32,0,0,1-16.8-7.4c-11.1-6.5-21.8-15.6-19-20.4h0c2.8-4.8,16-.1,27.2,6.3s21.9,15.5,19.1,20.4C89.27,66.08,87.67,66.78,85.37,66.78Zm-39-27.2h0c-.8,1.3,4.4,8.4,18,16.3a74.12,74.12,0,0,0,16,7.1c5.1,1.4,6.8.7,7,.3.8-1.3-4.4-8.4-18-16.3S47.17,38.18,46.37,39.58Z"/><path id="Path_683" data-name="Path 683" d="M111,93.18l-2.9-.6a41.65,41.65,0,0,1,2.1-7.1c-4.8.4-9.3,1.1-13.1,1.7A1.45,1.45,0,0,1,95.37,86a1.23,1.23,0,0,1,0-.54,41.76,41.76,0,0,1,3.1-10.8c.2-.4.4-.9.6-1.3-1.8.1-3.7.2-5.5.4a77.7,77.7,0,0,0-14.1,2.8,1.44,1.44,0,0,1-1.7-.7,1.55,1.55,0,0,1,.4-1.9,52.21,52.21,0,0,1,30-12,1.64,1.64,0,0,1,1.5.9,1.77,1.77,0,0,1-.3,1.7,38.77,38.77,0,0,0-4.9,5.8,80.91,80.91,0,0,1,16.9,2.1,1.37,1.37,0,0,1,1.1,1.1,1.6,1.6,0,0,1-.5,1.5,27.89,27.89,0,0,0-6.4,7c4.7-.2,9.7-.2,15.2.1l-.2,3a155.05,155.05,0,0,0-16.7,0A23.81,23.81,0,0,0,111,93.18Zm-8.5-19.8c-.4.8-.9,1.7-1.3,2.6a35,35,0,0,0-2.5,8c3.5-.6,7.6-1.1,11.8-1.5.4,0,.8-.1,1.2-.1.3-.5.6-1.1.9-1.6a30.15,30.15,0,0,1,4.9-5.9A75.56,75.56,0,0,0,102.47,73.38Zm1.8-7.9a48.18,48.18,0,0,0-11,3,49.7,49.7,0,0,0-7,3.5c2.3-.5,4.6-.8,7-1.1s5-.4,7.5-.5A31.87,31.87,0,0,1,104.27,65.48Z"/><path id="Path_684" data-name="Path 684" d="M26.47,33.48l-1.4-2.7a33.39,33.39,0,0,1,10.7-3.5c.1,0,3-.3,13.6.4l-.2,3c-10.2-.7-13-.4-13-.4A30.51,30.51,0,0,0,26.47,33.48Z"/><path id="Path_685" data-name="Path 685" d="M35.37,44.28a26.9,26.9,0,0,1-4-12,28.11,28.11,0,0,1,1-9.7l2.9.9a25.71,25.71,0,0,0-.8,8.6,23.88,23.88,0,0,0,3.6,10.6Z"/></g></g></g></svg>