<?xml version="1.0" encoding="UTF-8" standalone="no"?>
<svg xmlns="http://www.w3.org/2000/svg" viewBox="-110 -40 640 640">
<g transform="scale(0.8)">
  <g font-weight="400">
    <path fill="#fff" fill-opacity=".96078432" stroke="#99542c" stroke-miterlimit="10.43299961" stroke-width="10.23852253" d="m493.04932 420.13824.16455-.49365.16455-.32911.16455-.49365v-.49375l.16456-.49366.16455-.49365.16455-.32911.16455-.49375.16455-.49365.16465-.49367.32911-.49375.16454-.3291.16456-.49366.16455-.16455v-.16455l.16455-.16455.16455-.3292v-.16456l.16455-.16454c2.79758-3.94944 5.4306-8.55718 9.05094-10.69644 3.29122-2.30393 3.94943-6.41791 5.59504-13.16493.49366-11.84839 2.13936-12.50669 2.63303-13.8232.49365-1.31642 1.3165-5.26595 4.11398-10.20279 1.97481-3.62033 4.44318-10.86109 3.62033-13.00037-1.81017-3.62032-3.29123-6.747-5.10139-13.00036-2.46837-14.81052-.49366-19.74736 2.63302-24.3551 4.44319-6.74701 7.24067-10.861 11.8484-13.16491 2.13927-.98731 1.81017-5.1014 1.48106-7.89888-1.15195-7.24075.98741-6.58245 2.13927-10.36744 1.31651-3.78488 2.30392-8.88626 2.30392-10.03823 0-1.3165-.65831-4.77228-.98741-6.41791-.49365-2.96202-.98731-7.24065-.16455-8.88626 1.31651-2.30383 2.63302-4.93686 2.46847-7.24068 0-.9874 1.15186-2.46846 1.64561-4.11408.49365-1.48106 1.48098-5.10138 1.48098-7.89897 0-.82275.9874-6.58245 1.64561-10.69643 1.48106-8.06353.49375-12.01306-.16455-14.31688-.65822-3.29123-2.63293-4.93684-2.46839-6.0888 0-1.48106-.32909-6.0887-.6582-8.88628-.16465-1.64561 6.58236-11.02564 7.89888-12.8358.49374-.98732-.49366-7.40522-.49366-8.88629 0-1.3165-1.64561-8.06351-1.64561-9.87368 0-1.97472.3291-3.12668.3291-4.93684-.16455-1.97472-.3291-4.77229-.49365-8.39263-.32911-6.58245.16455-13.32945.3291-15.13963 0-1.48106-2.46838-1.48106-6.91157-3.78498-4.44318-2.30382-13.98777-11.8484-15.63338-12.50661-1.64561-.82285-9.37993-2.13936-13.65856-2.13936-3.94944 0-12.67125 1.97471-16.6207 2.63302-3.78488.49366-8.55718-1.15196-10.86109-1.81016-2.30382-.65831-6.4179-1.81017-8.22807-1.48106-5.26595.49365-13.82312.6582-17.44344 0-4.27865-.82286-7.89898-1.97473-10.03824-3.29123-1.81017-1.31651-2.46847-.82286-4.77229-2.96212-1.81018-1.64563-1.97473-2.63302-3.45579-2.79759-1.31651-.3291-13.82321-1.31641-16.12703-3.62032-2.30392-2.30382-5.4305-6.25335-7.24068-14.975081-1.81025-8.39262 1.15187-14.31688 4.27855-15.96249 4.93684-2.46837 11.68385-6.58246 15.30418-6.91156 1.64562-.16455-1.97472-6.58245-3.78488-12.67116-.82276-2.30392-4.27863-1.81026-12.17751-10.53199-3.45577-3.94943-9.70913-11.68385-11.19019-14.31687-1.64561-2.63293.16455-4.11399-1.48106-4.27854-2.13928-.16455-9.21549.16455-20.40557-1.81016-11.1902-2.13937-18.43097-5.26595-21.88674-6.25336-3.29123-.98741-11.19019-3.78488-13.65858-4.60773-2.46837-.82276-7.40521-2.79758-11.8484-4.44319-4.27864-1.4810604-6.25335-4.9368404-8.39262-5.1014004-2.30392 0-10.53199 5.7597004-20.40567 7.0762104-9.87369 1.31642-13.32946-.9874-18.59542-1.81026-5.59504-.8227604-10.69644-1.8101704-17.27889-2.3038204-6.41791-.49366-25.50707 2.9621204-28.7983 3.4557804-3.29122.3291-7.89896 2.63302-12.01295 2.63302-2.63302 0-17.279 4.27854-19.74737 4.77229-2.63302.49366-6.25336-.82285-8.06353-.16455-2.96212.82276-7.24075 1.81017-8.72172 2.13927-1.15196.3291-20.40567 6.74701-23.86145 7.40521-3.78488.82286-9.21548 2.63302-13.65857 4.27864-2.96212 1.31651-4.77229 3.29123-7.24076 4.93684-8.22807 5.7596-10.53189 5.92425-14.48132 7.24066-2.63302.82286-3.94953 1.81017-9.54458 2.13937-5.75969.3291-7.40532 1.48106-7.40532 2.30382 0 3.94953-1.3165 11.84841.16457 12.50671 3.12667 1.64561 10.86108 14.31677 11.19019 22.38029.49365 8.55727-.65821 14.64598-.98741 17.279001-.32911 2.30382-.65821 3.62033-1.81017 4.93684-.98731 1.31651-7.89887 3.45578-12.01295 3.94943-4.27864.16456-6.4179.3291-21.392983-3.62033-11.68385-2.96212-12.67126-4.11408-14.15232-5.75969-1.15187-1.810171-4.114-3.291231-6.08871-4.278551-2.13937-.9874-4.27864-1.48106-6.4179-3.45577-1.97473-1.81017-11.02565 2.63293-23.53226 3.62032-2.30392.16457-6.58245 7.734421-14.31687 11.683861-6.0888 2.96213-8.88637 4.11409-10.8611 5.59505-5.59504 3.78498-12.1774903 4.44318-11.3547303 6.0888 1.3165 3.12667-1.15187 4.7723-.32911 12.5067 1.15196 13.00037-1.81017 19.58282-1.81017 25.83618-.16454 3.12658 3.45578 6.91155 5.1014003 8.22807 1.48106 1.31642 4.44318 5.7596 5.26594 9.05083.65831 3.29122-.49365 13.98767-2.13927 22.87405-1.64561 9.05082-2.63292 18.2663-2.30382 21.55752.16456 2.13927 2.79747 6.58246 3.94944 9.05083 1.64561 2.96213 4.77228 13.65866 4.93684 19.08917.16455 4.93684-1.15195 11.1902-1.15195 12.1775 0 .98741 1.64561 5.10149 3.29122 7.24076 1.81016 2.63302 5.92424 11.35475 6.91165 13.49402 1.48097 2.96212 1.97472 6.74701 1.97472 6.74701s-.49375 4.27863-.65831 6.91156c-.16454 2.63301-1.15185 11.68385-2.13926 23.3678-.82276 11.35465-.82276 20.89922.16455 21.88663 1.31651 1.31651 3.78488 3.45578 4.77229 4.93684.82285 1.64562 8.06352 14.15223 8.88638 15.96249.82275 1.97472 2.63292 6.91156 3.29122 10.36734.65821 3.62033 1.64553 10.69644 1.97472 12.5067.49365 2.46838 3.45578 17.60801 3.94944 20.07648.65821 3.12667 1.81016 11.68384 2.30392 15.13963.3291 3.94944.6582 10.36734.9873 11.68386.32911 1.15195 1.31652 3.45577 2.46847 6.08879 1.31642 2.96212 3.62034 11.68385 4.11399 13.65857.49365 1.97472-.3291 4.60774.16455 6.25335.6583 1.81016 2.63302 3.29123 3.29123 4.77229.65831 1.48107 5.92425 12.01295 8.22807 15.63329 2.13937 3.12667 9.70914 17.6081 11.84841 22.38039.49374.6582.49374 1.15185.49374 1.48106 0 1.81016.32911 3.29122 1.31652 3.94944.9873.65821 2.63292 4.11408 3.94943 4.27863 1.81016.3291 3.62034 1.31642 4.44319 2.30382.82276 1.31651 7.405213 7.73441 9.873683 10.36734 2.46838 2.63302 4.11399 4.27864 3.78489 6.58246-.3291 1.81026-.16455 4.77229.82276 5.75969 1.81016 1.81017 4.60773 3.29123 9.87368 10.2028 4.44319 5.92425 6.0888 10.86109 8.39262 14.97508 1.31651 2.46845 3.29123 9.38002 3.29123 11.19019 0 1.81016 1.15195 3.12667 2.13936 4.11408 1.15187 1.48097 4.114 3.94944 6.25336 4.93685 1.15186.49365 4.44309 3.45577 7.40522 6.91155 2.96212 3.29123 5.43049 6.08871 6.747 13.82312.49366 2.30382.49366 4.27864 1.31651 4.44319.82286.16456 2.79757.65821 3.29123 1.64562.65821.82276.65821 2.13926 1.97471 2.96212 3.78499 2.63292 4.27864 5.26595 4.7723 7.07611.16454 1.64562.98741 6.41791 1.48106 8.39263.16455 1.48106 7.89896 9.70913 9.87368 12.67125 1.64562 2.63293 4.11409 3.12668 9.70913 6.25325 5.4305 2.96213 5.75961 4.93695 6.08881 6.41791.3291 1.64562.16454 9.38003.6582 10.20288 1.31651 1.81018 2.13928.98731 4.27864 3.62034 2.13927 2.63292 4.93684 6.4179 6.25325 8.22807 1.31651 1.81016 12.50671 8.72173 18.59551 14.31687 1.48106 1.48097 5.1014 5.26594 7.56977 7.07612 1.81016 1.15186 4.27863 2.30382 6.25335 3.29122 2.13928.98731 5.26595 1.97472 11.5193 6.4179 1.48106.82277 5.1014 2.63294 7.24067 3.94944 2.63301 1.64562 10.03832 5.7597 12.83581 5.7597 5.75969 0 8.72181 2.30382 12.01304 1.48096 13.82312-2.63292 16.94979-4.60764 20.07648-7.56977 2.79757-2.96212 7.56977-9.54457 9.05083-10.69653 1.64561-1.48106 6.4179-7.07612 10.36743-9.70904 10.861-10.53198 9.70904-8.39272 16.45614-12.83581 3.62033-2.46847 6.91157-3.29123 9.05084-6.41791 3.29122-5.43049 8.39262-13.00035 9.21547-16.29158.65821-1.97471 1.81017-2.46847 2.63293-4.60775.6583-1.81016.3291-3.29122 2.63302-4.27863 1.81016-.82275 6.0888-5.75959 8.39263-6.91156 1.48106-.82276.3291-5.26595 2.13926-7.24066 1.15197-1.48106 6.58246-5.10139 11.35475-8.55718 9.05092-6.4179 15.46882-15.13971 18.92461-18.43086 3.62033-3.78497 1.81016-9.21547.65821-10.86108l2.63301-3.94944s4.77229-5.26604 7.56977-8.22806c2.79758-2.63304 10.36744-12.17761 12.34216-14.15233 1.64561-1.48106.6582-9.70913.98731-12.01295.16454-2.46847 5.59514-6.58246 7.40531-8.39272 1.81017-1.81017 2.63293-3.45578 2.79758-6.91157.32909-3.29122 2.63291-17.9372 3.45577-20.57012.49366-1.31651.98731-2.30392 1.64561-3.29123 1.48106-2.30392 3.12669-3.94953 4.60765-5.59514 1.81026-2.13927 10.86108-13.00036 15.13973-16.78525l.82276-.49365c2.13936-1.48106.82285-3.12669.82285-5.1014 0-.98741.82276-2.96212 2.13927-5.1014 1.15196-2.30391 2.79757-5.10138 4.11399-6.4179 3.78497-4.27863 3.12667-6.74701 9.38003-11.35474 2.30391-1.64563 1.48106-6.58246 1.48106-6.58246s-.16455-1.81017 1.15195-4.77229c1.31652-2.96213 5.92416-8.55718 8.72173-11.5193 1.15197-1.15196 2.13927-4.77229 2.13927-6.58245 0-1.64561-.3291-4.93685 1.48106-8.39263.32911-.65821.65831-1.31651 1.15196-1.97472.32911-.49375.65821-1.3165.98741-1.97481z"/>
    <path fill="#fff" d="M-908.82099614 253.22982506zM110.60855 423.92322l.16455-.65831c-.16455-1.31641-2.30382-1.31641-2.63292-2.13926-.82287-2.79757-2.13937-3.29123-2.79758-3.94944-1.64561-1.48107-3.29123-.6583-4.11399-.98741-.82285-.32909-1.974813-.65821-1.481063-2.79757 0-.3291-.16455-.49365-.3292-.3291l-1.15186.16454-1.31651-.16454-1.15196.16454s-2.79748 0-7.24067 1.48107c-.9874 0-2.30391 1.15197-3.94952 1.15197-1.64562-.16457-3.45579 1.64561-5.26595 1.64561-1.31651.16455-4.77229 4.60773-7.56977 5.10139-1.64561.16455 0 .3291-9.38003 3.78488-5.26595 1.81016-3.78489 1.48106-8.22807 3.94953.98731.3291 5.10139.16456 8.55717-.16455 6.08881-.49376 6.25336-.49376 7.56987-.82285 6.08871-.82276 15.63328-1.31652 19.41827-2.13927 2.79748-.65831 4.77219.9873 7.40521.16454 1.15196-.49365 2.962123-.49365 3.784883-.49365 1.31651-.16465 1.64562 0 2.46847-.16465 0 0 4.11399.16465 4.93685-.49365 1.31651-.65821 1.81016-.98731 1.97471-1.48106l.32911-.82276z"/>
    <path fill="#c56c39" d="M492.22647 421.9485v-.3292h.16455v-.3291l.16454-.16455v-.3291l.16456-.16456v-.3291l.16465-.16465.16455-.16455v-.16455c.82276-2.30382 1.48106-5.26595 2.79747-7.07612 2.96213-3.94943 5.4306-8.39261 9.05094-10.69654 3.29122-2.30382 3.94943-6.4178 5.59504-13.16481.49366-11.8485 2.13936-12.50671 2.79758-13.82322.49365-1.3165 1.31651-5.26595 3.94943-10.20279 1.97481-3.62032 4.44318-11.02564 3.62033-13.00036-1.81017-3.62033-3.29123-6.74701-5.10139-13.00036-2.46837-14.81053-.49366-19.74736 2.63302-24.35511 4.44319-6.74701 7.24067-11.02554 11.8484-13.16491 2.13927-.9873 1.81017-5.10139 1.48106-7.89887-1.15195-7.24075.98741-6.58245 2.30382-10.36744 1.15196-3.78488 2.13937-8.72172 2.13937-10.20278 0-1.31651-.65831-4.44319-.98741-6.25336-.49365-2.96212-.82276-7.40521-.16455-8.88627 1.48106-2.30393 2.63302-5.1014 2.63302-7.24077 0-.9873.98731-2.46836 1.48106-3.94943.49365-1.64561 1.48098-5.26595 1.48098-8.06352 0-.82276 1.15195-6.58245 1.81025-10.69644 1.31642-8.06352.49366-12.01305-.16464-14.31688-.82277-3.45578-2.63294-4.93684-2.63294-6.08879 0-1.48107-.32909-6.0888-.6582-8.88629-.16465-1.64561 6.74701-11.02563 7.89888-13.00035.6583-.82286-.49366-7.24067-.49366-8.72173 0-1.31651-1.64561-8.22807-1.64561-10.03823 0-1.81027.3291-2.96213.3291-4.77229 0-1.97482-.3291-4.77229-.3291-8.39272-.32911-6.58236.16455-13.32947.16455-15.13963 0-1.48107-2.46838-1.48107-6.91157-3.78489-4.44318-2.30382-13.98777-11.68385-15.63338-12.5067-1.64561-.65821-9.37993-2.13928-13.49401-2.13928-4.11399 0-12.8358 1.97473-16.62069 2.63303-3.94944.49365-8.72174-1.15196-10.861-1.81017-2.46847-.6583-6.58255-1.81016-8.39272-1.64561-5.26595.65821-13.82312.82275-17.2789.16455-4.44319-.82286-8.06352-1.97481-10.20278-3.29123-1.81017-1.31651-2.46847-.82285-4.60775-2.79757-1.97472-1.81016-2.13927-2.79757-3.62033-2.96213-1.31651-.3291-13.82321-1.31651-16.12703-3.62033-2.30392-2.30382-5.4305-6.25335-7.24068-14.975081-1.81025-8.22806 1.15187-14.31687 4.27855-15.96248 4.93684-2.46837 11.68385-6.58246 15.30418-6.91156 1.64562-.16455-1.97472-6.41791-3.78488-12.67125-.82276-2.30383-4.27863-1.81017-12.17751-10.5319-3.45577-3.94953-9.54458-11.68385-11.19019-14.31687-1.64561-2.63293.16455-4.11399-1.48106-4.27854-2.13928-.16465-9.21549.16455-20.40557-1.97482-11.02565-1.97471-18.43097-4.93684-21.88674-6.0887-3.29123-.9874-11.19019-3.62043-13.65858-4.60774-2.46837-.82285-7.40521-2.96212-11.8484-4.4431904-4.27864-1.64561-6.25335-4.93684-8.39262-5.10139-2.30392 0-10.53199 5.7597004-20.40567 7.0761104-9.87369 1.31652-13.16492-.98731-18.59542-1.81017-5.59504-.6582004-10.69644-1.8101604-17.11434-2.3038204-6.58246-.49365-25.50707 2.9621304-28.7983 3.4557904-3.29123.3291-8.06351 2.63302-12.1775 2.63302-2.63302 0-17.279 4.27854-19.74737 4.77219-2.63302.49375-6.25336-.82276-8.06353-.16455-2.79756.82285-7.24075 1.81026-8.55716 2.13937-1.31652.16454-20.57023 6.747-23.86145 7.40521-3.94944.82286-9.38004 2.63302-13.82313 4.27863-2.96212 1.15187-4.77229 3.29124-7.24076 4.93685-8.22807 5.7596-10.53189 6.0887-14.48132 7.24066-2.46847.6583-3.94953 1.81017-9.54458 1.97472-5.75969.3292-7.40532 1.48107-7.24075 2.63302-.16457 3.78489-1.31652 11.5193 0 12.34215 3.12667 1.64552 10.86108 14.31678 11.35473 22.3803.32911 8.55717-.65821 14.64598-1.15195 17.279001-.32911 2.13927-.65821 3.62033-1.64562 4.93683-1.15186 1.31642-8.06342 3.62034-12.1775 3.78489-4.27864.3291-6.4179.49365-21.392983-3.29123-11.5193-3.12667-12.67126-4.27863-13.98767-6.0888-1.31652-1.645611-4.27865-3.126671-6.25336-4.113991-2.13937-.98741-4.27864-1.48106-6.25335-3.62033-1.97472-1.64571-11.1902 2.79748-23.69681 3.78489-2.30392.16454-6.58245 7.734311-14.15232 11.683841-6.0888 2.96213-9.05092 4.114-11.02565 5.59506-5.59504 3.78498-12.0129403 4.44318-11.3547303 6.0888 1.3165 3.12667-1.15187 4.77228-.32911 12.5067 1.15196 12.83572-1.81017 19.58282-1.81017 25.83607 0 3.12668 3.45578 6.91157 5.1014003 8.22807 1.64561 1.31651 4.44318 5.92425 5.26594 9.05093.82285 3.29123-.49365 13.98767-2.13927 22.70949-1.64561 9.37993-2.63292 18.43087-2.30382 21.7221.16456 2.30382 2.79747 6.58244 4.11399 9.05083 1.48106 2.96212 4.60773 13.4941 4.77229 19.08916.32911 5.10138-1.15195 11.19019-1.15195 12.1775 0 1.15196 1.81016 5.10139 3.29122 7.24076 1.81016 2.46837 5.92424 11.35474 7.07621 13.49402 1.48106 2.96212 1.81016 6.58245 1.81016 6.58245s-.3291 4.44319-.65831 7.07611c-.16454 2.63302-1.15185 11.84841-1.97471 23.36771-.98731 11.35474-.98731 20.89932.16456 21.88672 1.15195 1.31652 3.62032 3.4558 4.60773 5.10141.82285 1.48106 8.06352 13.98767 8.88638 15.96248.82275 1.81017 2.63292 6.58236 3.29122 10.20278.65821 3.62034 1.64553 10.69645 2.13927 12.50661.3291 2.30392 3.29123 17.6081 3.78489 20.07648.82286 3.12667 1.97472 11.84849 2.30392 15.13973.3291 3.94943.6582 10.36733.9873 11.51929h-.16454c4.27862-2.46847 2.96212-2.13937 8.22807-3.94953 9.38002-3.45578 7.73441-3.62033 9.38002-3.78488 2.79748-.49366 6.25335-4.93684 7.56977-5.10139 1.64561 0 3.62043-1.81018 5.1014-1.81018 1.64561.16457 3.12667-.9874 3.94952-.9874 4.60775-1.48107 7.24067-1.48107 7.24067-1.48107l7.569863-1.48106c3.12667-.49365 78.98948-27.48168 93.1417-33.07683 13.98777-5.59505 1.15196 4.11408 19.58281-2.63292 18.26631-6.74701 29.95016-13.00036 29.95016-13.00036 4.60775-1.48106 27.31723-13.16492 27.31723-13.16492s5.1014-2.63301 9.38004-2.30391c5.26594.3292 9.05083-.16455 10.69644-.3291 1.48107-.32911 2.63301-.82276 7.07621-.65821 4.60764.16455 6.4179.82276 10.20278.16455 3.45579-.49365 3.94944-3.12668 5.59505-3.62034 1.48107-.32919 3.45578-1.48106 4.27864-2.46847 2.13926-2.79756 4.44309-1.97471 5.4305-3.78488 1.81017-2.96212 4.11408-1.97471 9.05092-5.92424.98731-.82277 5.92416.3291 7.56977-.65821 1.81016-.82286 8.88638-6.4179 10.36735-7.24076 1.6457-1.15187 2.63301-3.29123 4.60774-2.96203 4.27863.98731 4.93684-.3292 7.0762 1.64561 3.12659 2.96213 10.20279 7.89888 10.53189 8.55718 1.31651 3.45578 6.58245 3.62033 6.74702 8.22807.16454 2.46837 2.46847 2.13926 2.13926 5.92425-.16455.98731 6.91165-.3292 9.87368 2.30382 1.97481 1.64561 9.54458 8.88627 10.69655 9.38003 1.97471 1.15187 5.43049 4.11399 6.91156 4.77229 3.12667 1.31641 15.30418 8.22807 18.92461 13.00026 1.64561 2.13937 4.60764 1.64562 6.4179 2.96213 4.77219 3.29123 17.2789 11.02565 18.92451 13.98777 1.48106 2.63292 12.83581 10.53189 13.32947 12.34206.32911 2.13926 5.59505 4.60773 5.92425 6.4179.16455 1.81016 7.24066 6.58245 9.87367 8.55718 3.4558 2.46846 2.46839 1.64561 6.08871 5.43058l1.15197-1.64561z"/>
    <path fill="#99542c" d="m462.44086 479.545.16455-.3292.16455-.49366.32911-.49366.16455-.32909.3292-.49376.16455-.49365.3291-.32911.3291-.49365.16456-.49376.3292-.32911.3291-.32909.16455-.49375.32911-.32911v-.16455l.16455-.16456.16455-.16455.16455-.16454v-.16456l.16455-.16455c3.94953-4.11408 3.29123-6.58246 9.54459-11.19019 2.30391-1.64563 1.31651-6.74701 1.31651-6.74701s0-1.64562 1.3165-4.60774c1.15196-2.96213 5.92416-8.55718 8.72173-11.5193.98741-1.15196 1.97472-4.93684 1.97472-6.747 0-1.48106-.16455-4.7723 1.64561-8.39263v-.49366c-3.62033-3.78497-2.46836-2.63301-5.92416-5.10148-2.46845-1.97472-9.70912-6.91157-9.87367-8.55718-.16455-1.81017-5.4306-4.27854-5.92425-6.58245-.49366-1.64562-11.84841-9.54459-13.32947-12.17751-1.48107-3.12667-14.15232-10.69655-18.92451-14.15232-1.81026-1.31651-4.77229-.65821-6.4179-2.79748-3.62043-4.77229-15.79794-11.68395-18.92461-13.16491-1.31652-.49375-4.7723-3.45587-6.91156-4.60775-1.15197-.6583-8.72174-7.7344-10.69655-9.54457-2.96203-2.46847-9.87368-1.15195-9.87368-2.30382.32921-3.62043-1.97472-3.29123-1.97472-5.7597-.16454-4.60774-5.59505-4.77229-6.91156-8.22807-.3291-.6582-7.4053-5.7596-10.36734-8.55718-2.30391-1.97471-2.96212-.6583-7.24075-1.64561-1.97473-.3291-2.96204 1.81017-4.4431 2.79748-1.64561.9874-8.72183 6.58246-10.36744 7.40531-1.81016.82276-6.74701-.16455-7.73432.49366-4.93684 4.11408-7.24075 3.12667-8.88637 5.92424-1.15196 1.97472-3.45579 1.15197-5.59505 3.94944-.6583.82285-2.79757 2.13936-4.11408 2.46848-1.64562.49365-2.30382 2.96212-5.59505 3.45577-3.94944.65821-5.7597.16455-10.20279 0-4.60775-.16455-5.75969.32911-7.24076.65821-1.64561.16455-5.26595.49375-10.53189.16455-4.44319-.16455-9.54459 2.30391-9.54459 2.30391s-22.54493 11.68386-27.31723 13.32947l-2.13926.98741c-.16456 1.48096-1.64562 4.77219-3.12668 5.59504-1.31641.82276-2.96212.32911-3.78489 1.48106-.6582 1.31651.98741 2.13928 1.48107 2.79758.3291.65821 1.15195 2.96203-.16455 3.94943-1.64563 1.15197-2.30393 2.96213-3.12669 3.94944-.82285 1.15196-4.11408 2.79757-3.29122 4.44319.6582 1.48107 1.31651 2.63302 1.48106 4.11408.49366 2.96203-.9874 4.44309-1.15196 5.59505-.16455 1.31651 1.31651 1.15196.16456 2.96212-1.48107 2.13927-2.79758 2.79749-1.97472 4.27855.6582 1.48106-2.46847.82285-3.12668.98741-.82276.3291-1.48106 1.15195-1.81016 2.63292-.16455 1.31651.3291 3.62043-2.30383 3.62043-2.63302 0-6.4179 0-7.24075.82275-.98732.82286.6583 2.30392-.49366 2.96214-1.31651.98739-1.97472 0-2.96212 0-1.15196 0-2.46838 1.31649-2.46838 1.31649s-.82285 1.31652-1.15195 2.13928c-.49366.82285-1.97473 1.31651-2.13928 2.30382-.16455.82285.82276 1.31651-.16455 2.63302-.49376.98741-1.64561 1.48106-2.79758 2.13927-1.15195.6583-1.64561-.49366-2.30391 1.15196-.49365 1.3165-.16455 1.81016-.82276 2.63302-.98741 1.15187-2.96212 1.48106-4.11408 2.13928-4.60764 1.64561-9.87369 2.46836-10.861 2.46836-.9874 0-7.0762-.16454-7.0762-2.13927-.3291-3.62033-3.29114-3.94943-3.62034-5.10139-.98731-2.63293-4.44308-3.78488-4.44308-5.59505-.16465-2.46847-9.05094-1.64561-9.38004 0-.16455 1.48106 0 9.54449 0 11.5193-.16455 3.12667 0 6.91156.65821 23.03859.3291 10.69645-.16455 12.83582 1.15196 23.69681.82286 6.4179 2.13927 9.54458 3.12668 11.1902l2.46837-.65822c-.3291 0 3.62043-.82284 1.97482-2.46847 2.30382-.16454 2.46837-2.30382-1.48106-2.46836 2.79747-.65831 2.63291-2.13937.9873-2.46847 2.30392-.65821 3.29123-1.48107 2.30392-2.79758 1.97472.32921 1.31651-1.48106.82275-2.13926 1.48107.3291 2.46847-.32911 2.13937-1.31652 2.30382 1.64562 4.11399-.16454 1.31642-1.3165 1.97472-.16456 1.3165-.98732-1.64562-1.48098 1.15196.32911 3.29124-.6583 2.63302-1.64561 1.48106 1.15186 3.45579-.6583.98732-2.63302 1.64571-.49366 2.30391-3.12667 2.30391-3.62033.16456 1.64561-.49366 4.77229 1.31652 4.27854-.98741.98741-.82286 1.97481 2.46837 1.97481-2.96213.49366-3.78489 2.63292 0 2.96203-1.48107 1.15195 2.30392.82286 3.94953 1.48106-2.46847.32911-2.79758.98741-1.81026 1.48107-2.46838.82286.3292 1.81016 4.11408 2.30392-3.62034.16455-4.44319 2.46837-2.79758 3.45577.82286.65821 2.13937.32911 3.29123.16455.98741-.49374 1.48106-.82285 2.63302-1.3165.98741-.32911 1.64562-1.31652-1.48106-2.30382 1.48106.32909 3.94944.16455 3.12668-.49376 3.62033-.49365 3.45578-2.30382-1.64562-3.94943 1.48106.49366 7.07612-.3291 4.27864-1.81017 1.31641-.32911.16455-2.63302-1.64561-2.46847 1.15186-.49365 1.48096-2.46837-.6583-3.12667 2.13926 0 4.27863-.32911 2.30391-1.48106 1.31641.16454 2.30382-.49367 1.81017-1.31642 2.79747.49366 2.13926-1.15196.82276-1.81016.6583-.32921 2.79756-.98741.49365-2.46847 1.81026.16455 3.78498-.16457 3.45588-.98741 2.13926-.16455 3.62032-2.46838-.16465-2.13928.49375-.49365.98741-1.48106-.32911-2.13926 2.79759 0 3.94954-3.62034 2.96213-4.60774 1.48107.16455 1.15195-4.11408.98741-5.4305.98731 2.46837 1.48106 3.94943 2.63293 3.94943-1.48106.98741.16455 2.63303 1.81016 3.12668-1.48106.65821 1.15196 2.46837 2.46847 2.13927-2.30392 1.15196-2.46847 3.78498 2.96212 5.43059-2.30391-.32919-.98741 1.97472 0 2.63293-.82285-.65821-3.78498-.65821-2.96212.65831-1.15196.3291-1.81017 2.46836 1.64561 1.48106-.3291.82276 1.48107 1.64551 3.94943 1.97471-1.48106 1.48106-.82275 2.13927 1.15196 2.46838-.82284.49365-1.81017 1.15196-.3291 2.13936-1.31651.98731-2.96213 3.12659 2.96203 3.29114-2.63293.98741-.3291 1.64571 1.15196 2.46847-4.93685-.16456-3.45578 3.78488.16456 3.94943-1.97473.6583-.82276 2.46847 1.48106 3.29123-1.31652 1.15195 3.29122 1.64561 1.97471-.65821 2.79757-.3291 4.11408-2.13927 2.13937-2.63302 3.62032-.98731 1.31641-5.26595.16455-5.10139 1.64561-.3291 3.78488-1.64562 2.13927-2.79749 2.46847.49367 5.26595-1.81016-1.15196-2.30391 5.1014-.65821 3.78498-2.79747 1.48106-3.62033.65831-.16455 6.74701.49366 4.27864-1.97472 1.64562-.49365-.16455-1.48106-2.13927-1.48106 1.48097-.32911 3.62033-1.97472 1.64561-2.96212.82276.16455 1.81017-.16455.98731-1.97473.82286.65822 4.60774.82277 3.62034-1.15195 1.31651-.49366.16464-1.48106-.65821-2.30382 2.13927-.82286.82285-3.78488 0-4.44319 11.19019-.49365.9874-4.27863.16455-4.60774 2.46847 0 5.10139-.6582 3.78488-1.97472 5.59514 1.15196 2.46847-3.45578.82286-4.27854.6582 0 2.79757-1.31651 1.48106-2.63301 2.63293 1.3165 4.4431.82275 1.81016-1.97472 1.15196-.32921.49366-1.81017-.49365-1.97482 2.46837.3292 2.46837-5.1014 2.46837-5.1014s1.64562 4.93686 4.11409 5.26605c-2.30392.82276-1.81026 4.60764-.16455 4.77219-.49376 1.64571 2.30382 1.48106 3.78488 1.81026-4.27864 0-3.45578 2.46838.16455 3.12668-1.81016.98731 0 2.30383 2.46837 1.81018-2.30382.82275-2.13927 2.46836.65831 4.11397-1.15196.65821-2.13937 1.97473-.98741 3.29123-1.81017 0 0 2.46847 3.45577 3.12668-4.44308.16455-5.43049 1.48106 0 3.45579-.82275.16454-.49365 1.48106 1.48107 2.13926-2.96213 1.31651-2.79748 3.78498 2.46847 3.94953-1.97471.65821-.16455 1.31651 1.48106 2.46838-9.38003.6583-4.27864 4.60773-.6583 3.94952-3.29123 1.48106 1.81017 1.15186 3.78488 2.13927-3.29112.32911-7.07611.82277-5.59504 1.81018-1.81018.3291-1.97473 2.79756 5.59504 2.79756-1.31641.65821 1.15196 3.12668 2.30392 3.78488-8.72173 1.15197-4.60774 2.46847-.16455 3.45579-1.31651.3291-2.46847 2.63302 2.30382 2.30391-2.79748.65822-5.43049 1.97472-3.12667 3.45579 2.30391 1.31651 1.97471 1.64561 29.12739 4.11398 21.39299 1.97472 25.01332 2.46847 29.95016 3.12667 5.75969.82286 1.48106-2.79756-.3291-4.27862 8.72172 1.48106 4.27863-2.79748 3.12667-3.78489 1.15196 0 3.78489-.65821 1.81017-1.97471 4.60774.6582 3.12667-2.46847 2.30382-3.45579 6.0888-1.48106 2.96213-3.12667.82285-4.27863 1.15197-.32911 2.13928-.82276 1.31652-1.97472 3.94943 1.48107 2.79747-.49366 1.31641-1.48106 1.64571.16455 3.94953-2.46838 1.48106-3.62034 2.63302-.65821 1.81017-1.64561 1.15196-1.97471 6.58246-.32911-.98731-3.45578.98741-2.63302 2.79747-.82276 4.93684-4.11399 2.46838-4.93685 2.30391-.32909 3.94952-2.30382 1.64561-3.45577 1.48106-.65821 1.48106-2.63302.82285-3.78489 4.27855.65821 2.96203-2.96213 1.81017-3.29123 3.12668.49366 3.45578-6.74701 3.45578-6.74701s.3291 4.77229 3.29123 5.1014c-1.81017.98731 1.64561 3.12667 3.12667 3.62033-2.79757 0-3.12667 1.81016-1.81016 2.46838-2.46847.16464.16455 3.12667 2.13926 3.78497-4.11398.65821-.6582 2.30382.32911 3.12668-1.97472.32911-1.81017 1.81017.3291 2.30382-2.13927.98741-.3291 3.29123.65831 3.62033 1.15187.3292 2.30382 0 3.45578-.82276 1.64562-1.81016-.49365-3.12667-1.48106-3.62033 3.94944-.6583 3.78488-3.78498 2.30382-4.44318 3.12668-.16456 2.30392-3.62034 1.15195-4.44319 2.30393.16455 2.46847-2.96213 2.63303-4.77229.6582 2.46847.49365 4.44318 2.13926 5.1014-1.97471 2.63302.32911 4.60773 1.81017 4.44318-1.15196.65831.16455 2.63302 1.64561 3.12668-3.94943.9874.82286 3.94943 1.81017 3.94943-2.13927 2.13936 1.48107 3.78498 1.48107 3.78498s-1.97473 2.13926-1.48107 4.27854c.49375 2.13937 3.78499 1.64561 4.77229.82285 1.97472-1.64561-.3291-3.94952-1.15195-4.44319 3.45587-.16455 2.63302-3.94943.98741-4.44318 3.29122 0 7.56985-1.15186 2.79756-2.30382-.6583 0 3.78488-1.81016.82276-2.46837 4.11408.16455 1.31651-3.78498 1.31651-3.78498s4.44319-.49367 2.13927-2.30382c2.46847.49366 2.79758-1.81017 2.79758-1.81017s-.49366 2.96212 3.12667 3.94944c-2.30383 1.15195.65821 1.31651 1.15197 1.64561-3.78499 1.15196-.82286 2.63302.9873 3.12668-2.13927.49365-1.81016 2.13927-.16455 2.96212-1.81016.49365.16455 1.81017 1.81016 2.13927-2.63291 2.13926-1.48106 4.27863.65831 4.60774-2.46847 3.78488 1.48106 3.29123 2.46837 2.46837.98741-.49365 1.48106-1.48096 1.15196-2.13926-.32911-.65822-.98741-.65822-1.81017-.98741 3.62034-.98731 1.81017-3.12659.65821-3.78489 4.7723-.49365 3.45578-3.45578 2.46847-4.11399 1.31642-.16455 2.63292-.6583 1.81016-1.64561 1.15187-.16455.65822-1.31651 1.15187-2.96212.16456 2.13926.6583 3.78488 1.64562 4.11399-.82276.82285.3292 1.48106.82285 1.81026-3.12667-.65831-.65822 1.97471.32911 2.13926-1.31652 1.31651-.16456 1.81017.82285 1.81017-.98741.9874-.3292 1.31651.82276 1.64562-1.31651.98731.3291 3.12667 2.63301 2.30382 3.45579-1.15186 0-3.29123 0-3.29123 1.97473 0 3.45579-.82276 2.46838-1.64562 3.62033.98741 5.75969-2.13927 2.79757-3.62033 1.15197-.3291 2.46838-2.96212-.49366-3.78488 3.45578.6582 5.75961-.3291 3.78489-2.96212 1.97472.16455 1.81017-1.64563 1.97472-2.79758.49366 2.30392 1.31651 2.46847 2.13927 2.46847-1.31641 1.48106-.16455 2.13927.6583 2.63293-.3291.82285.49366 1.97481 1.97472 1.81026-.82285.65821.16455 1.48097 1.15195 1.64551-4.11408.3292-2.96212 2.46847-1.15195 2.46847-.32911 1.31651 0 1.81017 2.30382 1.48107-1.48106 1.81016 1.15195 2.13926 2.13936 2.13926-3.45577 0-2.96212 3.94954-.6583 3.12669-.16455 2.13926 3.29123.6583 4.44319 1.15195-2.46837 2.30382-1.81017 4.11399 3.29123 3.12667-2.46847 3.45579 1.97471 2.46838 2.30382 1.31652 3.12667 2.13927 4.11408-.98741 2.13936-1.97482 1.48107-.16455.98731-1.3165-1.15195-1.97471 2.79756 0 2.13926-.82276 1.64561-1.64561 2.13928.6583 2.96212-.49366 2.13928-1.81018 2.3039.32911 2.3039-2.30382 2.3039-2.30382s.32911 1.64561 1.97472 1.31641c-.82285 1.81018.65821 2.30393 2.79758 1.81018-.82285 1.81026.16455 2.46847 1.64561 2.63302-.16455.65821 0 1.81016.98731 2.30392l-.3291.16455z"/>
    <path fill="#fff" d="m298.044 354.47833-.49366-.16465-.32911.16465h-1.3165l-.6583.16454-.65822.16455-.6582.16456-.6583.16455-.65821.16455-.82285.3291-.65821.32921-.32911.16455-.3291.16454-.3292.16456-.49366.16455-.3291.16456-.49365.16454-.3292.16455-.49366.32912-.3291.16464-.49365.16455-.49376.3291-.3291.16456c-2.30382 1.15196-16.9498 11.68385-23.86136 14.48141-5.10149 2.13928-6.91165 7.56977-6.91165 8.72174.16455 1.97471 5.59514.3291 10.53198-.82276 6.08871-1.81027 6.41791-2.63303 6.74701-4.11409.16456-.9874 3.78488-2.96212 6.91157-6.25334 2.46845-2.63293-.49367-3.29124 1.81015-4.60775 2.46848-1.64561 7.40532-6.91155 9.54459-7.56977 2.13927-.82284 7.73442-3.62032 6.91156-3.62032zm136.25687 35.05155v.16455h.16455v.16455h.16455v.16455l.16455.16456.16455.16454v.16465l.16456.16455.16455.16456.16465.16455.16454.16455.16456.16455.16455.16455.3291.32911.32911.32919.3292.32911.16455.16455.16455.16455.16455.16455.16456.16456.16455.16455v.16455l.16454.16455.16456.16465.16455.16455h.16456v.16456l.16455.16455c1.15195.82275 2.30391 2.13927 3.12667.82275.65831-1.31641-1.97472-1.81016-3.94943-3.78488-1.97472-1.97471-.98741-2.79757-3.12668-3.62034-2.13927-.98739-.82275 1.15197-.3291 1.81018zm-38.67199-22.05129h.16465v.16465l.16455.3291.16456.16455v.16455l.16455.16456.16456.3291.32909.16455.16456.3292.16455.16455.16456.3291.3292.32911.16454.3291.16456.32911.49366.49374.49365.65822.49375.65829.3291.16455.16456.32911.3291.32911.16455.16455.3292.3291.16456.3292.16454.16456.16455.16455.16456.3291.3291.16455v.16456h.16455c1.48106 1.48106 3.45578 3.29122 4.44319 4.77229.82276 1.48106 1.97471.6583 2.13927-.16456.16455-.98741-3.45579-4.27863-2.13927-4.27863 1.15195 0 2.30382 2.96212 3.94943 4.44319 1.48106 1.48106 2.96213 3.62032 3.62042 4.93683.82277 1.48107 2.30383 2.96214 4.4431 4.93685 2.13937 1.97472 2.30392 3.62033 2.30392 3.62033s.16455-1.81016 0-3.94943-3.62043-3.78489-5.92425-5.7597c-1.64561-1.48097-.82277-3.29123-2.30383-5.1014-1.48106-1.64561-6.25334-9.87368-7.56985-10.86099-1.31652-.98741-1.97472 1.15186-2.96213 2.30382-.82276 1.15195-2.96212-3.94943-4.11399-5.59505-.98741-1.48106-2.79756-5.75969-4.27863-4.60774-.82276.65821 1.64561 6.25336 2.13926 7.56977zm-34.22869-10.03823v.32919h.16455v.65821h.16456v.32911l.16455.16455v.16455l.16455.16455v.6583c0 .98741-1.15196.49366-1.15196 1.31652 0 .9873-.3291 2.96212 1.64562 3.29122 1.97471.3291 2.13936.49366 3.45577.16455 1.48107-.3291 4.27865.65821 4.93685-.3291.82286-.98741-.6582-2.30391-1.64561-2.79757-1.15187-.65821-1.31641-2.46847-1.97472-3.94944-.65821-1.31652-2.79758-1.97482-4.93685-1.97482-1.31651 0-1.15186.6583-.98731 1.81018zm29.29186 17.9372.16465.49375.3291.3291.16455.49366.3291.3291.32911.3292.16455.32911.3291.32909.3292.32911.32911.3291.3291.16455.3291.32921.3292.3291.3291.16455.32911.32911.49365.16455.3291.3291.49376.16465.32911.16455.49365.3291.49374.16455.49367.32911.49366.16455.49365.16455.49375.3292.49366.16455.49365.3291.6583.16456.49366.3291.65821.16455.6583.32911.6582.3292.65831.3291c1.81016.82277-10.8611-9.38003-14.15232-13.16492-2.96213-3.12667-6.4179-8.39261-9.05084-8.55716-2.96212-.32921 8.39263 10.03822 9.70905 12.67116zm-69.60946-15.63328-.3291.16454-.16455.16455h-.32911l-.32919.16456-.32911.16455-.3291.16455-.32911.3292-.3291.16455-.49375.32911-.3291.16455-.32911.3291-.49365.3291-.3292.16455-.49366.32921-.82275.6582-.82286.65821-.82276.6583-.82285.82276-.32911.3292-.3291.32911-.49375.3291-.3291.3291-.32911.3291-.16455.32911-.32911.3292-.32911.3291-.16464.32911-.16455.16454c-1.31642 1.81017-.65821 3.62034-.16455 3.94953.49374.32912.9874.49366 1.64562-.16454.49375-.49375 1.31651-2.79758 2.63301-3.62043 1.48107-.82276 3.45578-4.11399 4.60774-5.10139 1.15186-.98731 5.10139-4.60774 2.46837-3.94943zm-20.40557 9.54457h-.6583v.16455h-.32911l-.16455.16455h-.16455l-.16455.16455h-.3291v.16456h-.16456l-.16464.16455-.16456.16456h-.3291v.16454h-.16455l-.16455.16455h-.16456c-1.3165 1.15197-2.13926 1.48106-1.48107 2.13936.49367.65822 1.15196 1.15187 1.97473.32911.82286-.82285 2.13927-2.63302 2.79757-2.96212.82276-.32911.65821-.82276-.16455-.82276zm16.29159-14.31687h-.16465l-.3291.16455h-.16456l-.3291.16455-.3291.16455-.3291.16455-.3292.16456-.32911.16465-.49365.16455-.32911.16454-.32919.32911-.49366.16456-.3291.16454-.49366.32912-.82285.49374-.98731.49366-.82287.32909-.3291.32912-.49366.16455-.32919.3292-.49366.16454-.3291.16457-.32911.16454-.3291.32911-.3292.16455-.32911.16455h-.32909l-.32911.16455-.16455.16465c-2.46847 1.15187-4.27863 2.63293-4.11408 3.12658 0 .6583.6583.82285 2.79757.98741 2.13926.16455 2.13926 0 4.11399-1.48106 1.81016-1.48106 4.77229-4.11399 6.0888-5.26595 1.48106-1.48106 3.29123-3.45579 2.63302-3.29123zm173.44769 69.774h-.49365l-.32911-.16455h-.3292l-.3291-.16456h-.49365l-.16456-.16455h-.49375l-.16455-.16455h-.49366l-.16455-.16455h-.49366l-.16455-.16455c-3.94953-1.15196-5.59514-2.96212-15.46883-3.94953-1.97472-.16455-7.89897-7.07612-16.78524-10.5319-2.46847-.82285-17.9372-10.20279-19.91193-10.53198-6.74701-.82276-8.55716-3.12658-7.7344-.98732.49365 1.15196 2.96212 2.63293 3.12667 6.74701.16455 1.31652 1.81017 5.92425 1.81017 5.92425-.16456 1.64562-21.72209-5.43059-26.82349-13.32946-7.07612-10.69654-8.39262-13.32956-12.1776-15.79794-3.94943-2.30391-7.24066-4.77229-8.55717-7.89896-.49367-.65822-.16455-2.13928-1.31651-2.30383-2.30383-.16455-4.11399.32911-5.4305-2.30391-.82276-1.64562-2.30382.82285-3.45578 1.81016-.9874.6583-2.96213.3292-2.46837 1.64562.3291 1.15196-1.48106 1.81026-.65831 2.46847 3.62034 3.45578 1.81017 6.58245 3.45578 7.24066.6583.16455 1.48106 2.46847 1.31651 3.94953-.3291 3.29122 1.81017 3.94944 1.97472 5.59505 0 1.31651.98741 4.44319 0 4.27864-1.48106-.32911-3.94943-1.97472-5.92415-3.78498-1.81016-1.64562-3.29122-1.64562-3.62044-3.12658-.16454-.6583-1.81015-1.64571-3.94943-5.4306-.3291-.98731 3.12667 5.1014 4.27865 9.21548.82275 2.96213 2.30382 6.25335 3.94943 8.39262 1.48106 1.97472-.16455 5.4305-.16455 5.4305-.49366 0-4.77229-2.30382-5.43051-3.78489-1.81026-3.29122-7.0762-3.78488-11.35474-11.51929-1.48106-2.96212.16455-8.88628.16455-10.53189 0-2.46847-2.79757-3.78498-5.10139-7.73441-2.30392-3.29124.49365-11.68385 0-14.31689-.49376-2.30382.6582-5.92414-.49376-5.92414-1.81016.16455-7.24066 5.43049-13.82312 8.88628-1.15196.49366-3.62033 2.63302-4.44319 2.79757-5.43049 1.64561-7.56977 3.94943-10.03824 9.21538-2.96212 6.25335-5.10139 9.38003-6.25334 11.68386-1.31642 2.3039.49375 2.79756-1.31642 4.44318-1.31651.9874-11.8485 11.35474-13.32946 12.83581-5.43059 5.43049-5.92426 3.45578-5.75971 2.79747.65822-2.79747 7.07612-10.03824 10.8611-16.29149 2.46837-3.78497-2.46847.16454-4.27863-.82285-3.12668-1.81017.16455-5.59506.82285-6.08881 1.31641-1.48096.3291-2.63292 1.15186-3.62033 2.30392-2.46837.82285-2.79748 1.64561-3.45578 1.48106-1.15196.82286-1.15196 0-.82276-1.97471.98732-7.56977 4.27854-8.72173 5.4305-1.64561 1.64561-15.13962 9.87369-12.17749 5.7596.6582-.82276 1.81016-2.13927 3.12658-3.12658 1.48106-1.48106 2.46847-3.78498 2.63301-5.10149 0-.98731-.16454-2.13927.49366-2.79747 6.91166-5.92425-.98731-1.31652-1.81017-.49376-2.30382 2.46847-9.37993 6.58246-12.34205 8.39272-1.97482.98731-7.56986 3.62033-8.06352 5.1014-.6583 1.48106-1.31652 2.79748-2.46848 2.30382-2.63292-1.15196-3.94943-.49367-6.0887 1.31651-2.13936 1.64561-3.29122-.32911-4.27863-.16455-3.29122.6582-5.1014-.6583-6.41791-.32911-2.30382.65821-11.84839 7.40522-14.64597 6.58246l-1.31651.16455-.49366-.6583-.16455-.49366c.16455-.16455 1.64561-2.96212 1.31651-5.59505-.16455-1.48106-.6583-2.63301-1.48106-4.11408-.65821-1.64562 2.63302-3.29123 3.45578-4.44319.82276-.98731 1.48107-2.79747 2.96213-4.11398 1.3165-.82286.6582-2.79758.16455-3.45578-.32911-.82286-1.97472-1.97472-1.31651-3.12669.65821-1.3165 2.46846-.6583 3.94943-1.48106 1.48107-.9874 2.79758-4.27863 2.79758-5.92424l2.13926-.82276c4.60775-1.48106 27.31723-13.32946 27.31723-13.32946s5.1014-2.46847 9.38004-2.30392c5.26594.49375 9.05083 0 10.69644-.16455 1.48107-.32911 2.63301-.82276 7.07621-.65821 4.60764.16455 6.4179.82276 10.20278.16455 3.45579-.6583 3.94944-3.12668 5.59505-3.62034 1.48107-.32919 3.45578-1.64561 4.27864-2.46847 2.13926-2.79756 4.44309-1.97471 5.59505-3.78488 1.64562-2.96212 3.94953-1.97471 8.88637-5.92424.98731-.82277 5.92416.3291 7.56977-.65821 1.81016-.82286 8.88638-6.4179 10.36735-7.24076 1.6457-1.15187 2.63301-3.29123 4.60774-2.96203 4.27863.98731 4.93684-.3292 7.0762 1.64561 3.12659 2.96213 10.20279 7.73432 10.53189 8.55718 1.31651 3.45578 6.58245 3.62033 6.74702 8.22807.16454 2.46837 2.46847 2.13926 2.13926 5.92425-.16455.98731 6.91165-.3292 9.87368 2.13927 1.97481 1.81016 9.54458 9.05082 10.69655 9.54458 1.97471 1.15187 5.43049 4.11399 6.91156 4.77229 3.12667 1.31641 15.30418 8.22807 18.92461 13.00026 1.64561 2.13937 4.60764 1.48107 6.4179 2.79758 4.77219 3.45578 17.2789 11.1902 18.92451 14.15232 1.48106 2.63292 12.83581 10.53189 13.32947 12.34206.32911 2.13926 5.59505 4.60773 5.92425 6.4179.16455 1.81016 7.24066 6.58245 9.87367 8.55718 2.96213 2.13936 3.62034 2.63302 6.08871 5.26603l-.6582 1.31642z"/>
    <path fill="#2d4b1e" d="M438.5797 513.44459v.16456l-.16455.16455v.16455l-.16456.16465v.3291h-.16455v.16456l-.16456.16455v.16454l-.16454.16456v.49366l-.16455.16464v.32911c-.82286 2.63292-3.29123 17.2789-3.45579 20.57012-.32909 3.45579-1.15195 4.93685-2.96212 6.74701-1.81016 1.97482-7.07611 6.08881-7.40532 8.55728-.16454 2.30382.65831 10.53189-.9873 12.01295-1.97472 1.97472-9.38003 11.1902-12.34215 14.15233-2.79748 2.96202-7.56977 8.22806-7.56977 8.22806l-2.63302 3.78489c1.31651 1.64561 3.12667 7.0761-.65821 10.86098-3.29123 3.29124-9.87368 12.17761-18.92461 18.59551-4.77229 3.45579-10.20279 6.91157-11.35474 8.39263-1.64563 2.13926-.65821 6.41791-1.97472 7.24066-2.46838 1.31652-6.58246 6.25336-8.39263 6.91156-2.30382 1.15196-2.13926 2.46847-2.79756 4.44318-.65821 1.97473-1.97473 2.46847-2.46839 4.60775-.98741 3.29123-6.08879 10.86109-9.38002 16.12704-2.13928 3.29122-5.4305 3.94943-9.05084 6.58245-6.58245 4.44309-5.43059 2.30383-16.45614 12.67116-3.78497 2.79757-8.72182 8.39263-10.36743 9.54459-1.48097 1.48106-6.08871 8.06351-9.05083 11.02563-3.12667 2.96213-6.0888 4.7723-20.07648 7.40522-3.12667.82285-6.25334-1.31641-11.84839-1.31641-2.79758 0-10.36744-4.27864-13.00036-5.92425-2.13937-1.31651-5.75971-2.96212-7.24077-4.11408-6.25335-4.11399-9.38002-5.26595-11.35475-6.08871-2.13927-.9874-4.60764-2.13936-6.4179-3.45578-2.46837-1.64562-6.0887-5.59515-7.56977-6.91156-6.0888-5.59514-17.11444-12.50671-18.59541-14.31687-1.3165-1.97472-4.11408-5.92425-6.25335-8.39262-1.97472-2.46848-2.96213-1.64561-4.11409-3.62033-.6582-.82286-.3291-8.55728-.82276-10.03834-.3291-1.64561-.6583-3.45578-6.08879-6.58245-5.43051-3.12658-7.89896-3.45578-9.70914-6.08871-1.97471-3.12668-9.54458-11.19019-9.87368-12.83581-.49366-1.81016-1.15196-6.74701-1.48107-8.39262-.32909-1.64561-.98731-4.44319-4.77228-6.91156-1.31651-.9874-1.31651-2.30392-1.97472-3.12668-.49366-.82285-2.30382-1.3165-3.12668-1.64561-.9873-.16456-.9873-1.97482-1.48106-4.44319-1.31641-7.73441-3.78489-10.36734-6.74701-13.82312-2.96212-3.29123-6.25335-6.25335-7.24065-6.747-2.30392-.98741-5.10141-3.62043-6.25336-4.93685-.98741-1.15196-2.13927-2.46847-2.13927-4.27864 0-1.81016-1.97481-8.72172-3.45578-11.35474-2.13937-3.78488-3.94953-8.88628-8.22807-14.81053-5.26604-6.91156-8.22807-8.39262-9.87368-10.03824-1.15196-1.15195-1.31651-4.11408-.98741-5.75969.32911-2.30382-1.31652-3.94944-3.62034-6.74701-2.46846-2.46838-9.050923-9.05083-10.038223-10.36734-.82286-.98741-2.63304-1.81017-4.27865-2.13927-1.48106-.3292-3.12667-3.78498-4.11398-4.44318-.98741-.65821-1.15196-1.97473-1.15196-3.94945 0-.16465-.16455-.6583-.65821-1.48106-.16464-.6583-.49375-1.3165-.82285-2.13936l-.32911-.49366c.49366-.16454 1.15196-.49365 1.64562-.65821 1.15196-.49374.98731-.9874-.49366-1.15195 1.15186-.32911 2.46838-1.31651 1.31642-1.81017 1.3165-.6582 2.46846-2.13926 1.3165-2.46846.82286-.65821 1.31652-3.45579 1.31652-3.45579s.3291 1.64562 1.48106 2.79758c-1.15196 0 .16455.65821.6582 1.15196-.6582.3291.32911.65821.98741 1.31651-.98741.3291-.6583.82276.3291 1.15186-.65821.49366.49366.65831 1.48107.3291-.49365.82286-.98741.82286-.98741.82286s5.1014-.49365 7.734423-2.30382c2.63302-1.81026 1.64561-2.46847-.493663-3.45588 1.974723-.6582 6.911563-2.13926 5.265953-3.62033 1.3165-.98732-.49366-1.64562-2.13927-1.97472 5.92416-1.31651 6.25326-2.30382 5.59505-2.63302 3.12667-1.81017-.65822-2.63293-1.64561-3.29123 3.94943.82286 3.12667-.49365 2.63302-1.48096 3.29123 1.48096 3.45578-1.97482 2.13926-2.96213 1.31652-.16456 1.48106-1.97472-.49365-3.12668 3.29123.3291 5.26594-.3291 2.63292-2.13926 1.64561-.65831 1.81017-1.48107 1.15196-2.13937 1.81017-1.15186.65821-2.30382-.16455-2.63292 1.81017-.82286 1.64561-2.79759.6582-3.29124 1.48107-1.81025 2.13928-5.92425 2.13928-5.92425s0 3.12668 2.30391 4.77229c-.82285.82277-.3291 2.46838.98732 2.46838-1.31642 1.97482-.49365 2.63303 1.81026 2.96212-.82285 1.15197-1.64561 2.13927 1.48106 2.30392-2.63302 1.81017-1.64571 2.96203.82276 2.63293-2.63302.9874-.98741 2.63302 1.81017 2.13936-1.97472 1.48096-1.97472 3.12659.98741 2.63292-2.79758 1.48106-3.12668 3.45579 1.31641 3.29124-1.48097 0-2.96203 3.94953 2.63302 5.10139.49365-4.44318 2.13927-35.05155 2.46847-40.6467.16454-6.0887-.16465-10.36734-.16465-10.36734s-.49366-.16455-3.12658 0c-2.46847.32911-3.62043 1.15197-7.56986-.16455-3.94944-1.31652-4.60775-.49365-7.40522-.32911-2.46847.16457-3.78498-.16454-6.58246.82277-2.96213 1.15195-6.0888-.32911-7.40531-1.48106-1.31651-.98732 0-3.29124 2.13927-3.29124 4.7723.16465 5.7597-1.48096 6.25336-2.30382 1.3165-2.63302-1.81017-2.13926-2.30382-3.45578-.82287-2.63301-2.30393-3.12667-2.96213-3.78488-1.48106-1.48107-3.12668-.6583-3.94944-.98741-.82285-.49366-1.974813-.65821-1.481063-2.96213 0-.6582-.49375.16456-2.30392 0-1.81016-.32909-.65821-.32909-2.30382-.6582-1.48106-.16455-.49365-1.64562-2.46847-1.97471-1.48106-.16456-1.64561.82275-4.11399.9873-.82285 0-4.27863-.3291-5.59514-.82275-1.31641-.49376-2.96202.16454-3.94943-.65831-1.15196-.82276-.65822-2.30382-1.15196-4.11398 0-.98741 1.64561-2.46847 2.30392-3.94954.82275-1.31641 2.30382-1.81015 6.0887-1.31641 1.64561.3291 4.77229.49365 7.24076.3291 3.78489-.49365 1.97472 1.15196 4.77229.98731 2.797483 0 6.253353-1.64561 6.417903-3.29122.3291-1.48097.3291-3.12658-.6583-3.45579-.98731-.49365-2.46838-.49365-3.45578-1.81016-1.151963-1.31642-.822763-2.63292-.822763-3.94943.16455-1.15196 1.810163-2.63302 3.455783-3.62034 3.29122-2.13936 1.48106-3.29123 2.46837-3.62033.98741-.49375 2.46848-.98741 4.44319-.98741 3.45578-.16455 4.93684.98741 7.56977 1.15196 2.96213 0 5.92425.82276 8.06352.82276 5.92425-.3291.3292-3.12667 3.45578-2.63292 1.64561 0 3.94953-.49375 5.59514-1.15196 2.79758-1.31651 2.79758-3.94953 4.27854-5.26595.82286-.6583.6583-3.62043.49376-4.77229 0-1.31651-1.31652-3.45578-3.29124-3.78498-1.81017-.3291-3.62033 0-5.92425-.3291-2.13927-.3291-2.63292 0-3.78488.3291-1.31651.3292-1.31651.49376-2.46847 1.31651-1.31641.98741-2.13926.98741-3.12667 1.97472-1.31642 1.15196-.49365 2.96213-1.97471 3.78497-3.12669 1.64563-2.79749-.16455-4.27855.16457-1.48107.16454-2.63302 0-3.78498-.32912-1.48097-.32919-3.78488-.82284-3.94943-1.97481-.16456-1.31641-.98741-1.97472-1.97473-2.46837-.82285-.49365-.9874-1.31651-1.97471-1.31651-1.15196 0-1.64561 0-3.126683 1.15196-1.31651.98731-.82286 2.46837-1.31651 3.29122-1.3165 1.97473-.98741 3.45579-2.30382 3.45579-1.48106 0 0-1.48106-2.46848-.82286-1.31649.3292-1.15195 1.48107-2.96212 1.97482-1.3165.49365-1.81016.82276-3.78488 1.64561-2.30382.98731-2.79757-.16455-4.77228-.6583-1.64562-.49366-2.46847-1.64561-4.77229-1.64561-1.64563.16455-.65822-2.96213 1.15195-5.1014 1.64561-1.81017 3.78489-.65821 5.26595-2.46837 2.79757-3.45578 2.79757-1.48106 3.45577-4.27864.49366-1.81016 2.63302-.98741 2.30393-2.79757-.32921-1.97473-1.81027-.98732-2.13937-3.29122-.16456-1.31642.3291-3.45579 2.30391-3.78489 1.97472-.16456 4.60765.98741 7.07612-.82276 1.81017-.98741 3.949433-1.64571 5.101393-2.79758.98741-1.15195.49366-2.79756 1.31651-3.29122.65821-.49375 2.63293.16455 2.13928-2.63302-.49367-2.13927-2.96213-.6582-4.60775-2.13927-1.151863-.82286-.82276-1.81017-1.810173-1.97473-2.79747-.32919-1.3165 1.64562-5.26595-.6583-1.64561-.98731-.32909-1.64561-1.64561-2.46837-1.48106-.82285-2.63301 0-5.26594-1.31651-2.30391-1.15196-4.60773.82286-5.26594-.82285-.3292-1.15187-2.63302-2.13927-2.96213-2.63293-.32911-.49365-.82285-1.3165-.6583-2.79756.16464-1.31652-.16455-3.12669 1.15196-3.78489 1.31651-.49366 2.13927-1.81017 2.96212-2.79758 1.48106-1.64561.49365-3.62033 1.48106-4.44318 1.15196-.98731 3.12668-5.1014-2.13926-2.13927-1.64571.82286-3.78499-.16455-4.27864.65829-.49366.65822-4.11408.65822-4.11408-.82284 0-1.97472 3.45587-1.81018 1.81026-4.114-1.64561-2.13936-2.96213-.82285-2.96213-3.12667-.16455-1.15195 2.63293-2.96212 4.27854-3.62042 1.64562-.65821 4.11408-2.13928 7.73442-.49366 8.39261 4.11408 6.91155.82285 9.87367.82285 3.12669.16455 2.30383 1.64561 8.228083 1.97472 2.63302.16456 6.25336.16456 6.25336-1.31651 0-1.64561-2.13927-1.64561-3.62034-1.97472-1.31651-.3291-3.29122 1.31651-4.44318-.82285-.822863-.98731 1.97471-1.64561 1.64561-3.45578 0-1.81017-2.962123.16455-3.126673-1.31652-.49366-2.13926 1.481063-4.11398-.49366-5.43049-.82286-.49365-2.46847-.98731-3.94953-.16456-1.31642.65831-2.46838 1.81017-4.77229-.32909-2.46838-1.97473 1.3165-2.96213.16465-4.60774-.98741-1.64561-4.27864.82286-3.45588-1.64561.49375-1.15196 2.30391-3.78489 4.44318-3.45579 9.873693 1.31651 13.164913-1.97472 15.139633-1.81016 2.79758.49365 2.79758 1.64561 6.08881 1.48106 2.46837-.16456 3.62032-2.63302 8.06351-2.79758 7.24067-.16455 7.40522 1.15196 9.87369 1.97472 9.05083 2.63302 5.59506-2.13927 7.56977-2.13927 2.63302.16455 2.96212-1.48106 2.96212-2.46837 0-.82285-1.48106-1.31651-3.62033-1.81026-1.97472-.32911-1.64561-1.97472-6.0888-1.15187-5.59505 1.31652-8.88628.32911-10.69645 1.81017-2.96212 2.30382-5.75969 1.81017-7.0761-.49365-1.15197-1.97482-4.60774-3.12667-5.59516-2.79758-3.12667.82276-4.77228.49366-5.59504-.9874-.98741-1.48106-2.633033-3.29123-4.607743-3.78489-1.81017-.49366-4.11399 1.31651-5.26595-2.13927-.98741-2.46847 1.97471-2.79757 2.96213-4.11408 1.15186-1.31651 0-2.63292 1.15186-3.45577 1.81017-1.31652 4.936843-3.12669 4.607743-4.27865-1.645613-3.29123-2.632923.49376-3.620333-.3291-3.12669-2.30382-3.94944.16455-5.43051-.49366-1.64561-.82285 1.97473-2.30382 2.13928-3.78488.32911-1.64561-.65821-3.12667 1.81017-5.26603 4.11408-3.29123 1.15196-3.29123.82285-4.4431-.16465-1.15196.82276-2.13937.32911-2.96213-.49376-1.15195-1.64561-1.31651-1.81017-2.30382-.16455-1.15195 1.15186-3.62042 2.30382-4.27863.98741-.65831.16456-1.81016 4.936843-2.96213 4.93685-1.15196 1.97472-3.29122 1.97472-4.11398 0-.98741.49375-2.30392 1.31651-2.63303.82286-.32909 1.64562 0 2.96213-.16455 1.48106-.16454 2.13927-.6583 3.78488-.49365 1.64562.32911 1.48106 1.15186 2.79757 1.48096 1.31651.16465 2.30382-.16455 3.29123-.16455 2.13926.16455 2.96213 1.48106 4.77228.82285 1.81018-.82285 1.97473-2.13926 1.81018-3.62032 0-1.31651-1.97472-.32911-1.81018-1.64562.16457-1.3165 1.31652-.82285 1.15187-3.45578 0-1.15196-.16455-2.13937 1.64562-2.63302 1.97481-.49365 2.13937-1.31651 3.45578-1.31651 1.15195.16455 3.12667 1.31651 4.93684 1.48106 1.15195 0 4.11408-.3291 4.44319 1.15196.49365 1.81016 1.15195 2.96213 1.48106 4.11399.16455.82286.16455 1.81016 1.31651 2.30392.6582.16455 1.31651.82276 1.31651 2.13926 0 1.97473.49365 7.07611.49365 7.07611s.65821 1.64563 1.48106 1.31652c.98732-.3291 1.97473-.82276 2.30382-6.74701.16456-1.31651.98741-13.82312.16456-14.97508-1.31641-2.30392-.49365-2.96212-1.48106-4.11408-.98732-1.15186-2.13927 0-2.13927-1.15186 0-1.31651.16455-3.45579-1.48107-3.78499-2.30382-.49365-2.30382 1.97482-2.46836 2.96213 0 .98741-1.64563 1.31651-3.62034 1.31651-1.31651 0-2.96213-.49365-4.11408-1.15195-1.15196-.49366-1.48107-.49366-2.96213-1.64562-.82276-.49366-1.15186-.98732-.82276-4.11399.32911-2.46847 2.30382-4.27863 1.15187-5.43059-1.15187-.98732-1.48097-1.31641-4.60764-1.31641-2.96213 0-5.1014-.16456-4.93685-1.81017.16455-2.30393 2.79748-2.30393 7.40522-1.97482 1.97471.16465 3.62033-1.48096 3.12668-3.62033-.16456-.82276.6582-1.48106.6582-3.29123-.16455-1.97471-2.13927-3.29122-3.78488-2.30382-2.13927 1.15196-3.45578.32911-4.93684 1.15196-2.96213 1.97472-4.60774 1.31641-6.08871.49365-.98741-.6583-1.97482-1.97471-1.31651-3.45577.65821-1.48106 1.31651-1.64561 1.48106-3.45579 0-1.64561-1.97481-1.81016-.49375-3.45577 1.64561-1.81027 0-4.44319 1.64561-5.4306 3.29124-2.30382.32911-4.27853 2.96212-5.59505 1.48107-.82285 1.81018-2.96212 1.81018-4.60774 0-1.48106-1.81018-1.81016-.49366-3.29122 1.3165-1.31652.65821-3.78488 3.45578-4.27864 2.63302-.3291 4.27864-1.48106 6.4179-2.46837 1.48106-.49365 3.78488-2.30383 6.4179-3.62034 1.48107-.82285 1.81017-.82285 6.25336-1.3165 1.31641-.16456 3.94943-2.13927 5.10139-3.45579 1.15187-1.3165 2.46838-1.64561 5.10139-1.81016 1.48107-.3292 2.30382.82276 4.93685 1.97472 2.63292 1.15196 2.30382 2.96212 4.60773 3.45578 1.48107.3291 4.27855-.32911 2.79748 2.30382-1.15187 1.97482.65831 3.45578-1.97471 3.78497-1.48107.32911-2.63303 1.15187-2.63303 1.97473.16465 1.81016 1.97481 2.46837 3.94954 3.29122 2.13927.82276 2.13927 2.30382 3.29122 3.62033.82276.82286.98732 3.45578 1.31652 5.10141.3291 1.48106.3291 2.96212.3291 4.27862.16455 1.31652 1.15196 2.46838.98741 4.60774-.16465 1.81016-1.15197 2.96203-1.81027 4.27855-.82276 1.3165-1.48096 2.96212-1.97471 3.94953-.32911 1.31641-.16455 3.12667-.32911 4.27853-.3291 1.31651-.9874 3.45578 0 4.11408.82286.32911 1.81017 0 3.12668.32911.82276.16455 1.81017 1.48106 2.13926 2.13926.32911.82287-.16454 3.12669 2.46847 3.62034.98732.16465 1.81017 1.15196 1.81017 1.97482-.3291 2.13926-.98741 3.94943.82277 6.0887 1.15195 1.48107 2.63301 1.15196 5.10139 1.15196 2.46846-.16456 2.13937-3.12668 2.63302-4.93684.6582-1.81017 2.46847-4.77229 4.60773-6.0888 1.15196-.65821-1.15195-3.62033 4.7723-4.114 5.92415-.49374 7.89896-.3291 8.88628 1.31652 2.13926 4.60764-.16456 4.77229-1.48107 6.91156-.65821 1.31651-1.97472 1.64561-1.97472 3.78488.16456 3.29123 3.94944 2.63302 3.94944 4.11408 0 .82277-1.31641.98732-1.48097 2.30383 0 1.31651 1.97472 1.48106 1.97472 3.12667 0 .82276-3.12668 2.79758-1.15196 4.11399.98741.82285 1.97471 1.48106 2.30382 5.26604.3292 1.64562-2.30382 1.48097-2.13926 3.29123.16454 2.30382-.16456 2.79748-1.64562 3.62034-2.13927 1.15185-3.29123 2.96212-2.13927 4.11397 1.15196.82286 2.79757.32911 3.62033 1.48107.82286.9874-.6582 4.77229.65821 5.92425.82285.82276 3.94954-.49375 2.79757 1.81017-1.64561 3.45577 2.46847 3.94943-1.64561 5.92415-2.46837 1.15196-3.62034 1.3165-4.93684 1.97481-1.97472.82276-4.44319 1.81016-4.77229 3.12668-.32911 1.48107.3291 3.62033-1.64561 3.94943-1.81017.16456-1.81017 2.63302-1.31652 3.45578.49376.98741 1.97482 1.97472 1.97482 3.12668 0 1.31651-.49375 3.12668-.16456 5.10139.16456 1.48107 1.15187 2.63303 2.30382 3.29123 1.15196.49366-.82285 1.97472-.16454 2.79758.6582.82276 2.46836 1.64561 5.59504 1.64561 2.63302 0 6.08881-.49366 8.06352-.49366 2.13927 0 1.31651 1.31642 2.30392 2.13928 1.97472 1.48106 4.77219 0 5.92415 1.15195 1.97471 1.81018 3.29123.98731 3.78489 2.79748.32919.98741 1.31651 1.31652 1.81016 2.46847.3292 1.15187-.9873 2.46837.16465 3.78488.98731.98741.32911 2.30382-.16465 3.29123-.65821.9874-1.81016 2.30383-2.13928 3.94944-.32909 1.48106 0 2.63302-1.48106 3.94953-.9873.98731-1.64561 2.30382-3.45577 1.81017-1.81017-.32911-3.62033-.82286-6.08871-1.15197-2.96213-.6582-2.96213 1.15197-3.78497 2.13937-.98732 1.15186-4.7723 1.31642-4.93685 3.45578-.16455 1.48096.49375 1.48096 4.27863.98731 1.31652-.32911 1.31652 2.46848.49366 3.45578-.65821 1.48106-1.81016 3.78499-4.77229 5.1014-1.81016.6583-4.27854-2.63293-5.10139-2.46838-1.81017.32911-3.29123-1.3165-4.60773 0-1.31643 1.15197-2.30383 1.15197-3.4558 1.81017-.9873.82276.82286 3.62033-.49365 3.62033-1.3165 0-2.96212-.16456-3.45578 1.15196-.6583 1.81016.65821 2.79757 1.97472 3.29123 1.15196.49366 2.96212.98731 2.96212 1.97472s-2.79756 3.12667-.3291 4.11408c3.12668.98731 1.48106 1.97471 3.94944 2.79747 2.63302.82286 7.89896 1.64562 14.81052 4.11409 4.77229 1.64561 8.06352 2.96213 8.88628 4.60774.6583 1.31641-.3291 1.48106-.16455 2.46837.3291.98741 1.81016 2.30392 4.77228 3.45578 1.31652.65831 2.79759 1.64561 3.12669 3.12667.32911 1.31652-2.46838 1.15196-1.81017 5.10141.16455 2.13926-1.97472 2.13926-1.64561 4.60773.16455 2.46847-.32911 2.13927-1.64562 4.44318-1.48106 2.63294-3.62033 2.96213-2.79757 4.7723.49375.82276 2.30392.82276 4.27863.82276 1.15196 0 2.13928.6583 6.08881.82285 5.59504.16456 6.25325-1.64561 10.69644-1.81026 1.48107 0 4.11408.6583 4.77229 1.64571.65821.82276.32911 1.81017.16455 3.12658 0 1.64561-1.48106 4.93684-2.96212 5.75969-1.31641.82276-2.96212.16456-3.78489 1.48106-.6582 1.31651.98741 2.13928 1.48107 2.79758.3291.65821 1.15195 2.96203-.16455 3.94943-1.64563 1.15197-2.30393 2.96213-3.12669 3.94944-.82285 1.15196-4.11408 2.79757-3.29122 4.44319.6582 1.48107 1.31651 2.63302 1.48106 4.11408.49366 2.96203-.9874 4.44309-1.15196 5.59505-.16455 1.31651 1.31651 1.15196.16456 2.79757-1.48107 2.30382-2.79758 2.79749-1.97472 4.27855.6582 1.64561-2.46847.9874-3.12668 1.15196-.82276.16454-1.48106 1.15195-1.81016 2.63292-.3291 1.31651.3291 3.45587-2.30383 3.45587-2.63302 0-6.4179.16456-7.40531.98731-.82276.82286.82286 2.30392-.3291 2.96214-1.31651.82284-1.97472 0-2.96212 0-1.15196 0-2.46838 1.31649-2.46838 1.31649s-.98741 1.31652-1.3165 2.13928c-.32911.82285-1.81018 1.31651-1.97473 2.13927-.16455.9874.82276 1.48106-.16455 2.79757-.49376.98741-1.64561 1.48106-2.79758 2.13927-1.15195.6583-1.64561-.49366-2.46846 1.15196-.3291 1.3165 0 1.81016-.65821 2.63302-.98741 1.15187-2.96212 1.48106-4.11408 1.97471-4.60764 1.81018-9.87369 2.63293-10.861 2.63293-.9874 0-7.0762-.16454-7.0762-2.30382-.3291-3.45578-3.29114-3.78488-3.62034-4.93684-1.15186-2.63293-4.44308-3.78488-4.44308-5.59505-.16465-2.46847-9.05094-1.64561-9.38004 0-.16455 1.31641 0 9.54449 0 11.35474-.16455 3.29123 0 7.07612.65821 23.0386.3291 10.861-.16455 13.00037 1.15196 23.86136.82286 6.4179 2.13927 9.54458 3.12668 11.1902l2.46837-.82286c-.3291.16464 3.62043-.6582 1.81017-2.30383 2.46847-.16454 2.63302-2.30382-1.31641-2.46836 2.79747-.65831 2.63291-2.30393.9873-2.46847 2.30392-.65821 3.29123-1.48107 2.30392-2.79758 1.97472.32921 1.31651-1.48106.82275-2.30382 1.48107.49366 2.46847-.16455 1.97473-1.15196 2.46846 1.48107 4.27863-.16454 1.48106-1.3165 1.97472-.16456 1.3165-1.15187-1.64562-1.48098 1.15196.16455 3.29124-.6583 2.63302-1.64561 1.48106 1.15186 3.45579-.6583.98732-2.79757 1.48106-.49365 2.30391-2.96212 2.30391-3.45578.16456 1.64561-.49366 4.60764 1.31652 4.11399-.98741 1.15196-.82286 2.13936 2.46837 2.13936-2.96213.3291-3.78489 2.63292-.16455 2.96203-1.31652 1.15195 2.46847.82286 4.11408 1.48106-2.46847.16456-2.79758.98741-1.81026 1.31652-2.46838.98741.3292 1.81016 4.11408 2.46847-3.62034.16455-4.44319 2.46837-2.79758 3.45577.82286.49366 2.13937.32911 3.29123 0 .98741-.32919 1.48106-.82286 2.63302-1.15195.98741-.32911 1.64562-1.31652-1.48106-2.30382 1.48106.32909 3.94944.16455 3.12668-.49376 3.62033-.49365 3.45578-2.46837-1.64562-3.94943 1.31652.49366 7.07612-.49375 4.27864-1.81017 1.31641-.32911.16455-2.63302-1.64561-2.46847 1.15186-.49365 1.48096-2.46837-.6583-3.12667 2.13926 0 4.11408-.32911 2.30391-1.48106 1.31641 0 2.30382-.49367 1.64561-1.31642 2.96203.49366 2.30382-1.31651.98732-1.81016.6583-.49376 2.79756-.98741.49365-2.63304 1.81026.16457 3.78498 0 3.45588-.82284 2.13926-.16455 3.62032-2.46838-.16465-2.13928.49375-.6582.98741-1.48106-.32911-2.13926 2.79759 0 3.94954-3.62034 2.79759-4.60774 1.64561.16455 1.31649-4.27863 1.15195-5.4305.98731 2.46837 1.31641 3.94943 2.46837 3.94943-1.3165.82286.32911 2.63303 1.97472 2.96213-1.48106.82276 1.15196 2.63292 2.46847 2.30382-2.30392 1.15196-2.46847 3.78498 2.96212 5.26604-2.30391-.16464-.98741 2.13927 0 2.63293-.82285-.49366-3.78498-.49366-2.96212.82286-1.15196.3291-1.81017 2.46836 1.64561 1.48106-.49375.82276 1.48107 1.48097 3.94943 1.97471-1.48106 1.48106-.82275 2.13927 1.15196 2.46838-.82284.49365-1.81017 1.15196-.3291 2.13936-1.31651.98731-2.96213 2.96203 2.96203 3.12659-2.63293 1.15196-.3291 1.81026 1.15196 2.63302-4.93685-.16456-3.45578 3.78488.16456 3.94943-1.97473.6583-.82276 2.46847 1.48106 3.29123-1.31652 1.15195 3.29122 1.64561 1.97471-.65821 2.79757-.3291 4.11408-2.13927 2.13937-2.63302 3.62032-.98731 1.31641-5.26595.16455-5.10139 1.64561-.49367 3.78488-1.64562 2.13927-2.96204 2.46847.65822 5.26595-1.64561-1.15196-2.13936 5.1014-.65821 3.78498-2.79747 1.48106-3.62033.65831-.3291 6.74701.49366 4.27864-1.97472 1.64562-.49365-.16455-1.64561-2.13927-1.48106 1.48097-.49365 3.62033-1.97472 1.64561-2.96212.82276.16455 1.64561-.16455.98731-2.13927.82286.82276 4.60774.82276 3.45579-.98741 1.48106-.49366.16455-1.64562-.49366-2.30382 2.13927-.82286.82285-3.78488 0-4.44319 11.19019-.65821.9874-4.27863 0-4.60774 2.63302 0 5.26594-.82276 3.94943-1.97472 5.59514 1.15196 2.46847-3.62033.82286-4.27854.6582-.16465 2.63292-1.31651 1.48106-2.63301 2.63293 1.15195 4.4431.82275 1.81016-1.97472 1.15196-.32921.49366-1.81017-.49365-1.97482 2.46837.3292 2.46837-5.1014 2.46837-5.1014s1.64562 4.93686 4.11409 5.26605c-2.30392.82276-1.81026 4.44309-.16455 4.77219-.49376 1.64571 2.30382 1.48106 3.78488 1.64571-4.27864.16455-3.45578 2.63293.16455 3.12658-1.81016 1.15196 0 2.46848 2.46837 1.97483-2.30382.82275-2.30382 2.46836.65831 4.11397-1.15196.65821-2.13937 1.97473-.98741 3.12668-1.81017.16455 0 2.46837 3.45577 3.12668-4.44308.16455-5.43049 1.64561 0 3.45577-.82275.32911-.49365 1.64563 1.48107 2.30383-2.96213 1.31651-2.79748 3.78498 2.46847 3.94953-1.97471.65821-.16455 1.31651 1.48106 2.46838-9.38003.6583-4.27864 4.60773-.6583 3.94952-3.45578 1.48106 1.81017 1.15186 3.78488 2.13927-3.29112.32911-7.24066.82277-5.59504 1.64561-1.81018.49367-1.97473 2.96213 5.59504 2.79758-1.31641.82276 1.15196 3.29123 2.30392 3.94943-8.72173 1.15197-4.60774 2.46847-.16455 3.45579-1.31651.3291-2.46847 2.63302 2.30382 2.13936-2.79748.82277-5.43049 2.13927-3.12667 3.62034 2.30391 1.31651 1.97471 1.64561 29.12739 3.94943 21.39299 2.13927 25.01332 2.63302 29.95016 3.29122 5.75969.82286 1.48106-2.79756-.3291-4.27862 8.72172 1.3165 4.27863-2.79748 3.12667-3.78489 1.15196 0 3.78489-.65821 1.81017-1.97471 4.60774.6582 3.12667-2.63303 2.30382-3.45579 6.0888-1.48106 2.96213-3.12667.82285-4.27863 1.15197-.32911 2.13928-.82276 1.31652-1.97472 3.94943 1.48107 2.79747-.49366 1.31641-1.48106 1.64571.16455 3.94953-2.46838 1.48106-3.62034 2.63302-.65821 1.81017-1.64561 1.15196-2.13927 6.58246-.16455-.98731-3.29122.82286-2.46846 2.96202-.82276 5.10139-4.11399 2.63293-4.93685 2.30391-.32909 3.94952-2.30382 1.64561-3.45577 1.31652-.65821 1.48106-2.79757.82285-3.78489 4.27855.65821 2.96203-2.96213 1.81017-3.29123 3.12668.49366 3.45578-6.74701 3.45578-6.74701s.3291 4.77229 3.29123 5.1014c-1.81017.98731 1.64561 3.12667 3.12667 3.62033-2.79757 0-3.12667 1.81016-1.81016 2.46838-2.46847.16464.16455 2.96212 2.13926 3.62042-4.11398.82276-.82285 2.46837.32911 3.29123-1.97472.32911-1.81017 1.81017.3291 2.30382-2.13927.98741-.3291 3.29123.65831 3.45578 1.15187.49375 2.30382.16455 3.45578-.82276 1.64562-1.64561-.49365-3.12667-1.64561-3.45578 4.11399-.6583 3.78488-3.78498 2.46837-4.44318 3.12668-.16456 2.30392-3.62034.98741-4.44319 2.46847 0 2.63301-2.96213 2.79757-4.77229.6582 2.30391.49365 4.44318 1.97472 5.1014-1.81017 2.63302.49365 4.60773 1.97471 4.44318-1.15196.65831.16455 2.63302 1.48106 3.12668-3.78488.9874.98741 3.94943 1.97472 3.94943-2.13927 1.97481 1.48107 3.78498 1.48107 3.78498s-1.97473 2.13926-1.48107 4.11399c.49375 2.30392 3.78499 1.64561 4.77229.9874 1.97472-1.64561-.3291-3.94952-1.15195-4.44319 3.45587-.16455 2.63302-3.94943.98741-4.44318 3.29122 0 7.56985-1.15186 2.79756-2.46837-.6583.16455 3.78488-1.64561.82276-2.30382 4.11408.16455 1.31651-3.78498 1.31651-3.78498s4.44319-.49367 2.13927-2.30382c2.30392.49366 2.79758-1.81017 2.79758-1.81017s-.49366 2.79748 3.12667 3.94944c-2.30383 1.15195.65821 1.15195 1.15197 1.64561-3.78499 1.15196-.82286 2.63302.9873 3.12668-2.13927.49365-1.97471 2.13927-.16455 2.96212-1.81016.3291.16455 1.81017 1.81016 2.13927-2.63291 1.97472-1.48106 4.27863.65831 4.60774-2.63302 3.62033 1.48106 3.12667 2.46837 2.46837.98741-.49365 1.48106-1.48096 1.15196-2.13926-.32911-.65822-.98741-.65822-1.81017-.98741 3.62034-.98731 1.81017-3.12659.65821-3.78489 4.7723-.49365 3.45578-3.45578 2.46847-4.11399 1.31642-.16455 2.63292-.6583 1.81016-1.64561.98732-.16455.65822-1.48106 1.15187-2.96212.16456 2.13926.49376 3.78488 1.64562 4.11399-.82276.82285.3292 1.48106.82285 1.81026-3.12667-.65831-.65822 1.97471.32911 2.13926-1.48107 1.15196-.32911 1.64562.82285 1.64562-.98741.9873-.3292 1.48106.82276 1.81017-1.31651.98731.3291 3.12667 2.63301 2.30382 3.45579-1.15186 0-3.45579 0-3.45579 1.97473 0 3.45579-.6582 2.46838-1.64561 3.62033 1.15196 5.75969-1.97472 2.79757-3.45578 1.15197-.3291 2.46838-2.96212-.49366-3.78488 3.45578.6582 5.75961-.49365 3.62034-3.12669 2.13927.32912 1.97472-1.64561 2.13927-2.63301.49366 2.30392 1.31651 2.30392 2.13927 2.46847-1.31641 1.48106-.16455 2.13927.6583 2.63293-.3291.82285.49366 1.97481 1.97472 1.81026-.82285.65821.16455 1.48097.98741 1.48097-3.94954.32919-2.79758 2.63301-.98741 2.46846-.32911 1.48106 0 1.97472 2.30382 1.64562-1.48106 1.81016 1.15195 2.13926 2.13936 2.13926-3.45577 0-2.96212 3.78499-.6583 3.12669-.16455 2.13926 3.29123.6583 4.44319 1.15195-2.46837 2.30382-1.81017 4.11399 3.29123 3.12667-2.46847 3.45579 1.97471 2.46838 2.30382 1.31652 3.12667 2.13927 4.11408-.98741 2.13936-1.97482 1.31642-.16455.98731-1.48106-1.15195-1.97471 2.79756 0 2.13926-.82276 1.64561-1.64561 2.13928.6583 2.96212-.49366 2.13928-1.97472 2.3039.49365 2.3039-2.13928 2.3039-2.13928s.32911 1.64561 1.97472 1.31641c-.82285 1.81018.65821 2.30393 2.79758 1.81018-.82285 1.81026.16455 2.30391 1.48106 2.46847 0 .82276.16455 1.97471 1.15186 2.46847l-.3291.6582c-1.15196 1.97471-1.81017 3.62033-1.81017 4.60774 0 1.97472 1.15196 3.62033-.98741 5.10139l-.6582.49366c-19.91191-1.31651-52.8242 1.64562-66.31822 3.12668-14.81053 1.48106-21.55753 2.13926-21.55753 2.13926-30.11481 4.27864-21.22844 4.93685 19.74737 10.03824 12.34206 1.48106 13.49401 2.30392 16.62068 2.46847 3.12668.16455 4.77221 1.15196 15.46874 2.46837 5.1014.6583 13.65857 2.79757 15.63329 2.96212M106.16575 335.06007h.16454l.32911-.16455h.32911l.16455-.16455h.3291l.16455-.16465.16465-.16455h.16454l.16457-.16456h.3291v-.16455h.16455v-.16455h.16455l.16456-.16455.16454-.16455c.82286-.82286 1.81017-1.15196 1.64562-2.13927-.16455-.82285 0-1.97482 0-2.46848 0-1.64561-1.15186-1.15195-1.97472-.6582-.82277.3291-1.15196 1.15186-1.81016 1.81016-.82276.49367-1.81017 1.31652-3.12669 1.81017-1.48106.49366-2.30382.98741-1.81016 1.81017.49366.65821.16455 1.48106 1.31651 1.81017 1.15196.3291 2.13928-.32911 2.79758-.49366zm26.00062 54.1407v.32912l.16455.16455v3.29122l.16465.16456v.16455l.16455.16455h.16455c.98731.16455.98731.82286 2.13927.9874.65821 0 .3291-.9874.98741-1.3165.82276-.49366 1.15187 1.15196 2.30382-1.48106.49366-1.15187 1.15196-1.15187 1.48106-1.81017.49366-.82276.32911-2.13928 0-2.96212-.16454-.82277-.49365-2.30383-1.15195-2.79748-2.46837-1.48107-4.27854-.65831-4.44319.6582-.16455.82286-.98731.82286-1.15187 1.64562-.16455 1.3165-.98741 1.48107-.82285 2.79756zm26.16527-31.26666v.32911h-.16455v3.45578l-.16455.6582v8.06352l-.16455.82285v3.45579l-.16456.3291v.82286c-.16455 1.48106.32911 2.96202 1.15187 2.96202.82285 0 1.48106-.9873 1.48106-.9873s.6583-.82286.6583.3291c.16455 1.15196-.16455.98741.16455 1.31651.65821.49366 1.48106.49366 2.30382-1.15196.6583-1.81017-.16455-3.94943 1.31652-3.78488 3.45578.49365 1.97471-2.79757 2.63302-4.27863.49365-1.64563.65821-6.91157.49365-7.56977-.16455-.49376-2.13926.3291-2.13926-.6583-.16457-1.81017.9873-4.114-.98741-4.114-1.48107 0-.82277 1.31642-1.64561 1.48107-.82277 0-.82277.16454-1.64563-.16465-.3291-.98731-.82275-.98731-1.48106-1.31642-.6582-.16455-1.3165-.3291-1.64561 0zm-30.27926-12.34214v.9874l.16455.16455v.32911l.16456.16455v.3291l.16455.16455.16455.16465v.16455h.16455v.16455h.16455l.16456.16455h.16465l.16455.16456h.3291c1.15196.3291 1.48106 0 2.46837.49365 1.31651.65831 1.64562.82285 3.45588.98741 1.81017.16455 2.30382-.16456 2.30382-.82286 0-.82276.49366-2.13926.82276-2.46837.3292-.6583.65831-2.30382-.16455-2.63302-.82277-.16455-2.13927-.16455-3.45579-.82275-1.15195-.65831-1.3165-1.48107-2.96212-1.48107-1.48106 0-1.48106.98731-2.46837 1.81016-.82286.82286-1.64562.32911-1.81017 1.97473zm30.44381-1.97473v.32911h-.16455v.3291h.16455v.32919h.16456v.16457h.3292v.16455h.16454v.16454h.32911v.16456h.16455v.16455h.16455v.16456h.16455v.16454c.49376.49376-1.15195.82286-.3291 2.13937.82286 1.31641 2.13927.98731 3.94944 1.31641 2.13937.16465.49374.98741 1.81026 2.46847.82276.98741 1.97472 1.15196 3.94943 1.64561 1.81017.49366.98732 1.97472 3.29123 1.81017 1.48106-.16455 5.26594-.6582 6.0888-1.97472.82277-1.31651 0-1.97471-1.31651-3.29123-.49365-.3291.65822-1.97471-.3291-3.62032-.98741-1.81017-4.11408-2.46847-4.93684-3.12669-.98741-.82284-2.13937-2.46847-4.27864-3.12667-1.64561-.49375-.16455-1.15196-2.96213-1.31651-1.3165 0-3.45578 1.15195-5.43049 1.48106-.98741.16456 0 1.97471-.98741 3.45578zm-1.15186-21.88664h-.16455v.82276h.16455v.32911l.16455.16455v.16465l.16455.16454.16456.16456v.16455l.16455.16456v.16454l.16455.16455.16455.16456.16455.16455v.16465l.16456.3291.16455.16455.16465.32911.16454.16454.16456.32911.16455.3291.16455.16465.16455.32911.16455.49365.16456.32911c.49375.9874 1.97471.32909 4.27863 1.48107 1.81017.82284 2.79758.49365 4.27864 1.15195 1.64552.65821 1.81017 1.81017 2.79747 2.46837.98741.82286 1.31652.3292 2.30392.82286.82276.3291 1.15186 1.48106 2.46837 2.30382 1.15196.82285.82286 1.48106 2.30383 1.81016.98741.16456.82285-.6582 1.64571-.3291 1.15186.3291 1.81015.3291 2.46837-.16455.65821-.65821 0-1.48107 0-2.63302 0-.65821 1.15196-.16455 1.15196-.98731.3291-1.15196-1.15196-2.13927-1.48106-2.79757-.32912-.65822 0-1.31652-.98741-2.96213-.82277-1.81017-.82277-.65821-1.97472-2.46837-.82285-1.48106-.49366-2.63303-1.97472-4.44319-2.46847-2.30382-4.77229-2.63292-9.38002-3.62033-3.94945-.82276-8.22808-1.97472-9.54459-.82276-1.48106 1.15186-.3291 2.63293-1.15186 5.26594zm20.73469-13.65866h.16455l.16454-.16455h.16456l.16464-.16456.16455-.16455h.16455v-.3291h.16456v-.32911h.16455v-.9874l-.16455-.16455v-.16455l-.16456-.16456v-.16455h-.16455v-.16454h-.16455l-.16464-.16465h-.16456c-.6582-.16456-2.46837-.65821-3.78488-.65821-1.15196 0-1.64561-.98741-4.60774-1.15196-2.96212-.16455-7.07611-.49365-9.70913-.16455-1.48106 0-1.48106 1.48106-1.15187 1.81016 1.97472 1.81017.16456 2.79757-.32919 3.45578-.65821.65831-.32911 1.15196.49375 1.97481.98731.82276 2.30382.82276 3.12667 1.15187.98731.32919 1.64561.9874 2.96213 1.15195 1.31641.16457 4.60764.98741 5.43049 1.15196.98732 0 1.81017.16456 2.13928-.49374.49365-.82277 1.64561-1.48098 2.79757-1.97472 1.15196-.32911.98731-2.46838 2.30383-3.12668zm-66.64732-39.9884v.32911l.16454.16456v.16454h.16455l.16456.16465h.3291l.16455.16455h.82285l.16456.16456h.16455c1.64562 0 3.29123.32909 3.78488-.49376.49376-.49365 1.15196-.82276 1.81017-.82276.6583 0 2.46847.16455 2.13936-1.31651-.16454-1.48106-2.46847-1.64561-4.93684-1.48106-1.15195.16455-3.29122-1.31651-4.77229-.3291-1.64561.82285.16455 1.81016-.16454 3.29122zm46.73539 11.68386v.82285h.16455v.16455l.16455.16456.16456.16454.16455.16456h.16465v.16455h.3291v.16455h.16455c.98741.16455 1.97471-.6582 2.63292-1.15186.49375-.49375 1.15196-.98741 1.97481-1.64562.82276-.6583 0-1.64561-.82285-1.64561-.65821 0-2.63292.98731-2.63292.98731s-1.64561.6583-2.46847 1.64562zm10.03824-6.74701.16455.16455h2.63302c1.31651 0 2.13926.32911 4.44319-.3291 1.64561-.32911 1.64561-.82285 1.97471-1.81018.16455-.98739-.98741-1.3165-2.13927-1.81015-1.31651-.49376-3.29122 0-4.77228.32909-1.48106.16456-3.29123 1.97473-3.29123 1.97473s.16455 1.31651.98731 1.48106zm-31.92488-13.00036v-.16456l.16455-.32909v-.32911l-.16455-.16456v-.6583l-.16454-.16455v-.16454h-.16456v-.16456h-.16455v-.16455h-.16465v-.16456h-.16454v-.16455h-.32911l-.16456-.16454h-.16455c-1.81017-.65831-4.27864-.65831-5.43049-.49376-1.15197.16454-4.44319.6583-5.59515 1.15196-1.15196.3291.98741 1.97471-2.46838 1.31651-.32919-.16456-1.31651.6582-.16454 1.64561 1.31641.98732 2.30382.65821 2.79747.65821.49375 0 1.81017 0 2.46847.16455.65821.16456.65821.49376 2.30382.49376 1.64561.16454 2.13927-.49376 4.11408-.49376 1.97472-.16455 3.29124-.82276 3.45578-1.64561zm19.91192 3.12667v-.16455 1.81017l-.16455.16455v2.96212l-.16455.32911v.6583l.16455.32911v1.48106h.16455c.49365 1.48107 1.48106 1.31642 1.81017.6582.65821-.98731.82276-1.15195 1.81016-1.64561.98741-.32911 0-3.12668.49366-4.27854.6583-.9874 1.15195-6.25335.6583-9.21547-.3291-1.31652-.3291-2.30383-.98741-3.45578-.9873-1.81017-1.97471-2.79758-2.79747-1.97473-.82285.98732-.16465 1.15187-.82285 3.45579-.32911 1.15185-.16456 10.20279-.16456 8.88627zm17.77265-23.03859v.49366h.16455v.16454h.16456v.16465h.3291v.16455h.49366l.16464.16455h.65821-.16455c-.6583-.16455 1.81016.82277 2.46838.32912 1.31651-1.48107 2.3039-1.31652 2.96212-2.96213.3291-.82276.82284-1.64562 1.31651-2.30382.49366-.65831-.3291-1.64562-.98741-1.81017-.65821-.16456-1.15187.16455-2.46838.82276-1.3165.6583-2.30391 1.64561-3.12667 2.30391-.98741.65821-1.81017 1.31641-1.97472 2.46838zm-.49375-10.03824v.65821h.16465v.16455l.16455.16465.16455.16455h.16455l.16456.16455h1.81016l.16455-.16455h.16455c1.48106-.3292 2.46847-1.81017 3.45579-2.63302.9874-.82276 1.31651-1.64562 1.15196-2.96213-.3291-1.31651-3.78489.3292-3.12669-.16455.65822-.3291-2.13926 1.81016-2.63292 2.13927-.9874.65831-1.81026 1.64561-1.81026 2.46847zm-2.63293-9.21548h.49367v-.16455h.16454v-.16455h.16455v-.16455h.16456v-.16456l.16465-.16455.16455-.16454v-.16456h.16455v-.16455c.65821-.82286 1.15186-2.46847.98731-3.29123-.16456-.6583 1.15196-1.97481.49375-2.63302-.65831-.82286-2.63302 1.97472-3.12667 2.63302-.3292.82276-1.64561 2.79748-1.48107 3.62034.16455.6582.82276.9873 1.64561.9873zm-15.13962-.49365v2.30382l.16455.3292v.65821l.16455.16455v.49365l.16455.16465v.3291l.16456.49366v.3291l.16455.16455v1.31652c-.16455 1.81017-.16455 2.79757.6583 4.60773.3291.98741-.82285 7.56987.16455 8.22807 1.15186.49365 1.81016-1.3165 2.63292-2.30382.82286-.98741 1.97472-7.56986 2.30392-8.72181.82277-2.30382 1.48107-6.58247 1.81016-8.55718.16456-1.97472-.16455-5.92425-1.15195-9.38002-.65821-2.13928-1.64561-2.63294-2.46837-3.4558-.98741-.6582-1.64571-.49365-1.97482.16456-.16455.6583-.49365-.49365-.49365-.49365-1.31652-.65821-1.64561-.16456-1.81017.6582-.3291.49375-.49365 3.62043-.98741 4.7723-.9873 1.81016.98741 3.29122.49376 7.73441zm-18.2664-24.19056h.3292v-.16455h.16454v-.16456h.16456v-.3291l.16455-.16455v-.49365l.16456-.16456v-1.6457h.16455v-.32911c0-.82276.16455-2.30382-.65822-3.62033-.98739-1.15196-1.81015-.16455-2.30391-.16455l-.32911 2.96212c.32911.32911.82287 1.31651.82287 2.30382.16454.98741.49365 2.13927 1.31641 1.97472zm4.11408-9.54448h.82276l.16465-.16456h.16455l.16455-.16464h.3291v-.16455h.65821v-.16455c.82285 0 1.15196-.32911 1.81017-1.64563.3292-.9873.16465-2.46837-.32911-3.45577-.3291-.98731-1.48106-.16455-2.13927-.65821-.6582-.49375-1.3165-1.48106-1.97471-.9874-.49366.49365-1.15196 2.13926-1.15196 2.96212 0 .82276.82285 3.45578 1.48106 4.44319zm-1.31651-17.11444v.65829h-.16455v.32912l-.16455.16454v.16455l-.16456.16456v.3291l-.16454.16455v.3292l-.16456.16456v.49365c-.16455 1.48106 1.81017 3.29123 2.13927 3.78488.16455.49375 3.12667.82285 3.29123 0 .3291-1.31641-.16456-1.97471.16455-4.27853.3291-1.97482-1.48106-2.63304-2.13927-3.78499-.6583-.98731-1.31651-1.48096-1.81016-.82276-.65831.49365-.65831 1.31651-.82286 2.13928zm12.67125-8.22808v.32911l-.16455.16455v1.64571l-.16454.16455v.98731s.16454 2.13937-.49376 2.96212c-.49365.65821-.16455 1.15196.3292 1.81016.65821.49367.82276.32912 1.48097 0 .82285-.32909.49374.82286.82285 1.31652l1.97471-.49366c.16456-.49374.82286-2.46847.98741-3.78498.32911-1.81016.49366-3.45578.16456-6.747-.32911-3.45578-3.45579-1.48107-3.45579-1.48107s-1.48106.82286-1.48106 3.12668zm-30.1147 69.7741.16454.16455v.32911h.16457v.16454l.16454.16456v.16455h.16456v.16455l.16455.16455.16455.16455h.16455v.16465h.16455l.16465.16455h.16455l.16456.16456h.16455v.16455h.16455l.16455.16455h.16455l.16456.16455h.16454l.16456.16455.16455.16456.16465.16454c1.31641.98741-.82286 1.97482.98731 3.45588 1.48106.98731.49365 1.81017 5.26594 2.13927 2.79758 0 2.13936-.82286 4.60775-1.97472 2.13926-.98741-1.64563-2.46847-.98732-4.11408.16456-.49365-1.48107-2.46837-4.11408-2.79757-2.13928-.16455-2.13928-2.13927-3.12668-2.63292-.98731-.49376-1.97472-.32911-3.45578-.6583-1.48106-.16457-2.63302-.82276-3.29122.32919-.49367.82276.3291 1.81017.82285 3.29123zm46.7354 167.52343h.16455v.16456h.49365v.16464h.49376l.16454-.16464h.82276l.16456-.16456h.3292l.3291-.16455h1.31651c2.96203.6583 2.96203 0 5.26594-.16455 2.96212-.3291 2.96212-1.64561 3.94945-1.81016 1.3165 0 3.29122 0 5.43059-1.31652.82276-.65821.82276-1.48106.6582-2.13927 0-1.3165-.82285-1.15195-1.81017-1.15195-.9874 0-.16454-.65821.82276-.98731.82286-.16456 1.64562-.32911 2.30392-.98741.49366-.49365.49366-.98731-.6583-1.97471-1.31641-.65831-1.97471 0-12.34206 2.96212-10.36743 2.96212-9.38002 5.26594-8.55717 5.59505 1.48097.16455-.3292 1.48106.65821 2.13926z"/>
    <path fill="#99542c" d="m97.114527 427.37899-.32911.16456h-.49365l-.16465.16455h-1.15185l-.16456-.16455h-.82285l-.49366-.16456h-.3291l-.49376-.16454h-.49366l-.16454-.16455h-1.97473l-.16455.16455c-3.78497.82275-13.32946 1.31651-19.41826 2.13927-1.31651.32909-1.48106.32909-7.56986.82285-3.62034.32911-7.40522.65822-8.39263.16455v.16456c.32911 1.3165 1.15196 3.29123 2.30393 5.92415 1.31641 3.12668 3.78488 11.68395 4.27853 13.65866.49365 1.97472-.3291 4.60764.16455 6.25335.6583 1.81017 2.63302 3.29123 3.29123 4.7722.65831 1.48106 5.92425 12.01305 8.22807 15.63338 1.97472 2.79758 7.89897 13.98768 10.69654 19.91193l.16455.16454c.49366-.16454 1.15196-.49365 1.64562-.65821 1.15196-.49374.98731-.82285-.49366-1.15195 1.15186-.16455 2.46838-1.31651 1.31642-1.81017 1.3165-.6582 2.46846-2.13926 1.3165-2.46846.82286-.65821 1.31652-3.45579 1.31652-3.45579s.3291 1.64562 1.48106 2.79758c-1.15196 0 .16455.65821.6582 1.15196-.6582.3291.32911.65821.98741 1.31651-.98741.3291-.6583.82276.3291 1.15186-.65821.49366.49366.82285 1.48107.3291-.49365.82286-.98741.82286-.98741.82286s5.1014-.49365 7.734423-2.30382c2.63302-1.81026 1.64561-2.46847-.493663-3.45588 1.974723-.6582 6.911563-2.13926 5.265953-3.62033 1.3165-.98732-.49366-1.64562-2.13927-1.97472 5.92416-1.31651 6.25326-2.30382 5.59505-2.63302 3.12667-1.81017-.65822-2.63293-1.64561-3.29123 3.94943.82286 3.12667-.49365 2.63302-1.48096 3.29123 1.48096 3.45578-1.97482 2.13926-2.96213 1.31652-.16456 1.48106-1.97472-.49365-3.12668 3.29123.3291 5.26594-.3291 2.63292-2.13926 1.64561-.65831 1.81017-1.48107 1.15196-2.13937 1.81017-1.15186.65821-2.30382-.16455-2.63292 1.81017-.82286 1.64561-2.79759.6582-3.29124 1.48107-1.81025 2.13928-5.92425 2.13928-5.92425s0 3.29123 2.30391 4.77229c-.82285.82277-.3291 2.46838.98732 2.46838-1.31642 1.97482-.49365 2.63303 1.81026 2.96212-.82285 1.15197-1.64561 2.30392 1.48106 2.30392-2.63302 1.81017-1.64571 2.96203.82276 2.63293-2.63302.9874-.98741 2.63302 1.81017 2.13936-1.97472 1.48096-1.97472 3.12659.98741 2.63292-2.79758 1.48106-3.12668 3.45579 1.31641 3.29124-1.48097 0-2.96203 3.94953 2.63302 5.10139.49365-4.44318 2.13927-35.05155 2.46847-40.48205.16454-6.25335-.16465-10.36743-.16465-10.36743s-.49366-.32911-3.12658-.16456c-2.46847.32911-3.62043 1.15197-7.56986-.16455-3.94944-1.31652-4.60775-.49365-7.40522-.16454-2.46847 0-3.78498-.32911-6.58246.6582-2.96213 1.15195-6.0888-.32911-7.40531-1.48106-1.31651-.98732 0-3.29124 2.13927-3.29124 3.45578.16465-4.443093-.3291-7.076113.6583z"/>
    <path fill="#fff" d="M438.57941 513.44458h-.65822l-.32909-.16455h-.82286l-.32911-.16454h-.49365l-.32911-.16456h-.49374l-.49366-.16455-.49366-.16456h-.49374l-.65821-.16454-.49366-.16465h-.6583l-1.15186-.32911-1.15196-.16455-1.15196-.3291-1.15186-.16455-1.15196-.16456-.49365-.16455h-.6583l-.49367-.16454h-.49366l-.49374-.16465h-.49366c-10.69653-1.31642-12.34206-2.30382-15.46874-2.63293-3.12667-.16455-4.27862-.82285-16.62068-2.46847-40.97581-5.10139-49.86218-5.7596-19.74737-9.87368 0 0 6.747-.82276 21.55753-2.30382 13.32946-1.48106 46.40631-4.44319 66.31822-2.96213l-.49365.32911c-4.27864 3.62043-12.83582 14.15232-14.81053 16.29158-1.31651 1.81017-3.12667 3.45578-4.44319 5.7597-.32911.16455-.32911.49365-.6583.6582zm-201.9168 26.16528h.32911l.16456-.16455h.16455l.16454-.16455h.16457l.32919-.16456h.32911l.16455-.16454.3291-.16456h.32911l.49374-.16455.32911-.16465.49365-.16455h.32911l.49375-.16455.49366-.16455.49365-.16455.49375-.16456h.49366l.49365-.16455.65821-.16455h.49375l.65821-.16455.49365-.16465h.65831l.6582-.16455h1.15196l.65822-.16456c7.7344-.32909 6.58245.49376 13.98775 1.15197.82276.3291 2.63294.3291 4.44319.6582 1.81017.3292 5.43051.3292 8.06352 1.15196 2.46837.98741 6.08871 2.79757 8.22808 3.29123 2.13926.3291 3.62032.82286 5.43049 1.48106 1.81017.49365 2.63292.98741 4.27854 1.64562 1.64562.6582 5.92425 2.30382 9.87369 3.12667 3.94953.98741 6.58245 1.15196 9.54458 1.81017 2.96212.82276 8.88637 1.81017 11.35475 2.79757 3.45578 1.64562 8.72172 3.94944 11.02563 6.25326 2.30382 2.63302 3.45579 3.12667 5.26595 10.36744.98741 3.45577 0 4.60773-.82285 8.55717-.82276 3.94943-1.48097 5.10139-.98731 6.4179.32909 1.48107.16455 3.62033-.32911 4.93685-.65829 1.31651-1.48106 1.64561-1.97481 2.46837-.49366.82286-2.30382 2.13936-2.30382 2.13936s-.98741-.32909-1.31651-.9874c-.32911-.49366-.49366-1.15196-.98731-1.81016-.3292-.82276-1.15196-1.64563-.98741-2.46839.16455-.82285-.49366-1.3165.3291-2.79756.98741-1.15196 1.48106-2.46847 1.48106-2.46847s1.15196-2.46837 1.48107-4.11399c.3291-1.64561.9874-4.60773.82285-5.59514-.16465-.98732-.49375-3.62034-.49375-3.62034l-1.48106-1.97472s-1.64561-.6582-2.13927.65821c-.49366 1.81026-.3291 1.31651-1.48106 5.4306-.82276 2.96213-.49366 2.13927-1.97472 5.7596-1.48106 3.62032-2.30383 4.44318-2.79757 6.58245-.49366 2.13936 2.79757 4.27864 3.62033 7.89897.82286 3.94943 1.48106 5.26595 2.13936 6.0888.49366.98731.49366 1.97471 1.15187 2.13928.6583.16454 1.64561.32909.82285 2.63302-.6582 2.13926-2.79757 7.07611-3.12667 9.70902-.32911 2.46847-.16455 4.1141-.32911 4.27865 0 .3291-.49365.3291-.6583.82284-.16455.32911-.16455.49367-.16455 1.31643 0 1.15195-.3291 4.11408-.3291 4.11408s.3291 1.15195-.98731 1.15195c-1.15197-.16465-7.40532-.16465-8.22808-.16465-.82285-.16454-2.30392-.6582-1.97481-1.64561.16455-1.31641.3292-3.29122.98741-3.78488.82275-.3291 1.81016-.82276 1.81016-.82276s.82285-2.13936 1.15196-3.12668c.3291-1.15196.49365-2.63302.98731-3.45578.3292-.82285.6583-3.62043.6583-4.60773 0-.82286.16456-4.44319-2.13936-7.56987-1.97472-3.12668-1.15187-2.96213-2.96203-4.11398-1.81016-1.15197-4.44318-2.79758-6.747-2.96213-1.48107-.16455-3.62043.65821-4.93685 1.15196-1.15196.6582-3.62043 1.81017-5.7597 2.79747-2.46838 1.31652-4.77228 2.46847-5.7596 2.96213-.82286.49365-1.64562.16455-1.81017-.82276-.16465-.98741 0-1.97482-1.15195-1.97482-1.15197.32921-1.64562.32921-2.96213.82286-.9874.32911-2.46847 1.48106-3.12667 3.29124-.49366 1.81016-.82276 1.97471-1.48107 3.94943-.3291 1.15195-.82275 2.30391-2.13926 3.45577-.98741.82286-.82286.3292-3.12669 2.46847-1.81016 1.64561-1.81016 1.81017-2.96212 3.78489-.98731 2.13936-.82276 3.45578-1.15196 4.11408-.3291.65821-.16455 1.81017-.3291 2.30382 0 .65831-.16455 2.30392-.16455 2.30392s0 1.48096-.65821 1.48096c-2.79757 0-6.25336.16465-7.56986.16465-1.15187 0-1.64562-.49375-1.31652-1.31651.82286-1.97471 1.81018-2.79757 1.97482-3.29122.16455-.49375.6582-3.45579.16455-5.43059-.32919-.82277-2.30392-3.45579-2.63302-4.114-.32911-.49365-.32911-2.30382-1.15196-2.79757-.98731-.6582-2.46837-2.46837-2.79747-2.96212-.32911-.65821-2.79757-1.97472-3.78498-1.97472-1.15187 0-7.40522-1.3165-8.88628-2.13926-1.48106-.82287-6.0888-3.29124-6.91156-3.78489-.82285-.49376-3.62033-1.97472-4.44319-1.97472-.82276 0-1.81017-.3292-2.79757.82275-1.81017 1.64562-2.46838 1.64562-3.29123 2.46847-.98731.65821-.82276.82276-1.48106 1.64552-.49365.98741-1.81017 3.45589-2.13927 4.27864-1.81017 3.62033-3.45578 3.12668-3.45578 3.12668s-1.64561.82275-4.11399-3.12668c-2.46847-3.94944-3.45578-5.4305-3.45578-5.4305s-1.48106-1.15196-2.46847-.9874c-.9874.16455-3.78489.6583-4.44319.6583-.82276-.32921-1.97471.16455-2.79747-1.15196-.82285-1.31651-1.81017-3.12668-1.64561-5.92425.32909-2.63292-.98741-4.44309-1.15197-5.26595-.16455-.6582-1.15195-1.64561-1.81016-3.62033-.6583-1.81016-.49366-4.27863-1.81016-6.91156-1.48106-2.13936-2.13937-6.91156-2.13937-6.91156s0-1.15195.16465-3.12667c.3291-2.13937 0-3.78498.6582-6.41792.49366-2.46845 1.15196-4.27862 3.29123-5.92424 1.48106-.98731 2.63302-3.12667 4.60774-3.94943 1.64561-.65831 3.78488-2.30392 5.26595-2.30392 1.48106 0 1.97472-.98731 5.10139-.49366 2.96212.65821 5.26594 1.31652 7.24067.98741 1.81016-.3292 3.94953-.3292 5.59514-2.79757 1.81016-2.30392 3.29123-4.60774 4.11398-5.1014.65831-.49365 4.11408-2.79757 4.11408-2.79757zm-18.9246 28.14h.9874l.16456.16454h.49365l.16455.16455h.32921l.16455.16456h.3291l.16455.16465.16456.16455.32909.16455.16457.16455h.16454l.16465.16455v.16456h.16455l.16455.16455v.16455l.16455.16455.16456.16465v.16455l.16455.16455v.16456l.16454.16454v.16456l.16457.16455v.49365l.16455.16465v1.31641c4.11408-3.62032 3.78498-6.58245 3.78498-6.58245s.3291-4.44309-3.12669-8.06352c-3.62032-3.45578-4.11408-1.97472-3.78497.49375.3292 2.46838 1.15195 3.12668.16465 4.93685-.82286 1.97471-2.13937 4.11399-2.13937 4.11399zm-7.07611 6.74701v.16455h-.16455v.16464l-.16455.16455v.16456h-.16455v.16454h-.16456l-.16455.16455v.16457h-.16465l-.16454.16454h-.16456c-.49365.32911-1.48107 1.64562.16456 1.97472 1.81016.32921 2.30391.16456 3.62042 0 1.64561-.3291 2.79748-.49365 3.62033-.82277.98731-.16454 1.81016-1.81015 0-2.13926-2.30392-.6583-2.63302-1.97482-4.11408-1.81025-1.48106 0-1.64561.98739-1.97472 1.48106zm27.48145287-412.39118353h12.17754434l12.01298293 23.0385974h.16456141l-.16456141-23.0385974h8.72175473v34.06421187h-11.84842152l-12.50666716-23.20315881.32912282 23.20315881h-8.88631614v-34.06421187z"/>
    <path fill="none" stroke="#fff" stroke-miterlimit="10.43299961" stroke-width=".55343644" d="M238.14335287 162.10568647h12.17754434l12.01298293 23.0385974h.16456141l-.16456141-23.0385974h8.72175473v34.06421187h-11.84842152l-12.50666716-23.20315881.32912282 23.20315881h-8.88631614v-34.06421187z"/>
    <path fill="#fff" d="M288.99278 162.10584h11.68386l13.6586 34.06421h-10.36737l-2.63298-7.24071h-13.49404l-2.79754 7.24071h-9.54456l13.49403-34.06421zm5.92421 7.07614h-.16456l-4.60772 13.32947h8.88631l-4.11403-13.32947z"/>
    <path fill="none" stroke="#fff" stroke-miterlimit="10.43299961" stroke-width=".55300319" d="M288.9926 162.10584h11.68385l13.6586 34.06421h-10.36737l-2.63298-7.24071h-13.49404l-2.79754 7.24071h-9.54456l13.49404-34.06421zm5.92428 7.07614h-.16456l-4.60772 13.32947h8.88631l-4.11403-13.32947z"/>
    <path fill="#fff" d="M321.24686492 168.85270428h-8.72175473v-6.74701781h26.98807124v6.74701781h-8.72175473v27.31719406h-9.54456178v-27.31719406z"/>
    <path fill="none" stroke="#fff" stroke-miterlimit="10.43299961" stroke-width=".55343644" d="M321.24686492 168.85270428h-8.72175473v-6.74701781h26.98807124v6.74701781h-8.72175473v27.31719406h-9.54456178v-27.31719406z"/>
    <path fill="#fff" d="M344.61458514 196.16989834h9.54456178v-34.06421187h-9.54456178v34.06421187z"/>
    <path fill="none" stroke="#fff" stroke-miterlimit="10.43299961" stroke-width=".55343644" d="M344.61458514 196.16989834h9.54456178v-34.06421187h-9.54456178v34.06421187z"/>
    <path fill="#fff" d="M378.34999 161.44772h.9874l1.15187.16456h.98741l.98731.16455.98741.16465.82276.3291.9874.16455.82286.32911.82275.3291.82286.3292.65821.3291.82285.49366.65821.49365.65821.49375.49374.49366.65821.49365.49366.65831.49375.49365.49366.65822.49365.65829.3291.82277.49375.65829.32911.82277.3291.82285.16455.82276.3291.82286.16465.82276.16455.9874.16456.82276v1.97472l.16455.9874c0 10.8611-6.25335 17.6081-17.9372 17.6081s-17.93721-6.747-17.93721-17.6081c0-10.86109 6.08881-17.6081 17.93721-17.6081zm0 28.4692h.9874l.49366-.16465h.49365l.49367-.16456.32919-.16455.49365-.16454.32912-.16456.3291-.32911.49374-.16454.32911-.32911.32911-.3292.16455-.16455.3291-.3291.32911-.49365.16465-.32911.32909-.3292.16456-.49366.16455-.3291.3291-.49366.16455-.3292v-.49365l.16456-.49366.16465-.49365.16455-.49376v-.49365l.16454-.49366v-.9874l.16456-.49366v-1.15196c0-5.92425-2.30392-10.86109-8.06352-10.86109-5.92425 0-8.22807 4.93684-8.22807 10.86109 0 5.7597 2.30382 10.8611 8.22807 10.8611z"/>
    <path fill="none" stroke="#fff" stroke-miterlimit="10.43299961" stroke-width=".55347121" d="M378.35 161.44772h.98741l1.15186.16456h.98742l.9873.16455.98741.16465.82276.3291.98741.16455.82285.32911.82276.3291.82285.3292.65821.3291.82285.49366.65821.49365.65821.49375.49375.49366.65821.49365.49365.65831.49376.49365.49365.65822.49365.65829.32911.82277.49375.65829.3291.82277.3291.82285.16455.82276.32911.82286.16465.82276.16455.9874.16455.82276v1.97472l.16455.9874c0 10.8611-6.4179 17.6081-17.9372 17.6081-11.68385 0-17.9372-6.747-17.9372-17.6081 0-10.86109 6.0888-17.6081 17.9372-17.6081zm-.00014 28.63375h.49366l.49375-.16455h.49365l.49366-.16465.49367-.16456h.32919l.49365-.32909.32911-.16456.32911-.16455.49374-.3291.32911-.16455.3291-.32911.16455-.3292.32911-.3291.3291-.32911.16465-.49365.3291-.3292.16456-.3291.16455-.49366.3291-.49366.16455-.3292v-.49365l.16455-.49366.16465-.49365.16455-.49376v-.49365l.16455-.49366v-.9874l.16456-.49366v-1.15196c0-5.92425-2.30392-10.86109-8.06353-10.86109-5.92424 0-8.22806 4.93684-8.22806 10.86109 0 5.7597 2.30382 11.02565 8.22806 11.02565z"/>
    <path fill="#fff" d="M402.21107864 162.10568647h12.01298293l12.17754434 23.0385974h.16456141l-.32912282-23.0385974h8.72175473v34.06421187h-11.84842152l-12.50666716-23.20315881.32912282 23.20315881h-8.72175473v-34.06421187z"/>
    <path fill="none" stroke="#fff" stroke-miterlimit="10.43299961" stroke-width=".55343644" d="M402.21107864 162.10568647h12.01298293l12.17754434 23.0385974h.16456141l-.32912282-23.0385974h8.72175473v34.06421187h-11.84842152l-12.50666716-23.20315881.32912282 23.20315881h-8.72175473v-34.06421187z"/>
    <path fill="#fff" d="M452.89595 162.10584h11.68386l13.82315 34.06421H468.0356l-2.79755-7.24071h-13.32947l-2.79755 7.24071h-9.70912l13.49404-34.06421zm5.92421 7.07614h-.16456l-4.60772 13.32947h8.88631l-4.11403-13.32947z"/>
    <path fill="none" stroke="#fff" stroke-miterlimit="10.43299961" stroke-width=".55300319" d="M452.8956 162.10584h11.68386l13.82316 34.06421h-10.36737l-2.79754-7.24071h-13.32948l-2.79754 7.24071h-9.70913l13.49404-34.06421zm5.92429 7.07614h-.16457l-4.60772 13.32947h8.88632l-4.11403-13.32947z"/>
    <path fill="#fff" d="M482.68160813 162.10568647h9.38000037v27.31719406h14.8105269v6.74701781h-24.19052727v-34.06421187z"/>
    <path fill="none" stroke="#fff" stroke-miterlimit="10.43299961" stroke-width=".55343644" d="M482.68160813 162.10568647h9.38000037v27.31719406h14.8105269v6.74701781h-24.19052727v-34.06421187z"/>
    <path fill="#fff" d="M302.15808 216.7404h11.68385c11.1901 0 16.45614 3.62033 16.45614 11.19019 0 6.91156-5.43059 11.02554-14.48142 11.02554h-3.94943v11.8485h-9.70914V216.7404zm9.70914 15.79783h2.63292c3.45578 0 6.0888-1.15186 6.0888-4.77219 0-3.45588-2.63302-4.60774-6.0888-4.60774h-2.63292v9.37993z"/>
    <path fill="none" stroke="#fff" stroke-miterlimit="10.43299961" stroke-width=".55347121" d="M302.1578 216.7404h11.68385c11.19009 0 16.45614 3.62033 16.45614 11.19019 0 6.91156-5.4306 11.02554-14.48143 11.02554h-3.94943v11.8485h-9.70913V216.7404zm9.70899 15.79783h2.63292c3.45579 0 6.0888-1.15186 6.0888-4.77219 0-3.45588-2.63301-4.60774-6.0888-4.60774h-2.63292v9.37993z"/>
    <path fill="#fff" d="M342.47524 216.74022h12.01299l14.15227 34.06421h-10.86104l-2.63299-7.2407h-13.82316l-2.96211 7.2407h-9.87368l13.98772-34.06421zm5.92421 6.91158-4.77228 13.49404h9.21544l-4.44316-13.49404z"/>
    <path fill="none" stroke="#fff" stroke-miterlimit="10.43299961" stroke-width=".55300319" d="M342.47528 216.74022h12.01299l14.15228 34.06421H357.7795l-2.63298-7.2407h-13.82317l-2.9621 7.2407h-9.87369l13.98772-34.06421zm5.92357 6.91158-4.77229 13.49404h9.21545l-4.44316-13.49404z"/>
    <path fill="#fff" d="M372.75484 216.7404h17.44355c6.58245 0 11.8484 2.79757 11.8484 8.55717 0 4.60774-2.30382 7.56986-7.0761 8.72172 3.12667.82286 3.29122 3.29123 5.10139 7.40531l3.62033 9.38003h-10.20279l-1.97472-6.25334c-2.13927-5.75971-3.29122-7.24077-7.0761-7.24077h-1.97482v13.49411h-9.70914V216.7404zm9.70914 14.15222h2.63302c3.12668 0 7.07611-.16455 7.07611-3.94944 0-3.29122-3.45578-3.78488-7.07611-3.78488h-2.63302v7.73432z"/>
    <path fill="none" stroke="#fff" stroke-miterlimit="10.43299961" stroke-width=".55347121" d="M372.75479 216.7404h17.44355c6.58245 0 11.8484 2.79757 11.8484 8.55717 0 4.60774-2.30382 7.56986-7.0761 8.72172 3.12667.82286 3.29122 3.29123 5.10139 7.40531l3.62033 9.38003h-10.20279l-1.97472-6.25334c-2.13927-5.75971-3.29122-7.24077-7.07611-7.24077h-1.97481v13.49411h-9.70914V216.7404zm9.709 14.15222h2.63302c3.12668 0 7.07611-.16455 7.07611-3.94944 0-3.29122-3.45578-3.78488-7.07611-3.78488h-2.63302v7.73432z"/>
    <path fill="#fff" d="M408.62897363 216.74007459h9.70912319v13.98771985h.16456141l11.02561447-13.98771985h11.68386011l-13.49403562 15.79789536 14.64596549 18.26631651h-12.50666716l-11.35473729-15.46877254h-.16456141v15.46877254h-9.70912319v-34.06421187z"/>
    <path fill="none" stroke="#fff" stroke-miterlimit="10.43299961" stroke-width=".55343644" d="M408.62897363 216.74007459h9.70912319v13.98771985h.16456141l11.02561447-13.98771985h11.68386011l-13.49403562 15.79789536 14.64596549 18.26631651h-12.50666716l-11.35473729-15.46877254h-.16456141v15.46877254h-9.70912319v-34.06421187z"/>
    <path fill="#fff" d="m262.99245 297.04638.49365.16455.49365.3291.49376.16456.49365.16455.65822.16455.49374.16456.65821.32919h.65831l.49365.16455.65821.16456.82285.16455h.65821l.65831.16456h2.13926c3.29123 0 6.0888-.49367 6.0888-3.29124 0-6.4179-17.279-2.30382-17.279-14.64597 0-8.22807 8.55718-10.36734 15.96249-10.36734 3.45578 0 6.91156.32911 9.37994 1.15187l-.65821 7.0762c-2.46837-1.15196-5.26595-1.64561-8.06352-1.64561-2.46838 0-6.58246.3291-6.58246 3.29122 0 5.43051 17.279 1.81017 17.279 13.98768 0 8.88637-7.89897 11.19019-16.12704 11.19019-3.29123 0-7.56986-.49366-10.69654-1.48106l.82286-7.40522z"/>
    <path fill="none" stroke="#fff" stroke-miterlimit="10.43299961" stroke-width=".55347121" d="m262.99245 297.04638.49365.16455.49365.3291.49376.16456.49365.16455.65822.16455.49374.16456.65821.32919h.65831l.49365.16455.65821.16456.82285.16455h.65821l.65831.16456h2.13926c3.29123 0 6.0888-.49367 6.0888-3.29124 0-6.4179-17.279-2.30382-17.279-14.64597 0-8.22807 8.55718-10.36734 15.96249-10.36734 3.45578 0 6.91156.32911 9.37994 1.15187l-.65821 7.0762c-2.46837-1.15196-5.26595-1.64561-8.06352-1.64561-2.46838 0-6.58246.3291-6.58246 3.29122 0 5.43051 17.279 1.81017 17.279 13.98768 0 8.88637-7.89897 11.19019-16.12704 11.19019-3.29123 0-7.56986-.49366-10.69654-1.48106l.82286-7.40522z"/>
    <path fill="#fff" d="M294.91703932 271.37446271h25.67157996v6.41789499h-15.96245677v6.91157922h15.13964972v6.5824564h-15.13964972v7.56982486h16.456141v6.5824564h-26.16526419v-34.06421187z"/>
    <path fill="none" stroke="#fff" stroke-miterlimit="10.43299961" stroke-width=".55343644" d="M294.91703932 271.37446271h25.67157996v6.41789499h-15.96245677v6.91157922h15.13964972v6.5824564h-15.13964972v7.56982486h16.456141v6.5824564h-26.16526419v-34.06421187z"/>
    <path fill="#fff" d="M327.33595 271.37476h17.2789c6.4179 0 11.68385 2.79758 11.68385 8.55718 0 4.60773-2.30382 7.56986-6.91156 8.72183 3.12668.82275 3.29122 3.45577 5.1014 7.56976l3.62042 9.21547h-10.20288l-2.13927-6.25334c-1.81017-5.75961-3.12668-7.24067-6.74701-7.24067h-1.97472V305.439h-9.70913v-34.06424zm9.70913 14.15232h2.46838c3.12667 0 7.0762-.16455 7.0762-3.94953 0-3.12667-3.29122-3.78488-7.0762-3.78488h-2.46838v7.73441z"/>
    <path fill="none" stroke="#fff" stroke-miterlimit="10.43299961" stroke-width=".55347121" d="M327.33579 271.37476h17.2789c6.41791 0 11.68386 2.79758 11.68386 8.55718 0 4.60773-2.30382 7.56986-6.91157 8.72183 3.12668.82275 3.29123 3.45577 5.1014 7.56976l3.62043 9.21547h-10.20289l-2.13927-6.25334c-1.81017-5.75961-3.12667-7.24067-6.74701-7.24067h-1.97472V305.439h-9.70913v-34.06424zm9.709 14.15232h2.46838c3.12668 0 7.0762-.16455 7.0762-3.94953 0-3.12667-3.29122-3.78488-7.0762-3.78488h-2.46838v7.73441z"/>
    <path fill="#fff" d="M360.24791909 271.37446271h10.36736883l8.06350909 26.65894842h.16456141l8.06350909-26.65894842h9.8736846l-12.34210575 34.06421187h-12.01298293l-12.17754434-34.06421187z"/>
    <path fill="none" stroke="#fff" stroke-miterlimit="10.43299961" stroke-width=".55343644" d="M360.24791909 271.37446271h10.36736883l8.06350909 26.65894842h.16456141l8.06350909-26.65894842h9.8736846l-12.34210575 34.06421187h-12.01298293l-12.17754434-34.06421187z"/>
    <path fill="#fff" d="M401.88195582 305.43867458h9.54456178v-34.06421187h-9.54456178v34.06421187z"/>
    <path fill="none" stroke="#fff" stroke-miterlimit="10.43299961" stroke-width=".55343644" d="M401.88195582 305.43867458h9.54456178v-34.06421187h-9.54456178v34.06421187z"/>
    <path fill="#fff" d="m449.60505 304.61615-.49366.16455-.6582.16456h-.49376l-.49365.16465-.6583.16454h-.49366l-.65821.16455h-.6583l-.6582.16456h-.65821l-.3292.16455h-1.64562l-.32909.16455h-2.63294c-9.70912 0-20.89932-4.60774-20.89932-17.27889 0-12.01306 8.88627-17.77266 20.89932-17.77266 3.62034 0 7.24067.65821 10.69645 1.64561l-.65821 7.40522c-3.12668-1.64561-6.25335-2.46837-9.54458-2.46837-6.74701 0-11.35474 4.77228-11.35474 11.1902 0 6.58244 5.10139 10.53189 12.1775 10.53189 3.12667 0 6.4179-.82287 9.05092-1.64563l.49366 7.07612z"/>
    <path fill="none" stroke="#fff" stroke-miterlimit="10.43299961" stroke-width=".55347121" d="m449.60505 304.61615-.49366.16455-.6582.16456h-.49376l-.49365.16465-.6583.16454h-.49366l-.65821.16455h-.6583l-.6582.16456h-.65821l-.3292.16455h-1.64562l-.32909.16455h-2.63294c-9.70912 0-20.89932-4.60774-20.89932-17.27889 0-12.01306 8.88627-17.77266 20.89932-17.77266 3.62034 0 7.24067.65821 10.69645 1.64561l-.65821 7.40522c-3.12668-1.64561-6.25335-2.46837-9.54458-2.46837-6.74701 0-11.35474 4.77228-11.35474 11.1902 0 6.58244 5.10139 10.53189 12.1775 10.53189 3.12667 0 6.4179-.82287 9.05092-1.64563l.49366 7.07612z"/>
    <path fill="#fff" d="M454.2124842 271.37446271h25.67157996v6.41789499h-15.96245677v6.91157922h15.13964972v6.5824564h-15.13964972v7.56982486h16.62070241v6.5824564h-26.3298256v-34.06421187z"/>
    <path fill="none" stroke="#fff" stroke-miterlimit="10.43299961" stroke-width=".55343644" d="M454.2124842 271.37446271h25.67157996v6.41789499h-15.96245677v6.91157922h15.13964972v6.5824564h-15.13964972v7.56982486h16.62070241v6.5824564h-26.3298256v-34.06421187z"/>
  </g>
  </g>
</svg>