<svg xmlns="http://www.w3.org/2000/svg" viewBox="0 -50 640 10">
<g transform="scale(4)">
  <g fill="#6c9acb">
    <path d="M36.62293242 77.54719727c-1.54946663 0-2.84893326-.33333333-4.0155999-.86666665l.41666665-2.43279994c1.18226664.63333332 2.49893328 1.06613331 3.64839991 1.06613331.81666665 0 1.38279997-.34946666 1.38279997-1.0333333 0-.64946666-.33173333-.94893332-1.94893329-1.56559997-2.2994666-.8833333-3.29946658-1.63333329-3.29946658-3.53226658 0-2.2166666 1.73279996-3.39959991 3.93333323-3.39959991 1.4989333 0 2.46453328.28333333 3.46453325.76626665l-.43173332 2.3994666c-1.03386664-.59946665-2.11719995-.93279997-2.99999993-.93279997-.8661333 0-1.28279996.36613332-1.28279996.89946664 0 .58333332.31666665.86666665 1.74893329 1.41666663 2.5166666.91613331 3.4999999 1.78279996 3.4999999 3.61613324 0 2.49893328-1.83333328 3.59893325-4.11613322 3.59893325m11.17026638.06613333c-3.43173324 0-5.51506652-2.2994666-5.51506652-5.93173319 0-3.5655999 2.18333328-5.96559985 5.64786652-5.96559985 1.2177333 0 2.20053328.26706666 3.03279993.74999999l-.39946666 2.56613326c-.68279998-.53333332-1.4833333-.93279997-2.4822666-.93279997-1.7989333 0-2.94893326 1.3661333-2.94893326 3.5655999 0 2.23279995 1.2161333 3.56559992 3.01559992 3.56559992.93226664 0 1.76559996-.34946666 2.61559993-.88279998l.36613333 2.38279994c-.91559998.53333332-1.98173329.88279998-3.33226658.88279998m12.23599969-.2v-4.66506655h-3.9827999v4.66506655H53.197332V65.91599756h2.8490666v4.34893322h3.9827999v-4.34893322h2.86613326V77.4133306H60.0291985m10.49213307-9.48066642c-1.64839996 0-2.63119993 1.44946663-2.63119993 3.73226657 0 2.28333327.98279997 3.73226657 2.63119993 3.73226657 1.66666663 0 2.63279993-1.4489333 2.63279993-3.73226657 0-2.28279994-.9661333-3.73226657-2.63279993-3.73226657zm-.0156 9.69786642c-3.29946658 0-5.4661332-2.39999994-5.4661332-5.94893319 0-3.5655999 2.16666662-5.98186651 5.49839987-5.98186651 3.33333325 0 5.48226653 2.39959994 5.48226653 5.94906652 0 3.5483999-2.16559995 5.98173318-5.5145332 5.98173318m12.68226635-9.69786642c-1.64839996 0-2.63119993 1.44946663-2.63119993 3.73226657 0 2.28333327.98279997 3.73226657 2.63119993 3.73226657 1.66666663 0 2.63279993-1.4489333 2.63279993-3.73226657 0-2.28279994-.9661333-3.73226657-2.63279993-3.73226657zm-.0156 9.69786642c-3.29946658 0-5.4661332-2.39999994-5.4661332-5.94893319 0-3.5655999 2.16666662-5.98186651 5.49839987-5.98186651 3.33333325 0 5.48226653 2.39959994 5.48226653 5.94906652 0 3.5483999-2.16559995 5.98173318-5.5145332 5.98173318m7.66826648-.2172V65.91599756h2.84893326v9.03119977h3.53226658l.38439999 2.46613327H90.8406644m17.51399956-9.48066642c-1.64839996 0-2.63119994 1.44946663-2.63119994 3.73226657 0 2.28333327.98279998 3.73226657 2.63119994 3.73226657 1.66666662 0 2.63279993-1.4489333 2.63279993-3.73226657 0-2.28279994-.9661333-3.73226657-2.63279993-3.73226657zm-.0156 9.69786642c-3.29946659 0-5.4661332-2.39999994-5.4661332-5.94893319 0-3.5655999 2.16666661-5.98186651 5.49839986-5.98186651 3.33333325 0 5.48226653 2.39959994 5.48226653 5.94906652 0 3.5483999-2.16559994 5.98173318-5.5145332 5.98173318m10.50266641-9.3317331v2.34999994h2.99893326l.39946666 2.38279994h-3.39839992v4.38173323h-2.83333326V65.91599756h6.88173316v2.38279994h-4.0483999M48.75053211 101.41333v-7.5979198l-2.51559993 7.64844114h-2.49999994l-2.49853327-7.64844115v7.59791982h-2.4166666V89.91593029h3.81626656l2.5650666 7.8484398 2.54946661-7.8484398h3.71613324v11.49739972h-2.71613327m5.38639987-1e-8V89.9159303h7.16573315v2.29947993h-4.36573322v2.16614662h3.33186658l.3672 2.28333327H56.9369319v2.43229328h4.51573322v2.3161466h-7.31573315m13.42346634-9.2812531h-1.03386664v7.0651065h1.03386664c2.03226662 0 3.29946659-1.06614665 3.29946659-3.53229325 0-2.4161466-1.3505333-3.53281325-3.29946659-3.53281325zm.14946666 9.2812531h-4.03226656V89.9159303h3.96613323c3.99893324 0 6.08226652 2.3166666 6.08226652 5.73281318 0 3.41510658-2.13333328 5.76458653-6.01613319 5.76458653m8.20053313-1e-8V89.9159303h2.85053326V101.41333H75.9103981m10.54839974.2c-3.43226658 0-5.51559986-2.29947994-5.51559986-5.93177319 0-3.56562657 2.18333328-5.96562651 5.64853319-5.96562651 1.21706663 0 2.20039994.26718666 3.03279992.74999998l-.39999999 2.5661466c-.68239998-.53333332-1.48279996-.9328133-2.4818666-.9328133-1.79946662 0-2.9494666 1.36614662-2.9494666 3.56562657 0 2.23281328 1.2161333 3.56562658 3.01559993 3.56562658.93293331 0 1.76626662-.34948 2.6162666-.88281332l.36613333 2.38281461c-.91573332.53333332-1.98239996.88281198-3.33239992.88281198m5.42719986-.2V89.9159303h2.85039993V101.41333H91.8859977m12.70146635 0-4.53226655-6.88125316v6.88125317h-2.6494666V89.91593029h2.7650666l4.23333322 6.43177317V89.9159303h2.6494666v11.49739972h-2.46613327m5.12759987-2e-8V89.9159303h7.16559982v2.29947993h-4.36613322v2.16614662h3.33239992l.36706665 2.28333327h-3.69946657v2.43229328h4.51613322v2.3161466h-7.31559982m46.28493218-49.70933209v.53386666H0v-.53386666h155.9999961M15.88906627 8.559199c.07186666.0708.11506666.05986666.11506666.05986666 5.27039987-.2036 8.28906646 1.80106662 8.54586646 2.61919993l2.10626661-.03693333.65466665-1.4265333c.04013333-.11666666.01933333-.28906666-.01973333-.33653332-.63493332-.70306665-5.94013319-2.21919995-12.34013303-2.21919995-6.8286665 0-11.15939972 1.3489333-12.07294636 2.02453329 0 0-.21614666.13066666-.22448.33119999-.00312.09266666.13021333.35106666.13021333.35106666l.18541333.40053332c.05729333.11973333.13854667.10986666.27813333.02906666 0 0 .12344-.03906666.14948-.1208.02448-.07973332-.05365334-.22239999-.05365334-.22239999-.13749333-.27706666.04428-.31293332.05521334-.31919999l.39062665-.17666666c.18541333-.0536.20781333.04533333.27134666.1928 0 0 .07032.20413332.12188.23533332.09844.06.40989332-.11613333 1.33958663-.34373332.06353333-.01146667.09790667-.01866667.22238666-.06773333.08854667-.0348.00937334-.34946666.00937334-.34946666-.03385334-.15306667-.10468-.312.23438666-.36506666l.57967998-.11666666c.27136-.07186667.29636.06973333.33125333.22653332 0 0 .01770666.23333333.0776.33133333.07552.12386666.21614666-.07093333 1.99062661-.26146666 0 0 .25885333-.00733333.30989333-.0964.05365333-.09373333.00937333-.3016.00937333-.3016-.01770667-.21559999-.10468-.37333332.30469333-.39893331l.77707998-.0724c.58177332-.0932.48541332.10213333.50521332.31559999 0 0 .01926666.2328.06353333.27453333.04272.04266666.22709333.03746666.22709333.03746666.99426664-.10306666 1.55311996-.0968 2.60779993-.14213333 0 0 .14893333-.00106666.2032-.062.05466666-.06093333.03893333-.12866666.03893333-.12866666 0-.11773333-.02546667-.30826666.0516-.38906666.08853333-.09066666.22453333-.05306666.36359999-.05306666h.88906664c.13746667 0 .41453333-.06146667.49626666.03746666.04946666.06146667.0328.44066666.0328.44066666s0 .06093333.04173333.09946666"/>
    <path d="M14.9926663-.00173413c-5.15151988 0-8.3223598 1.6541333-10.35151975 3.64533325 0 0-.03489333.03426666-.0526.08693333-.03854666.10106666-.04896.25306666.15989333.18013333 4.41353322-1.85199996 9.23702644-.69266665 10.7734264 1.0521333.05413333.08333333.00266667.10213333-.0604.10213333-1.55159996.0192-2.85261326-.07346666-5.72187986.3276-1.54999996.21919999-2.93177326.44426665-4.0958399.74733331-1.91666661.49799999-3.27915991 1.12559997-4.03905323 1.6297333-.27969332.15053332-.30156799.25733332-.36979732.38493332-.082812.25093332-.07291733.24786666-.12552133.41813332-.09427067.32293332-.14479066.52919999-.16197866.63546665-.03125067.1948.180208.12973333.29010399.0156.23334-.2328.86509998-.79159998 1.79479329-1.22439997.94791997-.44119999 2.5145866-.94279998 4.21614656-1.25679997 2.2692666-.41666665 5.02811987-.68546665 7.55209314-.69119998 2.92653326-.00986667 5.55159986.29586666 7.74426648.72293331 2.23119994.436 3.99426656 1.03906664 5.13439987 1.59586663.53533332.25986666.83639998.50053332 1.1953333.80306665.2828.28959999.3.04226666.2948-.03333333 0 0-.05106667-.38693333-.52613333-1.26199997-1.4577333-2.67853327-5.34786653-7.8795998-13.65053299-7.8795998M.02187507 34.45973168c0 1.1957333 4.97291147 3.6499999 15.26612455 3.6499999 9.98853308 0 15.26199962-2.4542666 15.26199962-3.6499999l-.05106667-1.83439996c0 .03533334-.0072-.1224-.02186667-.08026666-.0172-.3312-.54426665-.39479999-2.15879994-.41866666l-.03706667-1.01826664c0 .10413333-.34053332.326-.55199998.4484-1.31559997.75786664-6.34119984 1.88799994-12.62759969 1.88799994-7.27815982 0-12.37503969-1.50826662-13.17919967-2.33639994l-.01666666 1.5713333c2.3968666 1.71199995 9.77603975 3.24639992 17.2281329 2.4526666.22133333-.0052.2964-.05106666.52133332.01293334.06093333.0204.26666666.19999999-.13906666.34799999-4.3207999 1.42706663-14.99061296 1.1077333-19.51092452-2.32186661l.0213542 1.2885333M21.3145328 10.75293227h.09013333c-.014-.00413333-.0296-.00573333-.04533333-.00573333-.01666667 0-.0328.0016-.0448.00573333m-.11093333.38439999c0 .00626667.00266667.014.00266667.0176v-.32186666c0 .0048-.00266667.01146667-.00266667.0172v.28706666m.00266667.0176v-.32186666zm-2.7286666-.51919999c.00266666 0 .00466666-.00573333.01253333-.00573333h-.0256c.00426667 0 .00893333.00573333.01306667.00573333m2.7286666.51919999"/>
    <path d="m21.38386613 10.01493229-2.81359993-.00266667c-.13746666 0-.19733333.06986667-.20093333.20373333v.31866666c-.0016.14693333.06346667.21253333.214.21413333h.86973331c.07973333-.0052.1016.03333333.10533333.0448.03226667.08746666-.12813333.15773333-.18026666.19466666l-.43079999.2824c-.05826667.0348-.11506666.11506666-.11506666.26813332l-.01866667 20.16573283c.0416.35413332.60613332.38853332 1.2181333.38479999.51666666-.00146667 1.12866664-.02866667 1.19279997-.37493333 0 0-.01666666-19.19226618.00053334-20.85106614.00413333-.076.0364-.09173333.04946666-.0984.01866667-.012.1072-.02133333.1072-.02133333.1276-.0048.19746666-.06826667.19746666-.1948v-.34066665c-.00413333-.124-.0844-.18853333-.19533333-.1932m-4.62239988 14.02759965.06506666-.1344h.1912l-.0032-.12506666H13.107813v.12506666h.20833332l.05625334.12453333.23439999.48946666s.0416.04426666.09586666.0672c.04626667.02133333.15.02973333.18853333.02973333 1.02653331.0104.80253332 0 .96346665 0 .07506666.00213333.18026666.00213333.23173332.0636.03333334.04466666.06306667.16453333-.08066666.25719999-.33546666.22506666-.89426665.59066665-1.15466664.76199998-.0328.01773333-.12133333.076-.1484.14893333-.036.07866667-.0276.14013333-.0276.14013333v3.7895999l-.33133332.1292s-.10154666.75626665.0136.83386665c.10933333.07706666 3.29426658.07706666 3.40573325.0052.1072-.0724.01293333-.85213331.01293333-.85213331l-.33533332-.11613333v-5.08853321l.32079999-.64946665m10.07973309-12.92653301-2.8146666-.00426667c-.13746666-.00413333-.19786666.06773333-.20253333.2068v.31306666c0 .1484.064.2124.2124.21613332h.87346664c.07866667-.0052.10053333.0312.10373333.04426667.03373334.088-.12666666.16146666-.1824.19586666l-.42759998.2828c-.06146667.03386666-.11666666.112-.1156.26866665l-.01613333 18.18133288c.03906667.35093333.60266665.38333333 1.21666664.38173333.51986665 0 1.1265333-.0308 1.1917333-.37293333 0 0-.01826667-17.20786623.002-18.8650662 0-.07706666.036-.09639999.04693333-.10266666.01973333-.01146666.1072-.0192.1072-.0192.12866666-.00426666.1996-.06986666.1996-.19533332v-.34173333c-.0068-.12333333-.08493334-.18693333-.1948-.18946666m-15.38078628-1.10106664-2.81353327-.00266667c-.13698666 0-.20157332.07186667-.20157332.20733333v.31506666c0 .14693333.06198666.21413333.21094666.21413333h.87291998c.0802-.0052.10156.03426666.10468.0448.03385332.08746666-.12656.16093333-.18125334.19466666l-.42811999.2824c-.05989333.0348-.11822666.11719999-.11562666.26973332l-.01770667 20.1687995c.04062667.35146665.60363999.38386665 1.21770664.38013332.51614665 0 1.12655997-.02866667 1.19114664-.3724 0 0-.01406667-19.19479951.00417333-20.8505328 0-.0776.0328-.0948.04478667-.10146667.02082666-.012.10937333-.02133333.10937333-.02133333.12604-.00213333.19636-.06826667.19636-.1948v-.33853332c-.00573334-.12613333-.08594667-.19066666-.19428-.19533333m-5.47655987 1.15146664-2.8151066-.0036c-.13645332 0-.19947999.0708-.20051999.20786666v.31453332c0 .14746667.06146667.21146667.21146666.21146667l.87447998.0016c.07812-.00426667.09790667.0328.1026.04533333.03385333.08693333-.12604.16186666-.18229333.1984l-.42551999.27813332c-.06354666.03533333-.11978666.11773333-.11614666.27133333L3.41458658 30.8706651c.03853333.35306666.60415999.38906666 1.21666664.38746666.51926665 0 1.12707997-.0344 1.19166663-.37653333 0 0-.01458666-17.2089329.00364-18.86613286 0-.0756.03594667-.0948.04636-.10053333.01978667-.01666666.10572-.02093333.10572-.02093333.12865333-.002.20053333-.06666667.20053333-.19466666v-.33866666c-.00729333-.12386666-.08594667-.19106666-.19532-.19426666m147.39747632-.11346667c-1.87599995-5.30319986-6.77733317-8.78079978-12.99333301-8.78079978-9.5145331 0-15.44319961 6.89639983-15.44319961 16.4687996 0 10.3150664 7.41199981 17.89586621 16.06986626 17.89586621 4.50399989 0 10.03599975-1.53906663 13.90666632-8.43226645h1.08399997c-.74266664 2.5598666-2.27999994 6.0994665-3.6479999 8.31666645-3.64933325-.50893332-6.15199985 1.54626663-12.87866635 1.54626663-11.57399971 0-19.8895995-7.63906647-19.8895995-18.18279954 0-11.05879973 8.54693312-19.03439953 20.45893282-19.03439953 7.18133315 0 10.25333308 2.28079995 12.02533303 2.28079995.62666665 0 .90799998-.17293333 1.0253333-.3432h.84933332l.51866665 8.26506646h-1.0853333m-47.34906548-9.34746643V2.7878658c4.55159988.114 5.57919986.74213332 5.57919986 4.21506657v22.67973276l-26.840666-27.9771993h-21.4265328V2.7878658c4.73079988.22853333 5.58599986 1.19786664 5.58599986 6.66399984V22.7310653c0 9.68693309-6.55519983 12.36666635-12.990133 12.36666635-8.49373313 0-12.99426635-4.61666655-12.99426635-12.31199969V6.94973237c0-3.30933325 1.37026664-4.16186657 4.50053322-4.16186657h.5172V1.70546583H33.31506582V2.7878658c3.8755999.05773334 4.90159988.62959999 4.90159988 4.27333323v16.64333292c0 8.1451998 5.5817332 14.36293297 16.46826626 14.36293297 12.36719969 0 16.86719957-7.5863998 16.86719957-14.6530663V8.03213234c0-4.22346656 2.02599995-5.22759987 4.66813322-5.22759987 1.58439996 0 3.11573326.49213332 4.3927999 1.3885333v28.05466596c0 2.61919994-1.14066665 3.81773324-4.67506656 3.81773324h-.22653333v1.08386664h13.226533v-1.08386664c-4.8453332 0-5.75879985-.85159998-5.75879985-4.9557332V6.66173236l29.5129326 30.8906659h1.48706663V5.7497324c0-2.21973328.91039997-2.9618666 5.18906653-2.9618666V1.70546583h-13.33599966"/>
  </g>
  </g>
</svg>
