<svg xmlns="http://www.w3.org/2000/svg" xml:space="preserve" id="Layer_1" version="1.1" viewBox="385 800 640 250">
<g transform="scale(2.3)">
  <style>
    .st0{fill:#4b9cd3}
  </style>
  <path d="M208.7 383.7h.1-.1c.1 0 0 0 0 0zm-.2.6v-.5.5zm-4.3-.8zm-4.2-3.3c.1.1.2.1.2.1 8.5-.3 13.3 2.9 13.7 4.2l3.4-.1 1.1-2.3c.1-.2 0-.5 0-.5-1-1.1-9.5-3.6-19.8-3.6-11 0-17.9 2.2-19.4 3.2 0 0-.4.2-.4.5 0 .1.2.6.2.6l.3.6c.1.2.2.2.4 0 0 0 .2-.1.2-.2s-.1-.4-.1-.4c-.2-.4.1-.5.1-.5l.6-.3c.3-.1.3.1.4.3 0 0 .1.3.2.4.2.1.7-.2 2.1-.6.1 0 .2 0 .4-.1.1-.1 0-.6 0-.6-.1-.2-.2-.5.4-.6l.9-.2c.4-.1.5.1.5.4 0 0 0 .4.1.5.1.2.3-.1 3.2-.4 0 0 .4 0 .5-.2.1-.2 0-.5 0-.5 0-.3-.2-.6.5-.6l1.2-.1c.9-.2.8.2.8.5 0 0 0 .4.1.4.1.1.4.1.4.1 1.6-.2 2.5-.2 4.2-.2 0 0 .2 0 .3-.1.1-.1.1-.2.1-.2 0-.2 0-.5.1-.6.1-.1.4-.1.6-.1h1.4c.2 0 .7-.1.8.1.1.1.1.7.1.7s.2.3.2.4z" class="st0"/>
  <path d="M198.6 366.5c-8.3 0-13.3 2.7-16.6 5.8l-.1.1c-.1.2-.1.4.3.3 7.1-3 14.8-1.1 17.3 1.7.1.1 0 .2-.1.2-2.5 0-4.6-.1-9.2.5-2.5.4-4.7.7-6.6 1.2-3.1.8-5.3 1.8-6.5 2.6-.4.2-.5.4-.6.6-.1.4-.1.4-.2.7-.2.5-.2.8-.3 1-.1.3.3.2.5 0 .4-.4 1.4-1.3 2.9-2s4-1.5 6.8-2c3.6-.7 8.1-1.1 12.1-1.1 4.7 0 8.9.5 12.4 1.2 3.6.7 6.4 1.7 8.2 2.6.9.4 1.3.8 1.9 1.3.5.5.5.1.5-.1 0 0-.1-.6-.8-2-2.4-4.3-8.6-12.6-21.9-12.6m.5 61.2c-16.4 0-24.6-3.8-24.6-6v-2.1s0-.1.1-.1h.1c7.1 5.4 23.9 6.1 31.2 3.7.2-.1.3-.2.3-.2l-.1-.1c-.2-.1-.3-.1-.5 0h-.3c-11.5 1.2-23.6-1.1-27.7-4l-.1-.1v-2.5c0-.1 0-.1.1-.1h.1c.5.5 2.6 1.5 6.6 2.3 3 .6 7.9 1.4 14.4 1.4 9.8 0 18-1.8 20.2-3 .5-.3.8-.5.8-.6 0-.1.1-.1.1-.1.1 0 .1.1.1.1l.1 1.5c2.5 0 3.4.1 3.5.7v.2l.1 2.9c.1 2.2-8.6 6.1-24.5 6.1z" class="st0"/>
  <path d="M208.8 382.5h-4.5c-.2 0-.3.1-.3.3v.5c0 .2.1.3.3.3h1.4c.1 0 .2.1.2.1.1.1-.2.3-.3.3l-.7.4c-.1.1-.2.2-.2.4v32.3c.1.6 1 .6 2 .6.8 0 1.8 0 1.9-.6v-33.4c0-.1.1-.2.1-.2h.2c.2 0 .3-.1.3-.3v-.5c-.1-.1-.2-.2-.4-.2zm-10 33.5c-1.4 0-2.8 0-2.9-.1-.2-.1-.2-.9-.1-1.5 0 0 0-.1.1-.1l.5-.2v-6.3c.1-.2.2-.3.3-.3.4-.3 1.3-.9 1.8-1.2.1 0 .1-.1.1-.1v-.1c0-.1-.2-.1-.3-.1h-1.5s-.2 0-.4-.1c-.1 0-.2-.1-.2-.1l-.4-.9h-.4v-.3c0-.1.1-.1.1-.1h6.3c.1 0 .1.1.1.1v.3h-.3l-.6 1.2v8l.5.2.1.1c.1.9.1 1.4-.1 1.5-.1 0-1.4.1-2.7.1zm18.8-31.7h-4.5c-.2 0-.3.1-.3.3v.5c0 .2.1.3.3.3h1.4c.1 0 .2.1.2.1.1.1-.2.3-.3.3l-.7.4c-.1.1-.2.2-.2.4v29.2c.1.6 1 .6 2 .6.8 0 1.8 0 1.9-.6v-30.3c0-.1.1-.2.1-.2h.2c.2 0 .3-.1.3-.3v-.5c-.1-.1-.2-.2-.4-.2zm-24.7-1.8h-4.5c-.2 0-.3.1-.3.3v.5c0 .2.1.3.3.3h1.4c.1 0 .2.1.2.1.1.1-.2.3-.3.3l-.7.4c-.1.1-.2.2-.2.4v32.3c.1.6 1 .6 2 .6.8 0 1.8 0 1.9-.6v-33.4c0-.1.1-.2.1-.2h.2c.2 0 .3-.1.3-.3v-.5c-.1-.1-.2-.2-.4-.2zm-8.8 1.9h-4.5c-.2 0-.3.1-.3.3v.5c0 .2.1.3.3.3h1.4c.1 0 .2.1.2.1.1.1-.2.3-.3.3l-.7.4c-.1.1-.2.2-.2.4v29.2c.1.6 1 .6 2 .6.8 0 1.8-.1 1.9-.6v-30.3c0-.1.1-.2.1-.2h.2c.2 0 .3-.1.3-.3v-.5c-.1-.1-.2-.2-.4-.2z" class="st0"/>
  <path fill="none" stroke="#4b9cd3" stroke-miterlimit="10" stroke-width=".8" d="M242.5 359.8v72.4"/>
  <path d="M272.9 375.8h-.6c-.2-1.3-.4-1.6-1.3-1.6h-1.5v5.4c0 1.1.2 1.3 1.4 1.3v.6h-5.1v-.6c1.3 0 1.4-.2 1.4-1.3v-5.4h-1.5c-.6 0-1 .2-1.2 1.6h-.6l.2-2.6h.6l.2.2h6.3c.6 0 .7 0 .8-.2h.6l.3 2.6zm10.3 1.1v-1.6c0-1-.2-1.3-1.1-1.3v-.6h4.4v.6c-1 0-1.1.3-1.1 1.1v4.5c0 .9.1 1.3 1.1 1.3v.6h-4.4v-.6c.8 0 1.1-.2 1.1-1.3v-1.9h-3.9v1.9c0 .8.1 1.2 1.1 1.2v.6h-4.5v-.6c.9 0 1.1-.2 1.1-1.3v-4.4c0-1-.3-1.3-1.1-1.3v-.6h4.5v.6c-.9.1-1.1.2-1.1 1.2v1.7h3.9zm14.2-3.5.1 1.9h-.6c-.1-.9-.3-1.1-1-1.1h-2.6v2.8h1.7c.9 0 1.2-.2 1.2-1h.6v2.7h-.6c0-.7-.2-.9-1.2-.9h-1.7v2.1c0 .7.1.7.8.7h1.5c1.1 0 1.4-.5 1.6-1.4h.6l-.2 2.2h-7.9v-.6c1.2 0 1.4-.3 1.4-1.2v-4.5c0-1.1-.4-1.2-1.3-1.2v-.6h7.6zm18.7 0v.6c-1.1 0-1.3.2-1.3 1.2v2.9c0 2.6-1.6 3.6-3.8 3.6-2.4 0-3.9-1.1-3.9-3v-3.4c0-.9-.2-1.3-1.1-1.3v-.6h4.4v.6c-.9 0-1.2.3-1.2 1.1v3.5c0 1.2.7 2 2.3 2 1.7 0 2.4-.9 2.4-2.6v-2.7c0-1-.2-1.3-1.3-1.3v-.6h3.5zm13.1 0v.6c-.9 0-1.2.3-1.2 1.2v6.4h-1l-5.9-6.2v4.3c0 .9.1 1.2 1.2 1.2v.6H319v-.6c.9 0 1.2-.2 1.2-1.3v-5.2c-.2-.2-.5-.3-1.1-.3v-.6h3.1l4.9 5.3v-3.5c0-.8-.1-1.2-1.2-1.2v-.6h3.3zm3.1 8.1v-.6c.9 0 1.1-.3 1.1-1.2v-4.5c0-.9-.2-1.3-1.1-1.3v-.6h4.5v.6c-1 0-1.2.3-1.2 1.3v4.4c0 .8.1 1.2 1.2 1.2v.6h-4.5zM349 374c-.9 0-1.2.2-1.8 1.5l-2.8 6.2h-1l-2.7-6.1c-.7-1.5-.8-1.6-1.7-1.6v-.6h4.9v.6c-1 0-1.3.2-1.3.5 0 .2.1.4.2.8l1.7 3.8 1.5-3.3c.4-.8.5-1.1.5-1.3 0-.3-.3-.5-1.1-.5v-.6h3.6v.6zm9.2-.6.1 1.9h-.6c-.1-.9-.3-1.1-1-1.1h-2.6v2.8h1.7c.9 0 1.2-.2 1.2-1h.6v2.7h-.6c0-.7-.2-.9-1.2-.9h-1.7v2.1c0 .7.1.7.8.7h1.5c1.1 0 1.4-.5 1.6-1.4h.6l-.2 2.2h-7.9v-.6c1.2 0 1.4-.3 1.4-1.2v-4.5c0-1.1-.4-1.2-1.3-1.2v-.6h7.6zm14.5 8.2h-1.6c-1.2 0-1.9-.2-2.5-.8-.8-.8-1.6-2.2-2.2-2.8h-.7v1.7c0 1 .4 1.1 1.4 1.1v.6h-4.9v-.6c1.1 0 1.4-.2 1.4-1.1v-4.5c0-1-.2-1.2-1.4-1.2v-.6c.8-.1 1.3-.1 2.4-.1.8 0 1.6-.1 2.1-.1 2.1 0 4 .4 4 2.4 0 1-.6 1.7-1.9 2.1.8.7 1.3 1.8 2.1 2.6.6.6 1.1.7 1.8.7v.6zm-7-4.2c1.9 0 2.6-.6 2.6-1.9 0-1-.7-1.7-1.9-1.7h-.6v3.6zm9.3 1.7c.4 1.2 1.2 2 2.3 2 .8 0 1.3-.5 1.3-1.2 0-1.7-4.1-1.9-4.1-4.4 0-.9.6-2.3 2.8-2.3 1 0 1.6.3 2 .3.1 0 .2 0 .3-.2h.4l.2 2.3h-.6c-.4-1.1-1.3-1.7-2.2-1.7-.7 0-1.1.3-1.1.8 0 1.4 4.3 1.7 4.3 4.5 0 1.5-1.2 2.5-3 2.5-.9 0-1.9-.3-2.1-.3-.2 0-.3.1-.3.2h-.4l-.4-2.6h.6zm8.9 2.4v-.6c.9 0 1.1-.3 1.1-1.2v-4.5c0-.9-.2-1.3-1.1-1.3v-.6h4.5v.6c-1 0-1.2.3-1.2 1.3v4.4c0 .8.1 1.2 1.2 1.2v.6h-4.5zm16.1-5.7h-.6c-.2-1.3-.4-1.6-1.3-1.6h-1.5v5.4c0 1.1.2 1.3 1.4 1.3v.6h-5v-.6c1.3 0 1.4-.2 1.4-1.3v-5.4h-1.5c-.6 0-1 .2-1.2 1.6h-.6l.2-2.6h.6l.2.2h6.3c.6 0 .7 0 .8-.2h.6l.2 2.6zm11.8-1.8c-.9 0-1.1.2-1.8 1.3l-1.9 2.9v1.4c0 .9.1 1.2 1.3 1.2v.6h-4.8v-.6c1.1 0 1.3-.3 1.3-1.2v-1.3l-2.4-3.2c-.6-.8-.9-1-1.6-1v-.6h4.7v.6c-.6 0-.9.1-.9.3 0 .1.1.3.2.4l1.8 2.5 1.3-2.1c.2-.4.3-.6.3-.8 0-.3-.2-.4-.9-.4v-.6h3.3v.6zm-143.6 20.5c1 0 1.6.9 1.6 2.2 0 2.6-2.4 4.2-4 4.2-1 0-1.6-.9-1.6-2.1 0-2.2 2-4.3 4-4.3zm-1.5 5.8c.6 0 1.4-1.5 1.4-3.3 0-1-.4-1.8-.8-1.8-.6 0-1.4 1.5-1.4 3.3 0 1 .4 1.8.8 1.8zm6.7-.1c-.2 1.1-.5 2.1-1.5 3-.6.6-1.3 1-2.3 1-.9 0-1.5-.4-1.5-.9 0-.4.4-.7.8-.7.9 0 .9 1.1 1.6 1.1.5 0 .9-.6 1-1.6l1.1-6.7h-1.1l.1-.4c.4 0 .9-.1 1.2-.3.3-2.1 1.5-3.9 3.6-3.9.9 0 1.4.3 1.4.8 0 .4-.4.8-.8.8-.8 0-1.1-1-1.6-1-.4 0-.5.5-.7 1.8l-.2 1.5h1.1l-.1.7h-1.1l-1 4.8zm20.1-7.6v.6c-.9 0-1.2.3-1.2 1.2v6.4h-1l-5.9-6.2v4.3c0 .9.1 1.2 1.2 1.2v.6h-3.3v-.6c.9 0 1.2-.2 1.2-1.3v-5.2c-.2-.2-.5-.3-1.1-.3v-.6h3.1l4.9 5.3v-3.5c0-.8-.1-1.2-1.2-1.2v-.6h3.3zm7.1 8.3c-3.7 0-4.8-2.4-4.8-4.2 0-2.2 1.6-4.3 5.1-4.3 3.6 0 4.7 2.4 4.7 4.2 0 1.7-1.1 4.3-5 4.3zm-.1-7.8c-1.2 0-2.4.8-2.4 3.1 0 2.5 1.2 4.2 2.9 4.2 1.3 0 2.3-1 2.3-3.1 0-2.5-1.1-4.2-2.8-4.2zm18 7.8h-1.6c-1.2 0-1.9-.2-2.5-.8-.8-.8-1.6-2.2-2.2-2.8h-.7v1.7c0 1 .4 1.1 1.4 1.1v.6H308v-.6c1.1 0 1.4-.2 1.4-1.1v-4.5c0-1-.2-1.2-1.4-1.2v-.6c.8 0 1.3-.1 2.4-.1.8 0 1.6-.1 2.1-.1 2.1 0 4 .4 4 2.4 0 1-.6 1.7-1.9 2.1.8.7 1.3 1.8 2.1 2.6.6.6 1.1.7 1.8.7v.6zm-7-4.2c1.9 0 2.6-.6 2.6-1.9 0-1-.7-1.7-1.9-1.7h-.6v3.6zm17.3-1.7h-.6c-.2-1.3-.4-1.6-1.3-1.6h-1.5v5.4c0 1.1.2 1.3 1.4 1.3v.6h-5v-.6c1.3 0 1.4-.2 1.4-1.3v-5.4h-1.5c-.6 0-1 .2-1.2 1.6h-.6l.2-2.6h.6l.2.2h6.3c.6 0 .7 0 .8-.2h.6l.2 2.6zm10.1 1.2v-1.6c0-1-.2-1.3-1.1-1.3v-.6h4.4v.6c-.9 0-1.1.3-1.1 1.1v4.5c0 .9.1 1.3 1.1 1.3v.6h-4.4v-.6c.8 0 1.1-.2 1.1-1.3V397H335v1.9c0 .8.1 1.2 1.1 1.2v.6h-4.5v-.6c.9 0 1.1-.2 1.1-1.3v-4.4c0-1-.3-1.2-1.1-1.2v-.6h4.5v.6c-.9.1-1.1.2-1.1 1.2v1.7h3.9zm20.6 2c-.1.7-.4 1.7-.8 2.6v.1c-.1 0-.2-.1-.4-.1h-.4c-.4 0-.7 0-1.1.1-.4 0-.8.1-1.3.1-1.7 0-2.9-.6-3.7-1.4-.7-.8-1.1-1.8-1.1-2.7 0-1.3.5-2.4 1.4-3.2.9-.8 2.2-1.2 3.7-1.2 1.4 0 2.2.4 2.5.4.1 0 .2-.1.2-.2h.5l.1 2.7h-.6c-.1-.7-.5-1.2-.9-1.6s-1-.6-1.7-.6c-1.7 0-2.9 1.4-2.9 3.4 0 2.1 1.2 3.6 3.1 3.6 1.2 0 2.2-.7 2.8-2h.6zm11.5 2.5h-4.7v-.6c.9 0 1.2-.1 1.2-.4 0-.2-.1-.5-.3-1l-.3-.8H364l-.2.7c-.2.5-.3.9-.3 1 0 .4.4.5 1.1.5v.6h-3.3v-.6c1 0 1.1-.2 1.5-1.6l2-5.8-.1-.3h2.3l2.4 6.2c.5 1.2.8 1.5 1.5 1.5v.6zm-5.6-6.6-1.1 3.1h2.3l-1.2-3.1zm18.5 6.8h-1.6c-1.2 0-1.9-.2-2.5-.8-.8-.8-1.6-2.2-2.2-2.8h-.6v1.7c0 1 .4 1.1 1.4 1.1v.6h-4.9v-.6c1.1 0 1.4-.2 1.4-1.1v-4.5c0-1-.2-1.2-1.4-1.2v-.6c.8 0 1.3-.1 2.4-.1.8 0 1.6-.1 2.1-.1 2.1 0 4 .4 4 2.4 0 1-.6 1.7-1.9 2.1.8.7 1.3 1.8 2.1 2.6.6.6 1.1.7 1.8.7v.6zm-6.9-4.2c1.9 0 2.6-.6 2.6-1.9 0-1-.7-1.7-1.9-1.7h-.7v3.6zm13.1 4.2c-3.7 0-4.8-2.4-4.8-4.2 0-2.2 1.6-4.3 5.1-4.3 3.6 0 4.7 2.4 4.7 4.2 0 1.7-1.1 4.3-5 4.3zm-.1-7.8c-1.2 0-2.4.8-2.4 3.1 0 2.5 1.2 4.2 2.9 4.2 1.3 0 2.3-1 2.3-3.1 0-2.5-1.2-4.2-2.8-4.2zm12.5-.5v.6c-1.1 0-1.3.2-1.3 1.2v4.5c0 .8.1.9 1 .9h1c.8 0 1.1 0 2.2-1.5h.6l-1 2.4h-7.2v-.6c1.1 0 1.3-.3 1.3-1.3v-4.4c0-.9-.1-1.2-1.3-1.2v-.6h4.7zm6 8.1v-.6c.9 0 1.1-.3 1.1-1.2v-4.5c0-.9-.2-1.2-1.1-1.2v-.6h4.5v.6c-1 0-1.2.3-1.2 1.2v4.4c0 .8.1 1.2 1.2 1.2v.6h-4.5zm18-8.1v.6c-.9 0-1.2.3-1.2 1.2v6.4h-1l-5.9-6.2v4.3c0 .9.1 1.2 1.2 1.2v.6h-3.3v-.6c.9 0 1.2-.2 1.2-1.3v-5.2c-.2-.2-.5-.3-1.1-.3v-.6h3.1l4.9 5.3v-3.5c0-.8-.1-1.2-1.2-1.2v-.6h3.3zm11 8.1h-4.7v-.6c.9 0 1.2-.1 1.2-.4 0-.2-.1-.5-.3-1l-.3-.8h-2.9l-.2.7c-.2.5-.3.9-.3 1 0 .4.4.5 1.1.5v.6h-3.3v-.6c1 0 1.1-.2 1.5-1.6l2-5.8-.1-.3h2.3l2.4 6.2c.5 1.2.8 1.5 1.5 1.5v.6zm-5.6-6.6-1.1 3.1h2.3l-1.2-3.1zm-163 24.4c-.1.3-.1.6.1.6s.7-.5 1-.9v.5c-.8.8-1.6 1.4-2.1 1.4-.4 0-.6-.3-.6-.9 0-.3 0-.4.1-.9-.9 1-1.8 1.8-2.2 1.8-.3 0-1-.4-1-1.4 0-1 .3-2.2 1.6-3.5 1.2-1.2 2.3-1.5 4.2-1.5l-1.1 4.8zm-.8-3.9c-.8 0-1.2.2-1.7.7-.5.5-.9 1.6-.9 2.4 0 .6.2 1 .6 1 .3 0 .8-.5 1.4-1.1l.6-3zm5.5 4.1c-.1.3.1.5.3.5.2 0 .7-.4 1.1-.9l.3.3c-.8.9-1.8 1.5-2.5 1.5-.6 0-.9-.4-.8-1.3l.9-4.3h-.7l.1-.3c1-.3 1.8-1.1 2.7-2.3h.4c-.3.6-.5 1.2-.7 2h1.2l-.1.7h-1.2l-1 4.1zm18.6-1.3c-.1.7-.4 1.7-.8 2.6v.1c-.1 0-.2-.1-.4-.1h-.4c-.4 0-.7 0-1.1.1-.4 0-.8.1-1.3.1-1.7 0-2.9-.6-3.7-1.4-.7-.8-1.1-1.8-1.1-2.7 0-1.3.5-2.4 1.4-3.2.9-.8 2.2-1.2 3.7-1.2 1.4 0 2.2.4 2.5.4.1 0 .2-.1.2-.2h.5l.1 2.7h-.6c-.1-.7-.5-1.2-.9-1.6-.5-.4-1-.6-1.7-.6-1.7 0-2.9 1.4-2.9 3.4 0 2.1 1.2 3.6 3.1 3.6 1.2 0 2.2-.7 2.8-2h.6zm10.2-2v-1.6c0-1-.2-1.3-1.1-1.3v-.6h4.4v.6c-.9 0-1.1.3-1.1 1.1v4.5c0 .9.1 1.3 1.1 1.3v.6h-4.4v-.6c.8 0 1.1-.2 1.1-1.3v-1.9h-3.9v1.9c0 .8.1 1.2 1.1 1.2v.6h-4.5v-.6c.9 0 1.1-.2 1.1-1.3v-4.4c0-1-.3-1.2-1.1-1.2v-.6h4.5v.6c-.9.1-1.1.2-1.1 1.2v1.7h3.9zm15.1 4.6h-4.7v-.6c.9 0 1.2-.1 1.2-.4 0-.2-.1-.5-.3-1l-.3-.8h-2.9l-.2.7c-.2.5-.3.9-.3 1 0 .4.4.5 1.1.5v.6h-3.3v-.6c1 0 1.1-.2 1.5-1.6l2-5.8-.1-.3h2.3l2.4 6.2c.5 1.2.8 1.5 1.5 1.5v.6zm-5.6-6.7-1.1 3.1h2.3l-1.2-3.1zm9 .8c0-1.4-.1-1.5-1.2-1.6v-.6c.7 0 1.7-.1 2.6-.1.9 0 1.6-.1 1.8-.1 2.2 0 3.6.9 3.6 2.5 0 1.1-.8 2.5-3.2 2.5-.4 0-1-.1-1.4-.1v1.7c0 .8.2 1 1.5 1v.6h-4.8v-.6c.9 0 1.2-.3 1.2-1.3v-3.9zm2.2 1.8c.2.1.4.1.6.1 1.1 0 1.7-.7 1.7-1.9 0-1.1-.6-1.8-1.6-1.8-.3 0-.5 0-.7.1v3.5zm14.8-4 .1 1.9h-.6c-.1-.9-.3-1.1-.9-1.1h-2.6v2.8h1.7c.9 0 1.2-.2 1.2-1h.6v2.7h-.6c0-.7-.2-.9-1.2-.9h-1.7v2.1c0 .7.1.7.8.7h1.5c1.1 0 1.4-.5 1.6-1.4h.6l-.2 2.2h-7.9v-.6c1.2 0 1.4-.3 1.4-1.2v-4.5c0-1.1-.4-1.2-1.3-1.2v-.6h7.5zm8.5 0v.6c-1.1 0-1.3.2-1.3 1.2v4.5c0 .8.1.9 1 .9h1c.8 0 1.1 0 2.2-1.5h.6l-1 2.4h-7.2v-.6c1.1 0 1.3-.3 1.3-1.3v-4.4c0-.9-.1-1.2-1.3-1.2v-.6h4.7zm18.4 3.5v-1.6c0-1-.2-1.3-1.1-1.3v-.6h4.4v.6c-1 0-1.1.3-1.1 1.1v4.5c0 .9.1 1.3 1.1 1.3v.6h-4.4v-.6c.8 0 1.1-.2 1.1-1.3v-1.9h-3.9v1.9c0 .8.1 1.2 1.1 1.2v.6h-4.5v-.6c.9 0 1.1-.2 1.1-1.3v-4.4c0-1-.3-1.2-1.1-1.2v-.6h4.5v.6c-.9.1-1.1.2-1.1 1.2v1.7h3.9zm6.8 4.6v-.6c.9 0 1.1-.3 1.1-1.2v-4.5c0-.9-.2-1.2-1.1-1.2v-.6h4.5v.6c-1 0-1.2.3-1.2 1.2v4.4c0 .8.1 1.2 1.2 1.2v.6h-4.5zm12.3-8.1v.6c-1.1 0-1.3.2-1.3 1.2v4.5c0 .8.1.9 1 .9h1c.8 0 1.1 0 2.2-1.5h.6l-1 2.4h-7.2v-.6c1.1 0 1.3-.3 1.3-1.3v-4.4c0-.9-.1-1.2-1.3-1.2v-.6h4.7zm9.7 0v.6c-1.1 0-1.3.2-1.3 1.2v4.5c0 .8.1.9 1 .9h1c.8 0 1.1 0 2.2-1.5h.6l-1 2.4h-7.2v-.6c1.1 0 1.3-.3 1.3-1.3v-4.4c0-.9-.1-1.2-1.3-1.2v-.6h4.7z" class="st0"/>
</g>
</svg>
