<?xml version="1.0" encoding="UTF-8"?>
<svg version="1.1" xmlns="http://www.w3.org/2000/svg" viewBox="0 -180 640 640">
<g transform="scale(0.7)">
<path d="M0 0 C31.93333333 0 31.93333333 0 37.875 3.875 C41.75149243 7.75149243 42.32976623 10.93761306 42.4375 16.375 C42.38570298 20.56584952 42.34444039 23.4610013 39.625 26.75 C37 29 37 29 35 30 C35.49371094 30.39832031 35.98742187 30.79664063 36.49609375 31.20703125 C37.13675781 31.73683594 37.77742188 32.26664063 38.4375 32.8125 C39.07558594 33.33457031 39.71367187 33.85664063 40.37109375 34.39453125 C43.61994678 37.5966382 43.22517654 41.49688244 43.3125 45.8125 C43.23988594 53.63868233 43.23988594 53.63868233 41.375 56.6875 C30.44237588 67.33242348 13.97506991 63 0 63 C0 42.21 0 21.42 0 0 Z M14 11 C14 15.95 14 20.9 14 26 C20.12187045 26.3044739 20.12187045 26.3044739 26 24.9375 C28.28419577 23.03235739 28.28419577 23.03235739 29.0625 19.625 C29.22742754 16.02402208 29.22742754 16.02402208 27.75 13.0625 C23.35874962 9.76906222 19.38599788 10.67940489 14 11 Z M14 36 C14 41.61 14 47.22 14 53 C21.50837005 53.43828913 21.50837005 53.43828913 28 50 C29.56941198 48.43058802 29.2449847 46.85865006 29.3125 44.6875 C29.24517421 41.66745758 29.0843836 40.16474894 27.6875 37.4375 C23.24736229 35.06254262 18.97317025 35.76318237 14 36 Z " fill="#000000" transform="translate(131,152)"/>
<path d="M0 0 C34.78571429 0 34.78571429 0 40.8125 5.625 C46.54352705 13.52730589 46.49219518 22.5924283 46.4375 32 C46.4674707 33.82917969 46.4674707 33.82917969 46.49804688 35.6953125 C46.49371672 43.7147568 45.76153077 50.46313078 40.50878906 56.79858398 C30.2288634 66.73081498 12.23532504 63 0 63 C0 42.21 0 21.42 0 0 Z M15 10 C15 23.86 15 37.72 15 52 C25.20739609 53.21188933 25.20739609 53.21188933 28.625 49.6875 C31.7178047 43.64247264 31.22110385 37.8444506 31.25 31.1875 C31.270625 30.01123047 31.29125 28.83496094 31.3125 27.62304688 C31.44461961 19.35939271 31.44461961 19.35939271 28 12 C23.5763153 9.21939819 20.63875369 10 15 10 Z " fill="#000000" transform="translate(544,39)"/>
<path d="M0 0 C0.95648438 -0.02578125 1.91296875 -0.0515625 2.8984375 -0.078125 C6.03217759 0.29900132 7.20217278 1.32844738 9.625 3.25 C12.27745602 2.58903214 12.27745602 2.58903214 14.625 1.25 C17.30155801 -0.08827901 19.44934052 0.04421444 22.4375 0 C23.47519531 -0.02578125 24.51289063 -0.0515625 25.58203125 -0.078125 C29.10193453 0.30142811 30.86992015 1.03824306 33.625 3.25 C36.0066541 7.63432666 35.88435294 11.9711122 35.8203125 16.83203125 C35.8174826 17.64621017 35.81465271 18.4603891 35.81173706 19.29924011 C35.80058584 21.887146 35.77549083 24.47469958 35.75 27.0625 C35.73996365 28.82226061 35.73083894 30.58202667 35.72265625 32.34179688 C35.7006631 36.64466598 35.66616836 40.94727336 35.625 45.25 C31.005 45.25 26.385 45.25 21.625 45.25 C21.595271 43.77406372 21.595271 43.77406372 21.56494141 42.26831055 C21.48886013 38.61717161 21.400147 34.96642991 21.30761719 31.31567383 C21.26933779 29.73567549 21.23448303 28.15559031 21.203125 26.57543945 C21.15745124 24.30388355 21.09946216 22.03292491 21.0390625 19.76171875 C21.02751129 19.05536789 21.01596008 18.34901703 21.00405884 17.6212616 C20.89428952 13.97258607 20.70357636 12.36786454 18.625 9.25 C16.975 9.58 15.325 9.91 13.625 10.25 C13.295 21.8 12.965 33.35 12.625 45.25 C8.005 45.25 3.385 45.25 -1.375 45.25 C-1.40005615 44.2305127 -1.4251123 43.21102539 -1.45092773 42.16064453 C-1.54497004 38.38479646 -1.64519837 34.60913373 -1.74731445 30.83349609 C-1.79067538 29.19812347 -1.83234961 27.56270523 -1.87231445 25.92724609 C-1.92998912 23.57896159 -1.99369129 21.23090696 -2.05859375 18.8828125 C-2.07530624 18.14942657 -2.09201874 17.41604065 -2.10923767 16.66043091 C-2.16137962 12.82797692 -2.16137962 12.82797692 -3.375 9.25 C-5.04111905 9.207279 -6.70882885 9.20936168 -8.375 9.25 C-10.38003509 11.25503509 -9.63088663 15.25025444 -9.69140625 18.00390625 C-9.71218735 18.77935287 -9.73296844 19.5547995 -9.75437927 20.35374451 C-9.81995802 22.83990308 -9.87879799 25.32617045 -9.9375 27.8125 C-9.98067733 29.49415204 -10.02429136 31.17579294 -10.06835938 32.85742188 C-10.17564779 36.98816871 -10.27689132 41.11902536 -10.375 45.25 C-14.995 45.25 -19.615 45.25 -24.375 45.25 C-24.375 30.73 -24.375 16.21 -24.375 1.25 C-18.70833333 1.25 -13.04166667 1.25 -7.375 1.25 C-4.80935275 -0.03282363 -2.86466931 0.04608047 0 0 Z " fill="#000000" transform="translate(166.375,56.75)"/>
<path d="M0 0 C2.46066399 1.08269216 3.94308666 2.22104793 6 4 C6.433125 3.525625 6.86625 3.05125 7.3125 2.5625 C10.95445554 -0.80968106 15.57771779 -0.32628635 20.26171875 -0.2890625 C24.27945928 0.13506418 26.04755846 1.28064595 29 4 C30.29487016 7.88461047 30.1232604 11.55883956 30.09765625 15.60546875 C30.0962413 16.44467361 30.09482635 17.28387848 30.09336853 18.14851379 C30.08777215 20.82821216 30.07522035 23.5078269 30.0625 26.1875 C30.05748453 28.00455608 30.05292171 29.82161348 30.04882812 31.63867188 C30.03780391 36.09248013 30.02054178 40.54622589 30 45 C25.38 45 20.76 45 16 45 C15.97494385 43.9805127 15.9498877 42.96102539 15.92407227 41.91064453 C15.83002996 38.13479646 15.72980163 34.35913373 15.62768555 30.58349609 C15.58432462 28.94812347 15.54265039 27.31270523 15.50268555 25.67724609 C15.44501088 23.32896159 15.38130871 20.98090696 15.31640625 18.6328125 C15.29969376 17.89942657 15.28298126 17.16604065 15.26576233 16.41043091 C15.21362038 12.57797692 15.21362038 12.57797692 14 9 C12.33388095 8.957279 10.66617115 8.95936168 9 9 C6.99496491 11.00503509 7.74411337 15.00025444 7.68359375 17.75390625 C7.66281265 18.52935287 7.64203156 19.3047995 7.62062073 20.10374451 C7.55504198 22.58990308 7.49620201 25.07617045 7.4375 27.5625 C7.39432267 29.24415204 7.35070864 30.92579294 7.30664062 32.60742188 C7.19935221 36.73816871 7.09810868 40.86902536 7 45 C2.38 45 -2.24 45 -7 45 C-7.02505615 43.94498291 -7.0501123 42.88996582 -7.07592773 41.80297852 C-7.16984109 37.90229372 -7.27010034 34.00179375 -7.37231445 30.10131836 C-7.41572439 28.41060701 -7.45739489 26.71985009 -7.49731445 25.02905273 C-7.55487094 22.60386394 -7.61860649 20.17890585 -7.68359375 17.75390625 C-7.70030624 16.99348526 -7.71701874 16.23306427 -7.73423767 15.44960022 C-7.52091268 11.92917969 -7.52091268 11.92917969 -9 9 C-10.66617115 8.95936168 -12.33388095 8.957279 -14 9 C-15.5274639 12.0549278 -15.23991832 15.2763314 -15.31640625 18.6328125 C-15.33718735 19.38464813 -15.35796844 20.13648376 -15.37937927 20.91110229 C-15.44482705 23.31564085 -15.50373738 25.72028967 -15.5625 28.125 C-15.60568977 29.75391771 -15.64930421 31.38282422 -15.69335938 33.01171875 C-15.80050351 37.00769915 -15.90178433 41.00379059 -16 45 C-20.62 45 -25.24 45 -30 45 C-30 30.48 -30 15.96 -30 1 C-25.38 1 -20.76 1 -16 1 C-15.67 1.66 -15.34 2.32 -15 3 C-14.17628906 2.27103516 -14.17628906 2.27103516 -13.3359375 1.52734375 C-9.23800507 -1.15207361 -4.72345586 -0.64751559 0 0 Z " fill="#000000" transform="translate(830,57)"/>
<path d="M0 0 C1.67334039 0.98879205 3.34151823 1.98648336 5 3 C7.7004039 2.35336433 7.7004039 2.35336433 10 1 C13.72712158 -0.86356079 17.9420732 -0.56549975 22 0 C25.62531608 1.8741654 27.69121639 4.07364917 29 8 C29.08518867 10.80426452 29.1158852 13.5829635 29.09765625 16.38671875 C29.0962413 17.20372757 29.09482635 18.02073639 29.09336853 18.86250305 C29.08777294 21.47087268 29.07522129 24.07915634 29.0625 26.6875 C29.05748443 28.45637897 29.05292162 30.22525928 29.04882812 31.99414062 C29.03780496 36.32946019 29.02054338 40.66471552 29 45 C24.71 45 20.42 45 16 45 C15.970271 43.5773584 15.970271 43.5773584 15.93994141 42.12597656 C15.86174239 38.59967636 15.77504634 35.07379639 15.68261719 31.54785156 C15.64438734 30.02319342 15.609524 28.49844693 15.578125 26.97363281 C15.53234338 24.77897619 15.47437234 22.5849246 15.4140625 20.390625 C15.40251129 19.7113092 15.39096008 19.03199341 15.37905884 18.33209229 C15.26765084 14.7416264 14.94041624 12.06381512 13 9 C11.35 9 9.7 9 8 9 C7.67 20.88 7.34 32.76 7 45 C2.71 45 -1.58 45 -6 45 C-6.33 33.45 -6.66 21.9 -7 10 C-10.63619656 8.91915479 -10.63619656 8.91915479 -13 9 C-13.33 20.88 -13.66 32.76 -14 45 C-18.29 45 -22.58 45 -27 45 C-27 30.48 -27 15.96 -27 1 C-21.66666667 1 -16.33333333 1 -11 1 C-7.56873653 -0.71563174 -3.76005987 -0.40543254 0 0 Z " fill="#000000" transform="translate(279,170)"/>
<path d="M0 0 C6.93 0 13.86 0 21 0 C21 0.99 21 1.98 21 3 C19.02 3.66 17.04 4.32 15 5 C14.92544051 9.02009457 14.87120642 13.03991733 14.83520508 17.06054688 C14.82018572 18.42617816 14.79976392 19.79176176 14.77368164 21.15722656 C14.73699863 23.12803905 14.72181449 25.09921408 14.70703125 27.0703125 C14.6913208 28.25383301 14.67561035 29.43735352 14.65942383 30.65673828 C15.10671657 35.04758191 16.68025409 38.24033879 19.3125 41.75 C23.9330727 45.17264644 29.42672107 45.65752167 35 45 C39.51399938 44.02333468 42.14864118 43.06519217 45.09179688 39.3828125 C47.32177262 35.42956994 47.46510677 33.13895978 47.390625 28.6328125 C47.38213531 27.61343094 47.38213531 27.61343094 47.37347412 26.57345581 C47.35125351 24.42322451 47.30109198 22.27471926 47.25 20.125 C47.22991614 18.6588784 47.21166868 17.19273042 47.1953125 15.7265625 C47.15143811 12.15048992 47.08251443 8.57541369 47 5 C45.02 4.34 43.04 3.68 41 3 C41 2.01 41 1.02 41 0 C65.49523557 -3.01160935 65.49523557 -3.01160935 74.17285156 1.73583984 C80.4064651 6.65694228 85.20080211 12.72500737 90 19 C95.00239513 25.03722778 100.4349275 30.4349275 106 36 C106 25.44 106 14.88 106 4 C103.69 3.67 101.38 3.34 99 3 C99 2.01 99 1.02 99 0 C105.27 0 111.54 0 118 0 C118 0.99 118 1.98 118 3 C116.02 3.66 114.04 4.32 112 5 C111.67 19.85 111.34 34.7 111 50 C106.53648206 48.88412051 105.42752248 47.79198202 102.26171875 44.58984375 C100.90723633 43.22762695 100.90723633 43.22762695 99.52539062 41.83789062 C99.0585083 41.3606958 98.59162598 40.88350098 98.1105957 40.3918457 C96.70961732 38.960103 95.29726694 37.53951651 93.88476562 36.11914062 C89.94173573 32.13127173 86.05230553 28.131372 82.39453125 23.87890625 C78.4707751 19.39525855 74.21301311 15.21301311 70 11 C70 22.22 70 33.44 70 45 C72.31 45.66 74.62 46.32 77 47 C77 47.99 77 48.98 77 50 C70.73 50 64.46 50 58 50 C58 49.01 58 48.02 58 47 C59.65 46.34 61.3 45.68 63 45 C63.33 31.47 63.66 17.94 64 4 C61.36 4 58.72 4 56 4 C53.20384873 6.79615127 53.74606999 8.5650481 53.7265625 12.4765625 C53.7059375 13.78753906 53.6853125 15.09851563 53.6640625 16.44921875 C53.64159729 18.529204 53.62504581 20.60886444 53.61914062 22.68896484 C53.5743459 32.0533027 53.51755338 39.22430072 46.8125 46.3125 C38.87338117 51.0759713 30.56870313 52.31170697 21.4765625 50.49609375 C15.44191414 48.74183551 12.09217083 45.89258709 8.39697266 40.78369141 C6.64964206 37.30185579 6.58490317 34.72326641 6.5234375 30.8359375 C6.50785797 30.16204987 6.49227844 29.48816223 6.47622681 28.79385376 C6.42895278 26.65424684 6.40102656 24.5149616 6.375 22.375 C6.33843287 20.22812482 6.29777142 18.08142888 6.25234985 15.9347229 C6.21284583 13.99227202 6.18498465 12.04959475 6.15771484 10.10693359 C6.13724098 6.96551331 6.13724098 6.96551331 5 4 C3.35 3.67 1.7 3.34 0 3 C0 2.01 0 1.02 0 0 Z " fill="#000000" transform="translate(331,306)"/>
<path d="M0 0 C-0.33 15.84 -0.66 31.68 -1 48 C0.98 47.505 0.98 47.505 3 47 C3 47.99 3 48.98 3 50 C4.32 50 5.64 50 7 50 C7.6875 52.8125 7.6875 52.8125 8 56 C3.47051546 61.80340207 -5.0002101 62.31059117 -11.8125 63.1875 C-26.94380692 64.94695429 -44.15393685 65.25269974 -58 58 C-59 57 -59 57 -59.0625 54.4375 C-59.041875 53.633125 -59.02125 52.82875 -59 52 C-56 53 -53 54 -50 55 C-51.2375 54.4121875 -51.2375 54.4121875 -52.5 53.8125 C-53.325 53.214375 -54.15 52.61625 -55 52 C-55.3125 49.3125 -55.3125 49.3125 -55 47 C-54.01 47.33 -53.02 47.66 -52 48 C-52.33 33.81 -52.66 19.62 -53 5 C-50.36 5 -47.72 5 -45 5 C-45.33 19.52 -45.66 34.04 -46 49 C-40.83652719 50.47527795 -37.9276864 51.25431784 -32.875 51.265625 C-31.19664062 51.26949219 -31.19664062 51.26949219 -29.484375 51.2734375 C-28.33453125 51.26570313 -27.1846875 51.25796875 -26 51.25 C-24.85015625 51.25773437 -23.7003125 51.26546875 -22.515625 51.2734375 C-16.62981071 51.25987572 -11.54519815 51.03109002 -6 49 C-6.33 48.67 -6.66 48.34 -7 48 C-7.14806735 45.00697873 -7.23516345 42.0341752 -7.28125 39.0390625 C-7.30886414 37.68680069 -7.30886414 37.68680069 -7.33703613 36.30722046 C-7.39598061 33.41321543 -7.44869549 30.51914996 -7.5 27.625 C-7.5676019 23.82539428 -7.64132757 20.0259793 -7.71875 16.2265625 C-7.73232544 15.34835846 -7.74590088 14.47015442 -7.7598877 13.56533813 C-7.77660522 12.74794159 -7.79332275 11.93054504 -7.81054688 11.08837891 C-7.82307495 10.36969635 -7.83560303 9.65101379 -7.84851074 8.91055298 C-7.94064814 6.7776358 -7.94064814 6.7776358 -9 4 C-9.66 3.67 -10.32 3.34 -11 3 C-12.16425976 5.32851952 -12.15457992 6.76280184 -12.20532227 9.35791016 C-12.22526749 10.25869293 -12.24521271 11.15947571 -12.26576233 12.08755493 C-12.29083107 13.54855118 -12.29083107 13.54855118 -12.31640625 15.0390625 C-12.33718735 16.03505463 -12.35796844 17.03104675 -12.37937927 18.05722046 C-12.44489042 21.24640854 -12.50376704 24.43568058 -12.5625 27.625 C-12.60568373 29.78386293 -12.64929797 31.9427173 -12.69335938 34.1015625 C-12.80057336 39.4009523 -12.90233685 44.70042606 -13 50 C-14.65614657 50.38218767 -16.32457024 50.71395102 -18 51 C-19.59865963 49.40134037 -19.16483531 47.69543968 -19.20532227 45.48022461 C-19.2352401 44.03884377 -19.2352401 44.03884377 -19.26576233 42.56834412 C-19.28247482 41.523564 -19.29918732 40.47878387 -19.31640625 39.40234375 C-19.33718735 38.33834854 -19.35796844 37.27435333 -19.37937927 36.17811584 C-19.44499254 32.7646456 -19.50381423 29.35109571 -19.5625 25.9375 C-19.60567403 23.62954891 -19.64928794 21.321606 -19.69335938 19.01367188 C-19.80068584 13.34253318 -19.90242992 7.67131448 -20 2 C-19.34 1.67 -18.68 1.34 -18 1 C-22.84167054 0.44439846 -27.62133724 -0.07174504 -32.5 0 C-36 0 -36 0 -38 -1 C-38 -0.34 -38 0.32 -38 1 C-39.175625 1.12375 -40.35125 1.2475 -41.5625 1.375 C-45.54120426 1.86435935 -49.17766559 2.8055205 -53 4 C-53.33 3.01 -53.66 2.02 -54 1 C-39.45790454 -8.14074572 -15.7034761 -5.23449203 0 0 Z " fill="#000000" transform="translate(272,323)"/>
<path d="M0 0 C2.5625 1.5 2.5625 1.5 4 3 C4.33 2.34 4.66 1.68 5 1 C9.29 1 13.58 1 18 1 C18.07442028 7.68942866 18.12873031 14.37861375 18.16479492 21.06835938 C18.17983716 23.34183961 18.20027603 25.61529104 18.22631836 27.88867188 C18.26290221 31.16543711 18.27977248 34.44181706 18.29296875 37.71875 C18.30845261 38.72740112 18.32393646 39.73605225 18.33988953 40.77526855 C18.34133458 46.89998781 17.63485557 51.44133265 15 57 C10.62402208 61.37597792 5.90646672 61.73368633 -0.02734375 62.03515625 C-6.45776163 61.95910663 -11.25844133 60.59787508 -16 56 C-17.35439668 53.29120665 -17.06501451 50.99066732 -17 48 C-15.06440687 47.86495862 -13.126128 47.76798871 -11.1875 47.6875 C-10.10855469 47.62949219 -9.02960937 47.57148438 -7.91796875 47.51171875 C-5 48 -5 48 -3.11328125 50.51953125 C-2.74589844 51.33808594 -2.37851562 52.15664062 -2 53 C0.475 52.505 0.475 52.505 3 52 C4.1577506 48.52674819 4.06866652 45.63932552 4 42 C3.44183594 42.32355469 2.88367188 42.64710938 2.30859375 42.98046875 C-2.49592552 45.10226152 -8.01761645 44.6326756 -12.9375 43.0625 C-17.63146528 38.36853472 -18.3787661 31.28765916 -18.41015625 24.89453125 C-18.39855469 24.10433594 -18.38695312 23.31414062 -18.375 22.5 C-18.38660156 21.70980469 -18.39820313 20.91960937 -18.41015625 20.10546875 C-18.37994938 13.95333567 -17.6656096 7.18660259 -13.58349609 2.30664062 C-9.77427322 -0.83658491 -4.67757716 -0.5065968 0 0 Z M-2 8 C-5.6295774 12.67620158 -5.45259095 16.9026709 -5.375 22.5625 C-5.38660156 23.41263672 -5.39820313 24.26277344 -5.41015625 25.13867188 C-5.40111356 30.10021878 -5.40111356 30.10021878 -3.4765625 34.58984375 C-2.74566406 35.28787109 -2.74566406 35.28787109 -2 36 C-0.35 35.67 1.3 35.34 3 35 C6.10784456 26.25918718 5.65827985 17.80555201 3 9 C1.35 8.67 -0.3 8.34 -2 8 Z " fill="#000000" transform="translate(968,170)"/>
<path d="M0 0 C2.5625 1.5 2.5625 1.5 4 3 C4.33 2.34 4.66 1.68 5 1 C9.29 1 13.58 1 18 1 C18.07442028 7.68942866 18.12873031 14.37861375 18.16479492 21.06835938 C18.17983716 23.34183961 18.20027603 25.61529104 18.22631836 27.88867188 C18.26290221 31.16543711 18.27977248 34.44181706 18.29296875 37.71875 C18.30845261 38.72740112 18.32393646 39.73605225 18.33988953 40.77526855 C18.34133458 46.89998781 17.63485557 51.44133265 15 57 C10.62402208 61.37597792 5.90646672 61.73368633 -0.02734375 62.03515625 C-6.45776163 61.95910663 -11.25844133 60.59787508 -16 56 C-17.35439668 53.29120665 -17.06501451 50.99066732 -17 48 C-15.06440687 47.86495862 -13.126128 47.76798871 -11.1875 47.6875 C-10.10855469 47.62949219 -9.02960937 47.57148438 -7.91796875 47.51171875 C-5 48 -5 48 -3.11328125 50.51953125 C-2.74589844 51.33808594 -2.37851562 52.15664062 -2 53 C0.475 52.505 0.475 52.505 3 52 C4.1577506 48.52674819 4.06866652 45.63932552 4 42 C3.44183594 42.32355469 2.88367188 42.64710938 2.30859375 42.98046875 C-2.49592552 45.10226152 -8.01761645 44.6326756 -12.9375 43.0625 C-17.63146528 38.36853472 -18.3787661 31.28765916 -18.41015625 24.89453125 C-18.39855469 24.10433594 -18.38695312 23.31414062 -18.375 22.5 C-18.38660156 21.70980469 -18.39820313 20.91960937 -18.41015625 20.10546875 C-18.37994938 13.95333567 -17.6656096 7.18660259 -13.58349609 2.30664062 C-9.77427322 -0.83658491 -4.67757716 -0.5065968 0 0 Z M-2 8 C-5.6295774 12.67620158 -5.45259095 16.9026709 -5.375 22.5625 C-5.38660156 23.41263672 -5.39820313 24.26277344 -5.41015625 25.13867188 C-5.40111356 30.10021878 -5.40111356 30.10021878 -3.4765625 34.58984375 C-2.74566406 35.28787109 -2.74566406 35.28787109 -2 36 C-0.35 35.67 1.3 35.34 3 35 C6.10784456 26.25918718 5.65827985 17.80555201 3 9 C1.35 8.67 -0.3 8.34 -2 8 Z " fill="#000000" transform="translate(668,170)"/>
<path d="M0 0 C0 4.29 0 8.58 0 13 C1.98 13 3.96 13 6 13 C6 15.64 6 18.28 6 21 C4.02 21 2.04 21 0 21 C0 29.91 0 38.82 0 48 C1.98 48 3.96 48 6 48 C6 50.97 6 53.94 6 57 C-6.89488342 57.68874748 -6.89488342 57.68874748 -10.75 55.125 C-13.50993713 52.51839272 -13.96914013 51.81032045 -14.11352539 48.01904297 C-14.10828857 46.77268066 -14.10305176 45.52631836 -14.09765625 44.2421875 C-14.0962413 43.57913605 -14.09482635 42.91608459 -14.09336853 42.23294067 C-14.08776754 40.11358137 -14.075215 37.99432741 -14.0625 35.875 C-14.05748512 34.43880361 -14.05292219 33.00260556 -14.04882812 31.56640625 C-14.03779782 28.04423655 -14.02053259 24.52212855 -14 21 C-15.98 21 -17.96 21 -20 21 C-20 21.66 -20 22.32 -20 23 C-20.62648438 23.10957031 -21.25296875 23.21914062 -21.8984375 23.33203125 C-23.12433594 23.56986328 -23.12433594 23.56986328 -24.375 23.8125 C-25.18710937 23.96332031 -25.99921875 24.11414063 -26.8359375 24.26953125 C-29.35820641 24.87544942 -29.35820641 24.87544942 -31 28 C-31.3696435 31.10208984 -31.3696435 31.10208984 -31.4140625 34.63671875 C-31.47207031 36.58481445 -31.47207031 36.58481445 -31.53125 38.57226562 C-31.56270517 39.94400573 -31.59395251 41.31575061 -31.625 42.6875 C-31.66319197 44.07098785 -31.70224442 45.45445223 -31.7421875 46.83789062 C-31.83660267 50.22503472 -31.91939572 53.61249911 -32 57 C-36.62 57 -41.24 57 -46 57 C-46 42.48 -46 27.96 -46 13 C-41.71 13 -37.42 13 -33 13 C-32.67 13.66 -32.34 14.32 -32 15 C-30.97326172 14.24783203 -30.97326172 14.24783203 -29.92578125 13.48046875 C-26.3023323 11.64697455 -24.18968658 11.8678126 -20.1875 12.3125 C-19.02605469 12.43238281 -17.86460937 12.55226563 -16.66796875 12.67578125 C-15.78753906 12.78277344 -14.90710938 12.88976563 -14 13 C-14 10.36 -14 7.72 -14 5 C-12.04350603 4.16235732 -10.08474444 3.33000941 -8.125 2.5 C-7.03445313 2.0359375 -5.94390625 1.571875 -4.8203125 1.09375 C-2 0 -2 0 0 0 Z " fill="#000000" transform="translate(789,45)"/>
<path d="M0 0 C3.53367173 1.6106323 5.50301695 3.9169197 7.1328125 7.46875 C8.35783106 12.45711385 8.32881946 17.25721859 8.3125 22.375 C8.32861328 23.37789062 8.34472656 24.38078125 8.36132812 25.4140625 C8.36577474 32.20849442 7.92932427 38.50734414 3.375 43.9375 C-0.30034548 45.5817335 -3.97757449 46.28776294 -8 46 C-10.31 45.01 -12.62 44.02 -15 43 C-15.33 49.6 -15.66 56.2 -16 63 C-20.62 63 -25.24 63 -30 63 C-30 42.54 -30 22.08 -30 1 C-24.33333333 1 -18.66666667 1 -13 1 C-9.02789575 -0.98605212 -4.31879526 -0.53604229 0 0 Z M-13 8 C-16.62551098 11.62551098 -16.15810194 16.40302365 -16.1875 21.3125 C-16.36740806 29.69252638 -16.36740806 29.69252638 -13 37 C-11.33382885 37.04063832 -9.66611905 37.042721 -8 37 C-5.17907423 32.16603241 -5.66995579 27.39374872 -5.6875 21.9375 C-5.67138672 20.93138672 -5.65527344 19.92527344 -5.63867188 18.88867188 C-5.63802734 17.92380859 -5.63738281 16.95894531 -5.63671875 15.96484375 C-5.63373779 15.0843335 -5.63075684 14.20382324 -5.62768555 13.29663086 C-5.83600342 10.95315429 -5.83600342 10.95315429 -7.27270508 9.18969727 C-9.19947696 7.62184329 -9.19947696 7.62184329 -13 8 Z " fill="#000000" transform="translate(678,57)"/>
<path d="M0 0 C3.29198415 1.77767144 4.46234839 3.0322271 6.25 6.25 C9.05810657 16.54639076 9.31226268 28.80122508 6 39 C4.17686951 42.01759529 2.76883942 43.51672951 -0.1875 45.375 C-4.21115504 46.26914557 -7.99334757 45.93038371 -12 45 C-12.99 44.34 -13.98 43.68 -15 43 C-15.33 49.6 -15.66 56.2 -16 63 C-20.62 63 -25.24 63 -30 63 C-30 42.54 -30 22.08 -30 1 C-25.71 1 -21.42 1 -17 1 C-16.67 1.66 -16.34 2.32 -16 3 C-15.46246094 2.51402344 -14.92492187 2.02804688 -14.37109375 1.52734375 C-10.02376558 -1.2729945 -4.98482141 -0.6137263 0 0 Z M-14.73046875 9.37890625 C-16.71362315 13.47335733 -16.39299922 17.45208368 -16.3125 21.9375 C-16.31572266 22.83146484 -16.31894531 23.72542969 -16.32226562 24.64648438 C-16.28522312 29.1825076 -16.15372647 32.88990047 -14 37 C-11.58354218 37.16687448 -11.58354218 37.16687448 -9 37 C-4.99098441 32.99098441 -5.78435789 27.40944723 -5.75 22.0625 C-5.729375 21.26392578 -5.70875 20.46535156 -5.6875 19.64257812 C-5.65689949 15.0257267 -5.76273322 11.60911499 -9 8 C-12.84739619 7.58454211 -12.84739619 7.58454211 -14.73046875 9.37890625 Z " fill="#000000" transform="translate(241,57)"/>
<path d="M0 0 C11.55 0 23.1 0 35 0 C35 3.63 35 7.26 35 11 C28.07 11 21.14 11 14 11 C14 15.62 14 20.24 14 25 C20.6 25 27.2 25 34 25 C34 28.3 34 31.6 34 35 C27.4 35 20.8 35 14 35 C14 40.94 14 46.88 14 53 C21.26 53 28.52 53 36 53 C36 56.3 36 59.6 36 63 C24.12 63 12.24 63 0 63 C0 42.21 0 21.42 0 0 Z " fill="#000000" transform="translate(563,152)"/>
<path d="M0 0 C4.29 0 8.58 0 13 0 C13 20.79 13 41.58 13 63 C9.04 63 5.08 63 1 63 C0.67 62.34 0.34 61.68 0 61 C-0.845625 61.495 -1.69125 61.99 -2.5625 62.5 C-6.44294451 64.19328488 -8.80900264 64.45719971 -13 64 C-16.68773373 62.32375739 -18.85783496 60.42746406 -21 57 C-22.69652809 51.91041573 -22.22678333 46.57822643 -22.25 41.25 C-22.270625 40.08210938 -22.29125 38.91421875 -22.3125 37.7109375 C-22.37264062 24.4499303 -22.37264062 24.4499303 -17.125 19.08203125 C-14.57430841 17.7832416 -12.85281052 17.63096565 -10 17.6875 C-9.154375 17.69136719 -8.30875 17.69523437 -7.4375 17.69921875 C-5 18 -5 18 -1 20 C-0.67 13.4 -0.34 6.8 0 0 Z M-7.625 27.1875 C-11.7302032 32.59890422 -10.48217023 42.11212108 -9.69140625 48.48828125 C-9.03062658 51.68692267 -8.60260641 53.57463077 -5.875 55.5 C-5.25625 55.665 -4.6375 55.83 -4 56 C-0.75150023 54.27773504 -0.75150023 54.27773504 0 51 C0.25394579 47.52517506 0.23126084 44.04564065 0.25 40.5625 C0.270625 39.60794922 0.29125 38.65339844 0.3125 37.66992188 C0.32023437 36.28836914 0.32023437 36.28836914 0.328125 34.87890625 C0.3374707 34.0391626 0.34681641 33.19941895 0.35644531 32.33422852 C-0.0840861 29.44935125 -0.96382317 28.07047097 -3 26 C-5.93174698 25.70499171 -5.93174698 25.70499171 -7.625 27.1875 Z " fill="#000000" transform="translate(382,152)"/>
<path d="M0 0 C0.74701172 -0.020625 1.49402344 -0.04125 2.26367188 -0.0625 C7.95015085 -0.10244015 12.00714663 1.03177653 16.5 4.75 C19.41305899 8.42965346 18.90746627 12.9632783 19.00390625 17.41796875 C19.02468735 18.21278152 19.04546844 19.0075943 19.06687927 19.82649231 C19.13222087 22.36340763 19.19118808 24.90042573 19.25 27.4375 C19.29319986 29.15821372 19.33681463 30.87891708 19.38085938 32.59960938 C19.48788648 36.81630113 19.58919724 41.0330962 19.6875 45.25 C17.56311661 45.33078641 15.4378677 45.38909141 13.3125 45.4375 C12.12914062 45.47230469 10.94578125 45.50710937 9.7265625 45.54296875 C8.22222656 45.39794922 8.22222656 45.39794922 6.6875 45.25 C6.0275 44.26 5.3675 43.27 4.6875 42.25 C4.213125 42.724375 3.73875 43.19875 3.25 43.6875 C-0.91991499 46.23013109 -5.56134548 46.88894376 -10.34765625 45.77734375 C-14.0323825 44.34569852 -16.37728722 42.69037827 -18.3125 39.25 C-20.04453805 34.05388584 -19.94637005 29.11639515 -18.1875 23.9375 C-15.51315368 20.10427028 -12.4976521 17.97838403 -8.0625 16.5 C-3.81367747 16.11374341 0.42467815 16.17550408 4.6875 16.25 C4.3575 13.94 4.0275 11.63 3.6875 9.25 C0.21602158 8.50042843 0.21602158 8.50042843 -3.3125 8.25 C-3.6425 10.23 -3.9725 12.21 -4.3125 14.25 C-8.9325 14.25 -13.5525 14.25 -18.3125 14.25 C-16.96485081 5.91907776 -16.96485081 5.91907776 -13.875 2.75 C-9.29320958 0.06797634 -5.16989766 0.03513949 0 0 Z M-4.25 25.25 C-6.03203537 28.60441952 -5.61108742 31.48779845 -5.3125 35.25 C-3.49046419 37.47966747 -3.49046419 37.47966747 -0.875 37.5625 C1.67605804 37.46148648 1.67605804 37.46148648 3.3359375 36.0546875 C5.15612859 33.62425893 4.99189294 32.06275214 4.875 29.0625 C4.83439453 27.71091797 4.83439453 27.71091797 4.79296875 26.33203125 C4.74076172 25.30142578 4.74076172 25.30142578 4.6875 24.25 C0.06652139 23.89420357 0.06652139 23.89420357 -4.25 25.25 Z " fill="#000000" transform="translate(713.3125,56.75)"/>
<path d="M0 0 C0.74701172 -0.020625 1.49402344 -0.04125 2.26367188 -0.0625 C7.95015085 -0.10244015 12.00714663 1.03177653 16.5 4.75 C19.41305899 8.42965346 18.90746627 12.9632783 19.00390625 17.41796875 C19.02468735 18.21278152 19.04546844 19.0075943 19.06687927 19.82649231 C19.13222087 22.36340763 19.19118808 24.90042573 19.25 27.4375 C19.29319986 29.15821372 19.33681463 30.87891708 19.38085938 32.59960938 C19.48788648 36.81630113 19.58919724 41.0330962 19.6875 45.25 C17.56311661 45.33078641 15.4378677 45.38909141 13.3125 45.4375 C12.12914063 45.47230469 10.94578125 45.50710937 9.7265625 45.54296875 C8.22222656 45.39794922 8.22222656 45.39794922 6.6875 45.25 C6.0275 44.26 5.3675 43.27 4.6875 42.25 C4.213125 42.724375 3.73875 43.19875 3.25 43.6875 C-0.91991499 46.23013109 -5.56134548 46.88894376 -10.34765625 45.77734375 C-14.0323825 44.34569852 -16.37728722 42.69037827 -18.3125 39.25 C-20.04453805 34.05388584 -19.94637005 29.11639515 -18.1875 23.9375 C-15.51315368 20.10427028 -12.4976521 17.97838403 -8.0625 16.5 C-3.81367747 16.11374341 0.42467815 16.17550408 4.6875 16.25 C4.3575 13.94 4.0275 11.63 3.6875 9.25 C0.21602158 8.50042843 0.21602158 8.50042843 -3.3125 8.25 C-3.6425 10.23 -3.9725 12.21 -4.3125 14.25 C-8.9325 14.25 -13.5525 14.25 -18.3125 14.25 C-16.96485081 5.91907776 -16.96485081 5.91907776 -13.875 2.75 C-9.29320958 0.06797634 -5.16989766 0.03513949 0 0 Z M-4.25 25.25 C-6.03203537 28.60441952 -5.61108742 31.48779845 -5.3125 35.25 C-3.49046419 37.47966747 -3.49046419 37.47966747 -0.875 37.5625 C1.67605804 37.46148648 1.67605804 37.46148648 3.3359375 36.0546875 C5.15612859 33.62425893 4.99189294 32.06275214 4.875 29.0625 C4.83439453 27.71091797 4.83439453 27.71091797 4.79296875 26.33203125 C4.74076172 25.30142578 4.74076172 25.30142578 4.6875 24.25 C0.06652139 23.89420357 0.06652139 23.89420357 -4.25 25.25 Z " fill="#000000" transform="translate(113.3125,56.75)"/>
<path d="M0 0 C4.95 0 9.9 0 15 0 C15.09907944 7.27738499 15.17157001 14.55437492 15.21972656 21.83227539 C15.23980771 24.30662885 15.26707823 26.78093505 15.30175781 29.25512695 C15.35042778 32.81733888 15.37300454 36.37892181 15.390625 39.94140625 C15.41127014 41.04271378 15.43191528 42.1440213 15.45318604 43.27870178 C15.45506756 49.75887663 14.8847842 53.73938298 11 59 C9.03515625 60.5234375 9.03515625 60.5234375 7.0625 61.375 C6.08990234 61.81972656 6.08990234 61.81972656 5.09765625 62.2734375 C0.29681805 63.93629766 -3.87310564 64.07992797 -8.9375 63.75 C-10.12214844 63.68296875 -11.30679687 63.6159375 -12.52734375 63.546875 C-17.087727 62.82870441 -20.62921569 61.46532115 -23.8125 58.0625 C-26.87184096 52.74890781 -26.07084999 46.95139886 -26 41 C-21.05 41 -16.1 41 -11 41 C-10.77213542 43.27864583 -10.54427083 45.55729167 -10.31640625 47.8359375 C-10.10909886 50.04272805 -10.10909886 50.04272805 -9 52 C-6.61915122 52.84298574 -6.61915122 52.84298574 -4 53 C-3.01 52.34 -2.02 51.68 -1 51 C-0.52376333 48.74420102 -0.52376333 48.74420102 -0.56762695 46.09130859 C-0.54783279 45.07040131 -0.52803864 44.04949402 -0.50764465 42.99765015 C-0.50125473 41.89240997 -0.49486481 40.7871698 -0.48828125 39.6484375 C-0.47033005 38.5192691 -0.45237885 37.39010071 -0.43388367 36.22671509 C-0.37957112 32.60951507 -0.34581734 28.99244854 -0.3125 25.375 C-0.27934548 22.92706467 -0.2448576 20.479147 -0.20898438 18.03125 C-0.12383241 12.02092937 -0.05712105 6.01064977 0 0 Z " fill="#000000" transform="translate(349,39)"/>
<path d="M0 0 C0.73412109 -0.02449219 1.46824219 -0.04898438 2.22460938 -0.07421875 C7.83562508 -0.10409106 11.07171345 1.17268811 15.6875 4.375 C20.72488626 11.09151501 19.6875 16.68181808 19.6875 25.375 C11.4375 25.375 3.1875 25.375 -5.3125 25.375 C-4.78353163 31.39468036 -4.78353163 31.39468036 -2.3125 36.375 C-0.64632885 36.41563832 1.02138095 36.417721 2.6875 36.375 C3.6775 34.065 4.6675 31.755 5.6875 29.375 C10.3075 29.375 14.9275 29.375 19.6875 29.375 C18.02263514 39.51554054 18.02263514 39.51554054 12.6875 43.375 C4.55921602 47.14176575 -2.61148359 47.09970411 -11.07421875 44.3515625 C-15.21954046 42.54295791 -16.70625472 39.82998867 -18.38671875 35.796875 C-19.56566455 31.43925253 -19.64256275 27.43005101 -19.625 22.9375 C-19.64111328 22.11701172 -19.65722656 21.29652344 -19.67382812 20.45117188 C-19.67898281 13.9923507 -18.63410675 9.14594999 -14.375 4.0625 C-9.79732557 0.31713001 -5.81455956 0.0100511 0 0 Z M-4.125 10.0625 C-5.69317057 12.68304263 -5.69317057 12.68304263 -5.3125 17.375 C-1.6825 17.375 1.9475 17.375 5.6875 17.375 C5.35789784 12.35964948 5.35789784 12.35964948 2.6875 8.375 C-0.48098931 7.88754011 -1.73907852 7.84112483 -4.125 10.0625 Z " fill="#000000" transform="translate(619.3125,56.625)"/>
<path d="M0 0 C0.69931641 -0.020625 1.39863281 -0.04125 2.11914062 -0.0625 C6.91398492 -0.09838284 10.1413266 0.68061986 14.1875 3.25 C19.83787334 10.58021406 19.27662118 16.24876064 19.1875 25.25 C10.9375 25.25 2.6875 25.25 -5.8125 25.25 C-5.1525 28.88 -4.4925 32.51 -3.8125 36.25 C-1.8325 36.25 0.1475 36.25 2.1875 36.25 C3.1775 33.94 4.1675 31.63 5.1875 29.25 C9.8075 29.25 14.4275 29.25 19.1875 29.25 C18.75327288 34.67783897 17.71407136 38.05623946 14.1875 42.25 C7.90278406 46.12780345 1.18956237 47.34151533 -6.0859375 45.75390625 C-11.14425836 44.26665909 -14.60652716 42.62178114 -17.8125 38.25 C-21.32329782 29.22223417 -21.44544744 17.08553402 -17.8671875 8.0546875 C-13.77159285 1.04666999 -7.548431 0.05474837 0 0 Z M-4.625 10.5 C-6.07679068 13.3628017 -6.07679068 13.3628017 -5.8125 17.25 C-2.1825 17.25 1.4475 17.25 5.1875 17.25 C5.53528172 13.1039119 5.53528172 13.1039119 4 9.375 C0.43239747 7.16062601 -1.95885468 7.19030236 -4.625 10.5 Z " fill="#000000" transform="translate(887.8125,56.75)"/>
<path d="M0 0 C0.69931641 -0.020625 1.39863281 -0.04125 2.11914062 -0.0625 C6.91398492 -0.09838284 10.1413266 0.68061986 14.1875 3.25 C19.83787334 10.58021406 19.27662118 16.24876064 19.1875 25.25 C10.9375 25.25 2.6875 25.25 -5.8125 25.25 C-5.1525 28.88 -4.4925 32.51 -3.8125 36.25 C-1.8325 36.25 0.1475 36.25 2.1875 36.25 C3.1775 33.94 4.1675 31.63 5.1875 29.25 C9.8075 29.25 14.4275 29.25 19.1875 29.25 C18.75327288 34.67783897 17.71407136 38.05623946 14.1875 42.25 C7.90278406 46.12780345 1.18956237 47.34151533 -6.0859375 45.75390625 C-11.14425836 44.26665909 -14.60652716 42.62178114 -17.8125 38.25 C-21.32329782 29.22223417 -21.44544744 17.08553402 -17.8671875 8.0546875 C-13.77159285 1.04666999 -7.548431 0.05474837 0 0 Z M-4.625 10.5 C-6.07679068 13.3628017 -6.07679068 13.3628017 -5.8125 17.25 C-2.1825 17.25 1.4475 17.25 5.1875 17.25 C5.53528172 13.1039119 5.53528172 13.1039119 4 9.375 C0.43239747 7.16062601 -1.95885468 7.19030236 -4.625 10.5 Z " fill="#000000" transform="translate(276.8125,56.75)"/>
<path d="M0 0 C3.40780528 3.18794687 3.90041363 6.16500383 4.16455078 10.77661133 C4.16423671 12.31595429 4.1530909 13.85532183 4.1328125 15.39453125 C4.1299826 16.20871017 4.12715271 17.0228891 4.12423706 17.86174011 C4.11308584 20.449646 4.08799083 23.03719958 4.0625 25.625 C4.05246365 27.38476061 4.04333894 29.14452667 4.03515625 30.90429688 C4.0131631 35.20716598 3.97866836 39.50977336 3.9375 43.8125 C-0.6825 43.8125 -5.3025 43.8125 -10.0625 43.8125 C-10.08231934 42.82854248 -10.10213867 41.84458496 -10.12255859 40.83081055 C-10.19863987 37.17967161 -10.287353 33.52892991 -10.37988281 29.87817383 C-10.41816221 28.29817549 -10.45301697 26.71809031 -10.484375 25.13793945 C-10.53004876 22.86638355 -10.58803784 20.59542491 -10.6484375 18.32421875 C-10.65998871 17.61786789 -10.67153992 16.91151703 -10.68344116 16.1837616 C-10.79321048 12.53508607 -10.98392364 10.93036454 -13.0625 7.8125 C-14.7125 8.1425 -16.3625 8.4725 -18.0625 8.8125 C-18.3925 20.3625 -18.7225 31.9125 -19.0625 43.8125 C-23.6825 43.8125 -28.3025 43.8125 -33.0625 43.8125 C-33.0625 29.2925 -33.0625 14.7725 -33.0625 -0.1875 C-27.72916667 -0.1875 -22.39583333 -0.1875 -17.0625 -0.1875 C-11.58139428 -2.01453524 -5.39752099 -2.0929163 0 0 Z " fill="#000000" transform="translate(950.0625,58.1875)"/>
<path d="M0 0 C3.07365786 1.80803404 4.43019732 2.86039464 6 6 C6.08698228 8.91699274 6.11551923 11.80982548 6.09765625 14.7265625 C6.0962413 15.58937836 6.09482635 16.45219421 6.09336853 17.34115601 C6.08776188 20.1024723 6.07520827 22.86370812 6.0625 25.625 C6.05748586 27.4947905 6.0529228 29.36458226 6.04882812 31.234375 C6.03779029 35.82294777 6.0205212 40.41146023 6 45 C1.38 45 -3.24 45 -8 45 C-8.02505615 43.94498291 -8.0501123 42.88996582 -8.07592773 41.80297852 C-8.16984109 37.90229372 -8.27010034 34.00179375 -8.37231445 30.10131836 C-8.41572439 28.41060701 -8.45739489 26.71985009 -8.49731445 25.02905273 C-8.55487094 22.60386394 -8.61860649 20.17890585 -8.68359375 17.75390625 C-8.70030624 16.99348526 -8.71701874 16.23306427 -8.73423767 15.44960022 C-8.52091268 11.92917969 -8.52091268 11.92917969 -10 9 C-11.66617115 8.95936168 -13.33388095 8.957279 -15 9 C-16.5274639 12.0549278 -16.23991832 15.2763314 -16.31640625 18.6328125 C-16.33718735 19.38464813 -16.35796844 20.13648376 -16.37937927 20.91110229 C-16.44482705 23.31564085 -16.50373738 25.72028967 -16.5625 28.125 C-16.60568977 29.75391771 -16.64930421 31.38282422 -16.69335938 33.01171875 C-16.80050351 37.00769915 -16.90178433 41.00379059 -17 45 C-21.62 45 -26.24 45 -31 45 C-31 30.48 -31 15.96 -31 1 C-26.38 1 -21.76 1 -17 1 C-16.67 1.66 -16.34 2.32 -16 3 C-15.46246094 2.51402344 -14.92492187 2.02804688 -14.37109375 1.52734375 C-10.0326741 -1.26725606 -4.97541479 -0.63212237 0 0 Z " fill="#000000" transform="translate(479,57)"/>
<path d="M0 0 C4.77391014 4.33991831 6.91594135 9.14399604 7.28125 15.59375 C7.29174248 17.39583289 7.28102175 19.19815359 7.25 21 C7.26546875 21.89847656 7.2809375 22.79695313 7.296875 23.72265625 C7.25395516 31.094138 5.58996593 36.66003407 0.3125 41.9375 C-7.52909552 45.37679628 -16.18944742 45.38909177 -24.22265625 42.51171875 C-28.17182523 40.54093886 -29.67700169 37.87519594 -31.32421875 33.921875 C-32.50316455 29.56425253 -32.58006275 25.55505101 -32.5625 21.0625 C-32.57861328 20.24201172 -32.59472656 19.42152344 -32.61132812 18.57617188 C-32.61648053 12.12021145 -31.54102021 7.3255916 -27.375 2.1875 C-20.80978859 -3.02605024 -7.56027255 -3.73061484 0 0 Z M-16.47265625 7.87890625 C-19.19960509 11.90040663 -18.79310426 15.69212138 -18.6875 20.4375 C-18.69458984 21.33146484 -18.70167969 22.22542969 -18.70898438 23.14648438 C-18.66214608 27.99965232 -18.54414959 31.64497602 -15.25 35.5 C-12.75 36.25 -12.75 36.25 -10.25 35.5 C-7.52035983 32.60123815 -6.86755799 30.59571134 -6.8515625 26.65625 C-6.84769531 25.73972656 -6.84382813 24.82320312 -6.83984375 23.87890625 C-6.85144531 22.92886719 -6.86304688 21.97882813 -6.875 21 C-6.86339844 20.04996094 -6.85179687 19.09992188 -6.83984375 18.12109375 C-6.84371094 17.20457031 -6.84757812 16.28804687 -6.8515625 15.34375 C-6.85494629 14.51037109 -6.85833008 13.67699219 -6.86181641 12.81835938 C-7.34497719 9.93276517 -8.16900083 8.54742517 -10.25 6.5 C-14.11943666 6.14854868 -14.11943666 6.14854868 -16.47265625 7.87890625 Z " fill="#000000" transform="translate(405.25,58.5)"/>
<path d="M0 0 C1.29550781 -0.02578125 2.59101563 -0.0515625 3.92578125 -0.078125 C8.62338011 0.3316344 11.87833039 1.75275618 15.5 4.75 C18.41305899 8.42965346 17.90746627 12.9632783 18.00390625 17.41796875 C18.02468735 18.21278152 18.04546844 19.0075943 18.06687927 19.82649231 C18.13222087 22.36340763 18.19118808 24.90042573 18.25 27.4375 C18.29319986 29.15821372 18.33681463 30.87891708 18.38085938 32.59960938 C18.48788648 36.81630113 18.58919724 41.0330962 18.6875 45.25 C16.72983719 45.33082094 14.77123272 45.38910778 12.8125 45.4375 C11.17667969 45.48970703 11.17667969 45.48970703 9.5078125 45.54296875 C8.57710938 45.44628906 7.64640625 45.34960938 6.6875 45.25 C6.0275 44.26 5.3675 43.27 4.6875 42.25 C3.8625 42.91 3.0375 43.57 2.1875 44.25 C-1.77131475 46.87985094 -4.62696777 46.77061469 -9.3125 46.25 C-13.56100041 44.45618872 -15.28536034 42.33283057 -17.3125 38.25 C-17.7109375 35.09375 -17.7109375 35.09375 -17.6875 31.75 C-17.69523437 30.6465625 -17.70296875 29.543125 -17.7109375 28.40625 C-17.27116524 24.92256384 -16.38309627 23.05725072 -14.3125 20.25 C-8.77177489 16.16736044 -1.9411335 16.53520827 4.6875 16.25 C4.3575 13.94 4.0275 11.63 3.6875 9.25 C1.85049211 8.47757731 1.85049211 8.47757731 -0.3125 8.25 C-2.79865558 10.09159673 -3.31406904 11.25470711 -4.3125 14.25 C-8.2725 14.25 -12.2325 14.25 -16.3125 14.25 C-15.94480519 5.91558442 -15.94480519 5.91558442 -12.9375 2.75 C-8.51575792 0.22329024 -5.03744985 0.05979169 0 0 Z M-4.3125 26.25 C-5.14203271 29.69575127 -5.64099046 32.2097802 -4.5625 35.625 C-3.31531178 37.559697 -3.31531178 37.559697 -0.3125 38.25 C2.31593884 37.24500868 3.41153685 36.80192629 4.6875 34.25 C4.75746014 32.54297265 4.77190154 30.83331997 4.75 29.125 C4.74097656 28.21492188 4.73195313 27.30484375 4.72265625 26.3671875 C4.71105469 25.66851562 4.69945312 24.96984375 4.6875 24.25 C-0.1022321 24.01571687 -0.1022321 24.01571687 -4.3125 26.25 Z " fill="#000000" transform="translate(490.3125,169.75)"/>
<path d="M0 0 C3.61984803 1.89334737 5.68828756 4.06486269 7 8 C7.08518867 10.80426452 7.1158852 13.5829635 7.09765625 16.38671875 C7.0962413 17.20372757 7.09482635 18.02073639 7.09336853 18.86250305 C7.08777294 21.47087268 7.07522129 24.07915634 7.0625 26.6875 C7.05748443 28.45637897 7.05292162 30.22525928 7.04882812 31.99414062 C7.03780496 36.32946019 7.02054338 40.66471552 7 45 C2.71 45 -1.58 45 -6 45 C-6.01981934 44.05157227 -6.03963867 43.10314453 -6.06005859 42.12597656 C-6.13825761 38.59967636 -6.22495366 35.07379639 -6.31738281 31.54785156 C-6.35561266 30.02319342 -6.390476 28.49844693 -6.421875 26.97363281 C-6.46765662 24.77897619 -6.52562766 22.5849246 -6.5859375 20.390625 C-6.59748871 19.7113092 -6.60903992 19.03199341 -6.62094116 18.33209229 C-6.73234916 14.7416264 -7.05958376 12.06381512 -9 9 C-10.65 9 -12.3 9 -14 9 C-14.33 20.88 -14.66 32.76 -15 45 C-19.29 45 -23.58 45 -28 45 C-28 30.48 -28 15.96 -28 1 C-23.71 1 -19.42 1 -15 1 C-14.67 1.66 -14.34 2.32 -14 3 C-13.44054687 2.5153125 -12.88109375 2.030625 -12.3046875 1.53125 C-8.43284757 -1.0412267 -4.48216642 -0.76937975 0 0 Z " fill="#000000" transform="translate(748,170)"/>
<path d="M0 0 C0.82242188 -0.0309375 1.64484375 -0.061875 2.4921875 -0.09375 C6.22979532 0.74915265 8.80988779 2.50012776 11.125 5.5 C11.93972158 8.59350307 11.82694345 11.55736029 11.7109375 14.73828125 C11.70244781 15.61904831 11.69395813 16.49981537 11.68521118 17.40727234 C11.65172156 20.21027875 11.57645454 23.01036885 11.5 25.8125 C11.46989448 27.71675522 11.44251969 29.6210557 11.41796875 31.52539062 C11.3519452 36.1847111 11.24845728 40.84186179 11.125 45.5 C6.835 45.5 2.545 45.5 -1.875 45.5 C-2.205 33.95 -2.535 22.4 -2.875 10.5 C-6.51119656 9.41915479 -6.51119656 9.41915479 -8.875 9.5 C-9.205 21.38 -9.535 33.26 -9.875 45.5 C-14.165 45.5 -18.455 45.5 -22.875 45.5 C-22.875 30.98 -22.875 16.46 -22.875 1.5 C-18.585 1.5 -14.295 1.5 -9.875 1.5 C-9.545 2.16 -9.215 2.82 -8.875 3.5 C-8.31554687 3.0153125 -7.75609375 2.530625 -7.1796875 2.03125 C-4.5450753 0.28079579 -3.13205242 0.03902869 0 0 Z " fill="#000000" transform="translate(929.875,169.5)"/>
<path d="M0 0 C0.82242188 -0.0309375 1.64484375 -0.061875 2.4921875 -0.09375 C6.22979532 0.74915265 8.80988779 2.50012776 11.125 5.5 C11.93972158 8.59350307 11.82694345 11.55736029 11.7109375 14.73828125 C11.70244781 15.61904831 11.69395813 16.49981537 11.68521118 17.40727234 C11.65172156 20.21027875 11.57645454 23.01036885 11.5 25.8125 C11.46989448 27.71675522 11.44251969 29.6210557 11.41796875 31.52539062 C11.3519452 36.1847111 11.24845728 40.84186179 11.125 45.5 C6.835 45.5 2.545 45.5 -1.875 45.5 C-2.205 33.95 -2.535 22.4 -2.875 10.5 C-6.51119656 9.41915479 -6.51119656 9.41915479 -8.875 9.5 C-9.205 21.38 -9.535 33.26 -9.875 45.5 C-14.165 45.5 -18.455 45.5 -22.875 45.5 C-22.875 30.98 -22.875 16.46 -22.875 1.5 C-18.585 1.5 -14.295 1.5 -9.875 1.5 C-9.545 2.16 -9.215 2.82 -8.875 3.5 C-8.31554687 3.0153125 -7.75609375 2.530625 -7.1796875 2.03125 C-4.5450753 0.28079579 -3.13205242 0.03902869 0 0 Z " fill="#000000" transform="translate(629.875,169.5)"/>
<path d="M0 0 C3.78369581 2.25428614 5.59989058 4.87951765 6.9375 9.078125 C7.84945282 13.73559835 7.42631508 18.59151255 7.375 23.3125 C-0.215 23.3125 -7.805 23.3125 -15.625 23.3125 C-14.965 26.6125 -14.305 29.9125 -13.625 33.3125 C-11.975 33.6425 -10.325 33.9725 -8.625 34.3125 C-7.635 32.3325 -6.645 30.3525 -5.625 28.3125 C-1.335 28.3125 2.955 28.3125 7.375 28.3125 C6.90998083 33.05569553 6.33297979 36.50938313 3.375 40.3125 C-2.5675166 44.57892217 -8.49956955 44.8902376 -15.625 44.3125 C-20.39417383 43.35215442 -22.95843547 42.13288712 -26.0625 38.3125 C-29.01480451 32.64407534 -28.84249391 27.81992324 -28.875 21.5625 C-28.895625 20.58539063 -28.91625 19.60828125 -28.9375 18.6015625 C-28.96928844 12.70480654 -28.51170178 8.49481701 -25.625 3.3125 C-18.92189795 -3.05544695 -8.38479535 -3.87230772 0 0 Z M-14.375 7.375 C-16.25918409 10.29548534 -15.81663343 12.92697605 -15.625 16.3125 C-12.325 16.3125 -9.025 16.3125 -5.625 16.3125 C-5.40067159 13.02235003 -5.32119603 10.88972754 -6.875 7.9375 C-9.35286381 5.63662647 -11.4813813 5.61816007 -14.375 7.375 Z " fill="#000000" transform="translate(344.625,171.6875)"/>
<path d="M0 0 C5.19219932 3.72773284 7.21457598 6.3296489 8.4375 12.75 C8.4375 16.38 8.4375 20.01 8.4375 23.75 C0.5175 23.75 -7.4025 23.75 -15.5625 23.75 C-14.5725 27.38 -13.5825 31.01 -12.5625 34.75 C-10.9125 34.75 -9.2625 34.75 -7.5625 34.75 C-6.5725 32.77 -5.5825 30.79 -4.5625 28.75 C-0.2725 28.75 4.0175 28.75 8.4375 28.75 C8.21160179 34.28450607 6.92685813 37.27269168 3.09375 41.3046875 C-1.45486057 45.27399389 -7.03571387 45.18034742 -12.8046875 45.0703125 C-17.80089792 44.49001611 -21.82485251 42.67338178 -25.20703125 38.9296875 C-29.95919805 31.2878746 -29.38309134 19.58893925 -27.875 11 C-26.73696201 6.47189111 -24.93899834 3.9694519 -21.5625 0.75 C-15.01341312 -2.5471265 -6.82163424 -2.39355587 0 0 Z M-13.1875 7.8125 C-15.18316174 10.62456882 -15.24388504 13.37268141 -15.5625 16.75 C-11.9325 16.75 -8.3025 16.75 -4.5625 16.75 C-4.665625 15.47125 -4.76875 14.1925 -4.875 12.875 C-4.93300781 12.15570313 -4.99101563 11.43640625 -5.05078125 10.6953125 C-5.43643036 8.35480784 -5.43643036 8.35480784 -8.5625 6.75 C-11.4676032 6.47637532 -11.4676032 6.47637532 -13.1875 7.8125 Z " fill="#000000" transform="translate(835.5625,171.25)"/>
<path d="M0 0 C5.03624532 3.74490037 6.85527749 7.24368641 8.140625 13.23828125 C8.54460257 16.74119204 8.4375 20.28637154 8.4375 23.8125 C0.5175 23.8125 -7.4025 23.8125 -15.5625 23.8125 C-14.50010529 29.46786766 -14.50010529 29.46786766 -12.5625 34.8125 C-10.9125 34.8125 -9.2625 34.8125 -7.5625 34.8125 C-6.9025 32.8325 -6.2425 30.8525 -5.5625 28.8125 C-0.9425 28.8125 3.6775 28.8125 8.4375 28.8125 C7.35703155 34.12480322 6.55454144 38.02048814 2.4375 41.8125 C-3.6895861 45.32990128 -10.78648663 45.98603471 -17.61328125 44.30859375 C-21.82924874 42.72873441 -24.26935838 40.6344027 -26.5625 36.8125 C-29.98987608 27.55858458 -30.17507072 15.7412973 -26.4765625 6.546875 C-21.46653952 -2.95932245 -9.11778405 -3.03926135 0 0 Z M-14.5625 8.8125 C-15.13998803 10.77611864 -15.13998803 10.77611864 -15.25 12.9375 C-15.353125 14.21625 -15.45625 15.495 -15.5625 16.8125 C-11.9325 16.8125 -8.3025 16.8125 -4.5625 16.8125 C-4.91147661 12.06112512 -4.91147661 12.06112512 -6.9375 7.875 C-10.10421462 5.80445582 -11.57440512 6.82043675 -14.5625 8.8125 Z " fill="#000000" transform="translate(791.5625,171.1875)"/>
<path d="M0 0 C3.81550448 2.27323741 5.6767535 4.92959526 6.92871094 9.20214844 C7.72293468 12.95776662 7.60142207 16.73698065 7.625 20.5625 C7.645625 21.38363281 7.66625 22.20476562 7.6875 23.05078125 C7.72574199 29.0834555 7.17886651 35.14000357 2.9934082 39.87573242 C-2.03305544 44.3153941 -6.57398324 44.61856219 -13.0234375 44.5234375 C-16.93651298 44.20616111 -20.27458783 43.40167156 -23.625 41.3125 C-28.85225891 34.87895057 -28.83386891 29.48023564 -28.875 21.5625 C-28.895625 20.58539063 -28.91625 19.60828125 -28.9375 18.6015625 C-28.96928844 12.70480654 -28.51170178 8.49481701 -25.625 3.3125 C-18.92189795 -3.05544695 -8.38479535 -3.87230772 0 0 Z M-13.734375 7.62109375 C-16.74581776 11.90804429 -16.12468294 16.27284295 -16 21.375 C-15.99871094 22.38111328 -15.99742187 23.38722656 -15.99609375 24.42382812 C-16.06293807 30.20528136 -16.06293807 30.20528136 -13.625 35.3125 C-10.54134129 35.5627157 -10.54134129 35.5627157 -7.625 35.3125 C-5.14939396 30.5282931 -5.32701702 26.00013765 -5.375 20.75 C-5.36726563 19.89986328 -5.35953125 19.04972656 -5.3515625 18.17382812 C-5.35542969 16.94116211 -5.35542969 16.94116211 -5.359375 15.68359375 C-5.36163086 14.94036865 -5.36388672 14.19714355 -5.36621094 13.43139648 C-5.66330515 10.99886756 -6.34483991 9.39375405 -7.625 7.3125 C-10.31202755 5.87941864 -11.14137255 6.01247186 -13.734375 7.62109375 Z " fill="#000000" transform="translate(236.625,171.6875)"/>
<path d="M0 0 C4.95 0 9.9 0 15 0 C15 17.16 15 34.32 15 52 C21.93 52 28.86 52 36 52 C36 55.63 36 59.26 36 63 C24.12 63 12.24 63 0 63 C0 42.21 0 21.42 0 0 Z " fill="#000000" transform="translate(54,39)"/>
<path d="M0 0 C1.20269531 -0.02578125 2.40539062 -0.0515625 3.64453125 -0.078125 C8.60026139 0.38084008 11.85843303 2.02869522 15.5 5.375 C17.8479024 9.37513002 17.91208651 12.636824 18.1875 17.25 C13.8975 17.25 9.6075 17.25 5.1875 17.25 C4.5275 14.94 3.8675 12.63 3.1875 10.25 C1.35049211 9.47757731 1.35049211 9.47757731 -0.8125 9.25 C-3.00372479 10.8520435 -3.73488017 11.76641782 -4.16894531 14.47070312 C-4.15492676 15.73817383 -4.15492676 15.73817383 -4.140625 17.03125 C-4.13546875 17.95550781 -4.1303125 18.87976563 -4.125 19.83203125 C-4.104375 20.79496094 -4.08375 21.75789063 -4.0625 22.75 C-4.05734375 23.71292969 -4.0521875 24.67585938 -4.046875 25.66796875 C-4.01437151 31.0457293 -4.01437151 31.0457293 -2.8125 36.25 C-0.39604218 36.41687448 -0.39604218 36.41687448 2.1875 36.25 C4.82686201 33.99813012 4.82686201 33.99813012 5.1875 28.25 C9.4775 28.25 13.7675 28.25 18.1875 28.25 C18.50190578 33.49009642 18.12597184 36.84229224 15.1875 41.25 C8.79222803 46.2845758 3.11936946 46.89312455 -4.8125 46.25 C-9.58167383 45.28965442 -12.14593547 44.07038712 -15.25 40.25 C-18.18691861 34.61111627 -18.06406716 29.78983655 -18.125 23.5625 C-18.15400391 22.59376953 -18.18300781 21.62503906 -18.21289062 20.62695312 C-18.26862892 14.28564981 -17.46331321 9.53213441 -13.8125 4.25 C-9.61401365 0.30596736 -5.60411648 0.0716181 0 0 Z " fill="#000000" transform="translate(446.8125,169.75)"/>
<path d="M0 0 C0 4.29 0 8.58 0 13 C2.31 13 4.62 13 7 13 C7 15.64 7 18.28 7 21 C4.69 21 2.38 21 0 21 C0.33 29.91 0.66 38.82 1 48 C2.98 48 4.96 48 7 48 C7 50.97 7 53.94 7 57 C4.93816367 57.08150744 2.87538651 57.1394194 0.8125 57.1875 C-0.91033203 57.23970703 -0.91033203 57.23970703 -2.66796875 57.29296875 C-6.38790392 56.96589356 -8.09434298 56.31348512 -11 54 C-13.9175755 50.04670276 -14.35965952 47.25514484 -14.29296875 42.38671875 C-14.28330078 41.13955078 -14.27363281 39.89238281 -14.26367188 38.60742188 C-14.23853516 37.31384766 -14.21339844 36.02027344 -14.1875 34.6875 C-14.17396484 33.37458984 -14.16042969 32.06167969 -14.14648438 30.70898438 C-14.11117443 27.47223923 -14.0618528 24.23632895 -14 21 C-15.65 21 -17.3 21 -19 21 C-19 18.36 -19 15.72 -19 13 C-17.35 13 -15.7 13 -14 13 C-14 10.69 -14 8.38 -14 6 C-2.26213592 0 -2.26213592 0 0 0 Z " fill="#000000" transform="translate(509,45)"/>
<path d="M0 0 C0 4.29 0 8.58 0 13 C2.31 13 4.62 13 7 13 C7 15.64 7 18.28 7 21 C4.69 21 2.38 21 0 21 C0.33 29.58 0.66 38.16 1 47 C2.65 47.33 4.3 47.66 6 48 C6 50.97 6 53.94 6 57 C-6.9796748 57.56707317 -6.9796748 57.56707317 -12 54 C-14.45286296 50.32070555 -14.23228878 48.52622093 -14.1953125 44.14453125 C-14.19106766 43.15207649 -14.19106766 43.15207649 -14.18673706 42.13957214 C-14.17555918 40.03036263 -14.15045981 37.92158075 -14.125 35.8125 C-14.11496707 34.38086552 -14.10584176 32.94922436 -14.09765625 31.51757812 C-14.07562795 28.01158023 -14.04111485 24.50583187 -14 21 C-15.65 21 -17.3 21 -19 21 C-19 18.36 -19 15.72 -19 13 C-17.35 13 -15.7 13 -14 13 C-14 10.69 -14 8.38 -14 6 C-12.3970947 5.18501438 -10.79262722 4.37310073 -9.1875 3.5625 C-8.29417969 3.11003906 -7.40085937 2.65757813 -6.48046875 2.19140625 C-1.91803279 0 -1.91803279 0 0 0 Z " fill="#000000" transform="translate(978,45)"/>
<path d="M0 0 C3.66557961 2.68213142 6.1795593 5.51949597 6.9309082 10.14111328 C7.06401646 12.7304889 7.05908114 15.28305307 7 17.875 C7.00708984 18.7515625 7.01417969 19.628125 7.02148438 20.53125 C6.97076255 25.7126799 6.4423537 29.40069071 3.5625 33.875 C-0.69670483 37.61793758 -5.95535323 37.98073874 -11.4375 37.875 C-14.82283175 37.42678629 -17.66705747 36.90701718 -20.4375 34.875 C-24.29831386 29.43032666 -25.04572456 24.28159104 -24.875 17.75 C-24.88208984 16.97785156 -24.88917969 16.20570313 -24.89648438 15.41015625 C-24.84227877 10.51497279 -24.09140588 7.12514267 -21.4375 2.875 C-15.56335211 -2.44844652 -7.24782215 -2.37201452 0 0 Z M-12.10546875 7.41015625 C-13.94205411 10.80864705 -13.79951993 13.46899132 -13.75 17.3125 C-13.74613281 18.61058594 -13.74226563 19.90867188 -13.73828125 21.24609375 C-13.46100431 24.59142197 -12.88642102 26.87902387 -11.4375 29.875 C-9.02130177 30.12530977 -9.02130177 30.12530977 -6.4375 29.875 C-3.72367917 25.80426875 -4.10622359 22.65171888 -4.125 17.875 C-4.10888672 17.05515625 -4.09277344 16.2353125 -4.07617188 15.390625 C-4.07552734 14.60171875 -4.07488281 13.8128125 -4.07421875 13 C-4.07123779 12.28070313 -4.06825684 11.56140625 -4.06518555 10.8203125 C-4.54808304 8.29721266 -5.39656242 7.39784652 -7.4375 5.875 C-10.44741945 5.53639708 -10.44741945 5.53639708 -12.10546875 7.41015625 Z " fill="#000000" transform="translate(77.4375,178.125)"/>
<path d="M0 0 C4.29 0 8.58 0 13 0 C13 20.79 13 41.58 13 63 C8.71 63 4.42 63 0 63 C0 42.21 0 21.42 0 0 Z " fill="#000000" transform="translate(519,152)"/>
<path d="M0 0 C3.63 0 7.26 0 11 0 C13.31 5.94 15.62 11.88 18 18 C18.33 12.06 18.66 6.12 19 0 C21.31 0 23.62 0 26 0 C26 11.55 26 23.1 26 35 C22.7 35 19.4 35 16 35 C15.2272795 33.16746128 14.45693039 31.33392258 13.6875 29.5 C13.04361328 27.96859375 13.04361328 27.96859375 12.38671875 26.40625 C10.85073513 22.63335501 9.43032634 18.81420357 8 15 C7.67 21.6 7.34 28.2 7 35 C4.69 35 2.38 35 0 35 C0 23.45 0 11.9 0 0 Z " fill="#000000" transform="translate(612,308)"/>
<path d="M0 0 C0 3.63 0 7.26 0 11 C-2.31119792 11.74869792 -4.62239583 12.49739583 -6.93359375 13.24609375 C-8.96219588 13.82155494 -8.96219588 13.82155494 -10 15 C-10.15873955 17.21687994 -10.25133837 19.43855298 -10.31640625 21.66015625 C-10.33718735 22.32462265 -10.35796844 22.98908905 -10.37937927 23.6736908 C-10.44493658 25.80318543 -10.50378785 27.93280668 -10.5625 30.0625 C-10.60567939 31.50326847 -10.64929349 32.94402399 -10.69335938 34.38476562 C-10.80062393 37.9230404 -10.90187371 41.46145869 -11 45 C-15.29 45 -19.58 45 -24 45 C-24 30.48 -24 15.96 -24 1 C-20.04 1 -16.08 1 -12 1 C-11.67 1.66 -11.34 2.32 -11 3 C-10.29875 2.505 -9.5975 2.01 -8.875 1.5 C-5.62880281 -0.1936681 -3.60659844 -0.25162315 0 0 Z " fill="#000000" transform="translate(877,170)"/>
<path d="M0 0 C1 1 1 1 1.09765625 3.50390625 C1.08605469 4.51324219 1.07445312 5.52257812 1.0625 6.5625 C1.05347656 7.57441406 1.04445313 8.58632813 1.03515625 9.62890625 C1.02355469 10.41136719 1.01195312 11.19382812 1 12 C0.01 12 -0.98 12 -2 12 C-2.556875 10.906875 -3.11375 9.81375 -3.6875 8.6875 C-5.98655941 4.666177 -8.48716397 2.9531447 -12.8125 1.3125 C-20.76106927 0.1769901 -26.35899786 1.29840557 -33 6 C-37.52514679 11.32090752 -38.37291081 17.52914693 -38.2734375 24.2734375 C-37.63281448 30.66136417 -35.40030927 36.13763322 -30.625 40.5 C-25.40738949 44.42985983 -20.50545933 45.56081546 -14 45 C-7.61879548 43.72628131 -4.37795108 40.72037872 -0.4453125 35.64453125 C0.03164063 35.10183594 0.50859375 34.55914062 1 34 C1.66 34 2.32 34 3 34 C2.44516583 38.66060703 1.45003386 43.54996614 -2 47 C-12.83176006 49.48152363 -24.67548106 50.98769031 -35 46 C-39.64501168 42.80250359 -44.78598974 38.7758343 -46.62890625 33.234375 C-48.08066019 24.49328812 -48.21070789 15.86684312 -43.609375 8.0859375 C-32.82084326 -5.89725655 -15.33664344 -4.58910416 0 0 Z " fill="#000000" transform="translate(496,308)"/>
<path d="M0 0 C0 2.64 0 5.28 0 8 C-0.639375 8.185625 -1.27875 8.37125 -1.9375 8.5625 C-4.42126213 9.94246056 -4.42126213 9.94246056 -4.75 13.625 C-4.8325 14.73875 -4.915 15.8525 -5 17 C-3.35 17 -1.7 17 0 17 C0 19.31 0 21.62 0 24 C-1.65 24 -3.3 24 -5 24 C-5 33.9 -5 43.8 -5 54 C-8.63 54 -12.26 54 -16 54 C-16 44.1 -16 34.2 -16 24 C-17.65 24 -19.3 24 -21 24 C-21 21.69 -21 19.38 -21 17 C-19.35 17 -17.7 17 -16 17 C-16.04640625 16.26394531 -16.0928125 15.52789062 -16.140625 14.76953125 C-16.43518476 6.80589771 -16.43518476 6.80589771 -14.3125 2.875 C-9.93591441 -0.67358291 -5.45638671 -0.10698797 0 0 Z " fill="#000000" transform="translate(108,161)"/>
<path d="M0 0 C4.62 0 9.24 0 14 0 C14 14.52 14 29.04 14 44 C9.38 44 4.76 44 0 44 C0 29.48 0 14.96 0 0 Z " fill="#000000" transform="translate(422,58)"/>
<path d="M0 0 C3.63 0 7.26 0 11 0 C13.5790489 8.043673 16.10126213 16.09631489 18.3125 24.25 C18.63863281 25.45140625 18.96476563 26.6528125 19.30078125 27.890625 C20 31 20 31 20 35 C17.36 35 14.72 35 12 35 C10.74335022 32.09399739 10 30.20395416 10 27 C7.03 27 4.06 27 1 27 C0.7834375 28.7015625 0.7834375 28.7015625 0.5625 30.4375 C0 34 0 34 -1 35 C-3.67058851 35.14115161 -6.32432238 35.04247107 -9 35 C-7.58993195 27.15025111 -5.56723132 19.53889812 -3.375 11.875 C-2.88773438 10.15410156 -2.88773438 10.15410156 -2.390625 8.3984375 C-1.59716449 5.59798864 -0.79906258 2.79885555 0 0 Z M5 10 C4.34 13.63 3.68 17.26 3 21 C4.65 21 6.3 21 8 21 C7.34 17.37 6.68 13.74 6 10 C5.67 10 5.34 10 5 10 Z " fill="#000000" transform="translate(734,308)"/>
<path d="M0 0 C5.77449914 3.71513475 11.19268679 8.10302542 14.1796875 14.40234375 C13.8671875 16.71484375 13.8671875 16.71484375 13.1796875 18.40234375 C12.63441406 18.13679688 12.08914063 17.87125 11.52734375 17.59765625 C10.77324219 17.24445313 10.01914062 16.89125 9.2421875 16.52734375 C8.51128906 16.17929687 7.78039062 15.83125 7.02734375 15.47265625 C-0.59111819 12.60920142 -7.98035108 12.04482112 -16.0703125 12.08984375 C-17.08085693 12.09330811 -18.09140137 12.09677246 -19.13256836 12.1003418 C-28.88372642 12.24193503 -38.29305448 13.28598894 -46.8203125 18.40234375 C-46.56640625 16.0390625 -46.56640625 16.0390625 -45.8203125 13.40234375 C-38.58217099 7.73845524 -26.60531288 8.12964226 -17.8203125 7.40234375 C-25.04595113 4.77578258 -31.31008156 4.86178356 -38.8203125 6.40234375 C-37.44121588 2.99390287 -36.21467756 1.7349684 -32.8828125 0.21484375 C-32.19316406 -0.10871094 -31.50351563 -0.43226563 -30.79296875 -0.765625 C-22.02159205 -4.46523537 -8.61305832 -4.18731728 0 0 Z " fill="#000000" transform="translate(261.8203125,306.59765625)"/>
<path d="M0 0 C2 1.625 2 1.625 3 3.625 C3.039992 5.62460012 3.04346799 7.62547242 3 9.625 C0.36 9.625 -2.28 9.625 -5 9.625 C-5.66 8.305 -6.32 6.985 -7 5.625 C-7.99 5.955 -8.98 6.285 -10 6.625 C-9.64937903 9.42392257 -9.26525128 10.4088889 -7.0390625 12.22265625 C-6.24242187 12.70605469 -5.44578125 13.18945312 -4.625 13.6875 C0.96639476 17.12065281 0.96639476 17.12065281 3 19.625 C4.53956835 26.44308839 4.53956835 26.44308839 2.6875 30.5 C-0.04426853 33.94000481 -1.34689726 34.93896217 -5.6875 35.4375 C-10.74624414 35.84014968 -13.68681598 35.32074002 -18 32.625 C-20.0197356 29.28804553 -20.22008532 26.47649315 -20 22.625 C-17.03 22.625 -14.06 22.625 -11 22.625 C-10.67 24.275 -10.34 25.925 -10 27.625 C-8.68 27.625 -7.36 27.625 -6 27.625 C-6.30829875 24.48354203 -6.50300646 23.04576146 -8.9609375 20.96484375 C-9.75757813 20.50207031 -10.55421875 20.03929687 -11.375 19.5625 C-14.70576942 17.60418117 -16.9903696 15.97227082 -19 12.625 C-19.52770344 7.87566901 -19.70204741 5.76280098 -17.1875 1.6875 C-12.57695832 -2.65958216 -5.54972145 -2.54362233 0 0 Z " fill="#000000" transform="translate(699,308.375)"/>
<path d="M0 0 C4.29 0 8.58 0 13 0 C13 14.52 13 29.04 13 44 C8.71 44 4.42 44 0 44 C0 29.48 0 14.96 0 0 Z " fill="#000000" transform="translate(883,171)"/>
<path d="M0 0 C4.29 0 8.58 0 13 0 C13 14.52 13 29.04 13 44 C8.71 44 4.42 44 0 44 C0 29.48 0 14.96 0 0 Z " fill="#000000" transform="translate(696,171)"/>
<path d="M0 0 C4.29 0 8.58 0 13 0 C13 14.52 13 29.04 13 44 C8.71 44 4.42 44 0 44 C0 29.48 0 14.96 0 0 Z " fill="#000000" transform="translate(406,171)"/>
<path d="M0 0 C4.29 0 8.58 0 13 0 C13 14.52 13 29.04 13 44 C8.71 44 4.42 44 0 44 C0 29.48 0 14.96 0 0 Z " fill="#000000" transform="translate(185,171)"/>
<path d="M0 0 C2.9091534 1.26484931 4.46015566 2.25450067 6.3125 4.8125 C7.19072993 7.60686797 7.13228191 10.08979796 7 13 C4.36 13 1.72 13 -1 13 C-1.66 11.02 -2.32 9.04 -3 7 C-3.99 7.33 -4.98 7.66 -6 8 C-7.28901262 11.20771531 -7.13362001 14.51966616 -7.125 17.9375 C-7.12757813 18.95714844 -7.13015625 19.97679687 -7.1328125 21.02734375 C-7.00911936 23.79588725 -6.62526738 26.30539535 -6 29 C-4.68 29 -3.36 29 -2 29 C-1.67 27.02 -1.34 25.04 -1 23 C1.64 23 4.28 23 7 23 C7.29130874 27.95224859 7.22986308 31.10188939 4 35 C0.18922926 37.46579283 -3.49459618 37.21491419 -7.84375 36.61328125 C-11.23414149 35.64898512 -12.90683888 33.74727397 -15 31 C-16.37473284 26.87580148 -16.22391707 23.00748491 -16.25 18.6875 C-16.270625 17.84509766 -16.29125 17.00269531 -16.3125 16.13476562 C-16.34468158 10.98973625 -15.87254718 7.45071768 -13 3 C-9.02431708 -0.40772822 -5.02685705 -0.75301098 0 0 Z " fill="#000000" transform="translate(659,307)"/>
<path d="M0 0 C6.27 0 12.54 0 19 0 C19 1.98 19 3.96 19 6 C15.37 6 11.74 6 8 6 C8 8.31 8 10.62 8 13 C11.3 13 14.6 13 18 13 C18 15.31 18 17.62 18 20 C14.7 20 11.4 20 8 20 C8 22.97 8 25.94 8 29 C11.96 29 15.92 29 20 29 C20 30.98 20 32.96 20 35 C13.4 35 6.8 35 0 35 C0 23.45 0 11.9 0 0 Z " fill="#000000" transform="translate(778,308)"/>
<path d="M0 0 C7.92 0 15.84 0 24 0 C24 1.98 24 3.96 24 6 C21.36 6 18.72 6 16 6 C16 15.57 16 25.14 16 35 C13.36 35 10.72 35 8 35 C8 25.43 8 15.86 8 6 C5.36 6 2.72 6 0 6 C0 4.02 0 2.04 0 0 Z " fill="#000000" transform="translate(751,308)"/>
<path d="M0 0 C7.92 0 15.84 0 24 0 C24 1.98 24 3.96 24 6 C21.36 6 18.72 6 16 6 C16 15.57 16 25.14 16 35 C13.36 35 10.72 35 8 35 C8 25.43 8 15.86 8 6 C5.36 6 2.72 6 0 6 C0 4.02 0 2.04 0 0 Z " fill="#000000" transform="translate(704,308)"/>
<path d="M0 0 C1.65 0 3.3 0 5 0 C8.33333333 6.66666667 11.66666667 13.33333333 15 20 C15.33 13.4 15.66 6.8 16 0 C16.99 0 17.98 0 19 0 C19 9.57 19 19.14 19 29 C17.35 29 15.7 29 14 29 C11.03 22.73 8.06 16.46 5 10 C4.67 16.27 4.34 22.54 4 29 C2.68 29 1.36 29 0 29 C0 19.43 0 9.86 0 0 Z " fill="#000000" transform="translate(635,353)"/>
<path d="M0 0 C2.64 0 5.28 0 8 0 C7.67 15.84 7.34 31.68 7 48 C4.525 48.495 4.525 48.495 2 49 C0.40134037 47.40134037 0.83516469 45.69543968 0.79467773 43.48022461 C0.7647599 42.03884377 0.7647599 42.03884377 0.73423767 40.56834412 C0.71752518 39.523564 0.70081268 38.47878387 0.68359375 37.40234375 C0.66281265 36.33834854 0.64203156 35.27435333 0.62062073 34.17811584 C0.55500746 30.7646456 0.49618577 27.35109571 0.4375 23.9375 C0.39432597 21.62954891 0.35071206 19.321606 0.30664062 17.01367188 C0.19931416 11.34253318 0.09757008 5.67131448 0 0 Z " fill="#000000" transform="translate(231,325)"/>
<path d="M0 0 C0.99 0 1.98 0 3 0 C3 31.68 3 63.36 3 96 C2.01 96 1.02 96 0 96 C0 64.32 0 32.64 0 0 Z " fill="#000000" transform="translate(303,297)"/>
<path d="M0 0 C4.29 0 8.58 0 13 0 C16 4 16 4 16.0390625 6.3046875 C15.90242187 7.15289062 15.76578125 8.00109375 15.625 8.875 C14.77024551 15.6670814 15.35552931 22.20827043 16 29 C14.68 29 13.36 29 12 29 C11.67 24.71 11.34 20.42 11 16 C8.69 15.67 6.38 15.34 4 15 C4 19.62 4 24.24 4 29 C2.68 29 1.36 29 0 29 C0 19.43 0 9.86 0 0 Z M4 3 C4 5.97 4 8.94 4 12 C6.31 12 8.62 12 11 12 C12.35439668 9.29120665 12.06501451 6.99066732 12 4 C9.29120665 2.64560332 6.99066732 2.93498549 4 3 Z " fill="#000000" transform="translate(711,353)"/>
<path d="M0 0 C1.875 1.8125 1.875 1.8125 3 4 C3 5.32 3 6.64 3 8 C1.68 8 0.36 8 -1 8 C-1.33 6.68 -1.66 5.36 -2 4 C-3.98 4 -5.96 4 -8 4 C-8.41316831 6.34400973 -8.41316831 6.34400973 -8 9 C-5.85263936 11.06028084 -5.85263936 11.06028084 -3.0625 12.6875 C1.92584964 15.85169928 1.92584964 15.85169928 3 18 C3.26004123 21.51055666 3.38797265 24.13276702 1.9375 27.375 C-0.96673519 29.81081016 -3.25957491 29.93550991 -7 30 C-9.37633793 28.86349056 -11.14441029 27.85558971 -13 26 C-13.04080783 24.00041636 -13.04254356 21.99954746 -13 20 C-12.01 20 -11.02 20 -10 20 C-9.34 21.65 -8.68 23.3 -8 25 C-6.02 25 -4.04 25 -2 25 C-1.58730492 22.15790572 -1.58730492 22.15790572 -2 19 C-4.12428719 16.83642529 -4.12428719 16.83642529 -6.9375 15.25 C-11.93558282 12.12883436 -11.93558282 12.12883436 -13 10 C-13.28796546 6.68839719 -13.34590505 4.63992434 -11.75 1.6875 C-8.17605526 -1.75880385 -4.61765084 -1.27722257 0 0 Z " fill="#000000" transform="translate(745,353)"/>
<path d="M0 0 C0.99 0 1.98 0 3 0 C3.03758423 0.97610229 3.03758423 0.97610229 3.07592773 1.97192383 C3.19193702 4.91898046 3.31464115 7.8657213 3.4375 10.8125 C3.47681641 11.83666016 3.51613281 12.86082031 3.55664062 13.91601562 C3.59853516 14.89892578 3.64042969 15.88183594 3.68359375 16.89453125 C3.72025146 17.80050049 3.75690918 18.70646973 3.79467773 19.63989258 C3.9208205 22.15048782 3.9208205 22.15048782 5 25 C6.98 25 8.96 25 11 25 C12.77965702 21.91526116 13.28436571 19.56067048 13.4140625 16.015625 C13.45273437 15.08105469 13.49140625 14.14648438 13.53125 13.18359375 C13.5621875 12.21550781 13.593125 11.24742187 13.625 10.25 C13.66367187 9.26644531 13.70234375 8.28289062 13.7421875 7.26953125 C13.83628426 4.84653963 13.92192328 2.42355204 14 0 C14.99 0 15.98 0 17 0 C17.0871142 4.08319884 17.14043048 8.16615864 17.1875 12.25 C17.21263672 13.40886719 17.23777344 14.56773437 17.26367188 15.76171875 C17.27333984 16.87675781 17.28300781 17.99179687 17.29296875 19.140625 C17.3086792 20.16704102 17.32438965 21.19345703 17.34057617 22.25097656 C16.94603753 25.43556804 16.27884402 26.76278901 14 29 C9.50517355 30.08745801 7.28549071 30.57436819 3.0625 28.6875 C1 27 1 27 0 25 C-0.084915 23.1136088 -0.107193 21.22421485 -0.09765625 19.3359375 C-0.09443359 18.21445312 -0.09121094 17.09296875 -0.08789062 15.9375 C-0.07951172 14.761875 -0.07113281 13.58625 -0.0625 12.375 C-0.05798828 11.19164062 -0.05347656 10.00828125 -0.04882812 8.7890625 C-0.03701467 5.85932493 -0.02054258 2.92968728 0 0 Z " fill="#000000" transform="translate(612,353)"/>
<path d="M0 0 C4.62 0 9.24 0 14 0 C14 0.99 14 1.98 14 3 C10.7 3 7.4 3 4 3 C4 6.3 4 9.6 4 13 C7.3 13 10.6 13 14 13 C14 13.99 14 14.98 14 16 C10.7 16 7.4 16 4 16 C4 19.3 4 22.6 4 26 C7.3 26 10.6 26 14 26 C14 26.99 14 27.98 14 29 C9.38 29 4.76 29 0 29 C0 19.43 0 9.86 0 0 Z " fill="#000000" transform="translate(692,353)"/>
<path d="M0 0 C1.32 0.33 2.64 0.66 4 1 C5.65 7.27 7.3 13.54 9 20 C10.38296859 17.23406281 11.40496956 14.99430984 12.2890625 12.109375 C12.50820313 11.40039062 12.72734375 10.69140625 12.953125 9.9609375 C13.17484375 9.23132813 13.3965625 8.50171875 13.625 7.75 C13.85445312 7.00492187 14.08390625 6.25984375 14.3203125 5.4921875 C14.88332007 3.6624129 15.44208228 1.83133297 16 0 C16.99 0 17.98 0 19 0 C18.3850185 6.60132039 16.82360905 12.65462154 14.9375 19 C14.65583984 19.96550781 14.37417969 20.93101562 14.08398438 21.92578125 C13.39475721 24.28550816 12.69999989 26.64345085 12 29 C10.35 29 8.7 29 7 29 C5.82483331 24.919064 4.66134593 20.83488859 3.5 16.75 C3.16613281 15.59113281 2.83226562 14.43226563 2.48828125 13.23828125 C2.17246094 12.12324219 1.85664062 11.00820313 1.53125 9.859375 C1.23798828 8.83295898 0.94472656 7.80654297 0.64257812 6.74902344 C0 4 0 4 0 0 Z " fill="#000000" transform="translate(669,353)"/>
<path d="M0 0 C1.32 0 2.64 0 4 0 C5.65 3.63 7.3 7.26 9 11 C11.14799887 8.1360015 12.42041356 6.38754738 13.6875 3.25 C14.120625 2.1775 14.55375 1.105 15 0 C16.32 0 17.64 0 19 0 C17.6245109 4.5016007 16.23338217 8.72406376 13.875 12.8125 C11.17695785 17.88935031 11.18819888 23.35403372 11 29 C10.01 29 9.02 29 8 29 C8.00902344 28.30777344 8.01804687 27.61554688 8.02734375 26.90234375 C7.77204158 18.47737211 5.2526751 12.41323035 1.49609375 5.0546875 C0 2 0 2 0 0 Z " fill="#000000" transform="translate(781,353)"/>
<path d="M0 0 C2.64 0 5.28 0 8 0 C8 0.66 8 1.32 8 2 C7.34 2 6.68 2 6 2 C6 2.99 6 3.98 6 5 C7.98 5 9.96 5 12 5 C12 4.01 12 3.02 12 2 C11.34 2 10.68 2 10 2 C10 1.34 10 0.68 10 0 C12.31 0 14.62 0 17 0 C17 4.62 17 9.24 17 14 C14.69 14 12.38 14 10 14 C10.66 12.02 11.32 10.04 12 8 C10.02 8 8.04 8 6 8 C6.66 9.98 7.32 11.96 8 14 C5.36 14 2.72 14 0 14 C0 13.34 0 12.68 0 12 C0.66 12 1.32 12 2 12 C2 8.7 2 5.4 2 2 C1.34 2 0.68 2 0 2 C0 1.34 0 0.68 0 0 Z " fill="#000000" transform="translate(448,368)"/>
<path d="M0 0 C2.31 0 4.62 0 7 0 C7 0.66 7 1.32 7 2 C6.34 2 5.68 2 5 2 C5 2.99 5 3.98 5 5 C6.98 5 8.96 5 11 5 C11 4.01 11 3.02 11 2 C10.34 2 9.68 2 9 2 C9 1.34 9 0.68 9 0 C11.64 0 14.28 0 17 0 C17 0.66 17 1.32 17 2 C16.34 2 15.68 2 15 2 C15 5.3 15 8.6 15 12 C15.66 12 16.32 12 17 12 C17 12.66 17 13.32 17 14 C14.36 14 11.72 14 9 14 C9.66 12.02 10.32 10.04 11 8 C9.02 8 7.04 8 5 8 C5.66 9.98 6.32 11.96 7 14 C4.69 14 2.38 14 0 14 C0 9.38 0 4.76 0 0 Z " fill="#000000" transform="translate(354,368)"/>
<path d="M0 0 C4.29 0 8.58 0 13 0 C13 3.63 13 7.26 13 11 C8.71 11 4.42 11 0 11 C0 7.37 0 3.74 0 0 Z " fill="#000000" transform="translate(883,152)"/>
<path d="M0 0 C4.29 0 8.58 0 13 0 C13 3.63 13 7.26 13 11 C8.71 11 4.42 11 0 11 C0 7.37 0 3.74 0 0 Z " fill="#000000" transform="translate(696,152)"/>
<path d="M0 0 C4.29 0 8.58 0 13 0 C13 3.63 13 7.26 13 11 C8.71 11 4.42 11 0 11 C0 7.37 0 3.74 0 0 Z " fill="#000000" transform="translate(406,152)"/>
<path d="M0 0 C4.29 0 8.58 0 13 0 C13 3.63 13 7.26 13 11 C8.71 11 4.42 11 0 11 C0 7.37 0 3.74 0 0 Z " fill="#000000" transform="translate(185,152)"/>
<path d="M0 0 C4.62 0 9.24 0 14 0 C14 3.3 14 6.6 14 10 C9.38 10 4.76 10 0 10 C0 6.7 0 3.4 0 0 Z " fill="#000000" transform="translate(422,39)"/>
<path d="M0 0 C5.61 0 11.22 0 17 0 C17 0.99 17 1.98 17 3 C14.69 3 12.38 3 10 3 C10 11.58 10 20.16 10 29 C9.01 29 8.02 29 7 29 C7 20.42 7 11.84 7 3 C4.69 3 2.38 3 0 3 C0 2.01 0 1.02 0 0 Z " fill="#000000" transform="translate(762,353)"/>
<path d="M0 0 C3.96 0 7.92 0 12 0 C11.67 2.97 11.34 5.94 11 9 C11.66 9 12.32 9 13 9 C13 10.65 13 12.3 13 14 C8.38 14 3.76 14 -1 14 C-1 13.34 -1 12.68 -1 12 C-0.34 11.67 0.32 11.34 1 11 C1.46651207 8.87423218 1.46651207 8.87423218 1.625 6.4375 C1.69976562 5.61121094 1.77453125 4.78492188 1.8515625 3.93359375 C1.90054687 3.29550781 1.94953125 2.65742188 2 2 C1.34 2 0.68 2 0 2 C0 1.34 0 0.68 0 0 Z M6 2 C6 3.32 6 4.64 6 6 C6.99 6 7.98 6 9 6 C9.33 4.68 9.66 3.36 10 2 C8.68 2 7.36 2 6 2 Z M6 8 C6 8.99 6 9.98 6 11 C7.65 11 9.3 11 11 11 C11 10.34 11 9.68 11 9 C9.35 8.67 7.7 8.34 6 8 Z " fill="#000000" transform="translate(408,368)"/>
<path d="M0 0 C2.97 0 5.94 0 9 0 C9 5.28 9 10.56 9 16 C6.03 16 3.06 16 0 16 C0.08378906 15.09636719 0.16757813 14.19273437 0.25390625 13.26171875 C0.35574219 12.08222656 0.45757812 10.90273438 0.5625 9.6875 C0.66691406 8.51574219 0.77132812 7.34398437 0.87890625 6.13671875 C1.18577434 2.96967425 1.18577434 2.96967425 0 0 Z " fill="#000000" transform="translate(241,355)"/>
<path d="M0 0 C1.32 0 2.64 0 4 0 C4 9.57 4 19.14 4 29 C2.68 29 1.36 29 0 29 C0 19.43 0 9.86 0 0 Z " fill="#000000" transform="translate(661,353)"/>
<path d="M0 0 C1.65 0 3.3 0 5 0 C5.83764268 1.95649397 6.66999059 3.91525556 7.5 5.875 C7.9640625 6.96554687 8.428125 8.05609375 8.90625 9.1796875 C10 12 10 12 10 14 C7.69 14 5.38 14 3 14 C3.33 12.35 3.66 10.7 4 9 C2.02463255 9.34786708 2.02463255 9.34786708 0 10 C-0.33 10.66 -0.66 11.32 -1 12 C-0.34 12 0.32 12 1 12 C1 12.66 1 13.32 1 14 C-0.98 14 -2.96 14 -5 14 C-3.45730076 9.27934033 -1.92205381 4.58335908 0 0 Z M1 5 C2 7 2 7 2 7 Z " fill="#000000" transform="translate(379,368)"/>
<path d="M0 0 C1.97909398 -0.02686553 3.95828971 -0.04633375 5.9375 -0.0625 C7.03964844 -0.07410156 8.14179688 -0.08570313 9.27734375 -0.09765625 C12 0 12 0 13 1 C13.125 4 13.125 4 13 7 C12 8 12 8 8.9375 8.0625 C7.968125 8.041875 6.99875 8.02125 6 8 C6 9.32 6 10.64 6 12 C6.66 12 7.32 12 8 12 C8 12.66 8 13.32 8 14 C5.36 14 2.72 14 0 14 C0 13.34 0 12.68 0 12 C0.66 12 1.32 12 2 12 C2 8.7 2 5.4 2 2 C1.34 2 0.68 2 0 2 C0 1.34 0 0.68 0 0 Z M6 2 C6 3.32 6 4.64 6 6 C6.99 6 7.98 6 9 6 C9 4.68 9 3.36 9 2 C8.01 2 7.02 2 6 2 Z " fill="#000000" transform="translate(392,368)"/>
<path d="M0 0 C0 1.65 0 3.3 0 5 C-0.66 5 -1.32 5 -2 5 C-2.33 4.34 -2.66 3.68 -3 3 C-4.65 3.33 -6.3 3.66 -8 4 C-9.33333333 7 -9.33333333 7 -8 10 C-5.26969007 11.2676439 -4.12647354 11.04311598 -1.25 10.0625 C-0.5075 9.711875 0.235 9.36125 1 9 C0.67 10.65 0.34 12.3 0 14 C-7.06234414 14.35910224 -7.06234414 14.35910224 -10.9375 12.875 C-13 11 -13 11 -14.0625 8.125 C-14 5 -14 5 -12.6875 2.125 C-8.68325692 -1.04114569 -4.9239911 -0.42286183 0 0 Z " fill="#000000" transform="translate(350,368)"/>
<path d="M0 0 C2.64 0 5.28 0 8 0 C8 0.66 8 1.32 8 2 C7.34 2 6.68 2 6 2 C6 4.97 6 7.94 6 11 C8.31 10.34 10.62 9.68 13 9 C12.67 10.65 12.34 12.3 12 14 C8.04 14 4.08 14 0 14 C0.66 10.04 1.32 6.08 2 2 C1.34 2 0.68 2 0 2 C0 1.34 0 0.68 0 0 Z " fill="#000000" transform="translate(424,368)"/>
<path d="M0 0 C2.64 0 5.28 0 8 0 C8 0.66 8 1.32 8 2 C7.34 2 6.68 2 6 2 C6 4.97 6 7.94 6 11 C8.31 10.34 10.62 9.68 13 9 C12.67 10.65 12.34 12.3 12 14 C8.04 14 4.08 14 0 14 C0 13.34 0 12.68 0 12 C0.66 12 1.32 12 2 12 C2 8.7 2 5.4 2 2 C1.34 2 0.68 2 0 2 C0 1.34 0 0.68 0 0 Z " fill="#000000" transform="translate(479,368)"/>
<path d="M0 0 C2.31 0 4.62 0 7 0 C7 0.66 7 1.32 7 2 C6.34 2 5.68 2 5 2 C5 4.97 5 7.94 5 11 C7.64 10.34 10.28 9.68 13 9 C12.34 10.65 11.68 12.3 11 14 C7.04 14 3.08 14 -1 14 C-1 13.34 -1 12.68 -1 12 C-0.34 12 0.32 12 1 12 C0.67 8.04 0.34 4.08 0 0 Z " fill="#000000" transform="translate(495,368)"/>
<path d="M0 0 C0.99 0 1.98 0 3 0 C3 9.57 3 19.14 3 29 C2.01 29 1.02 29 0 29 C0 19.43 0 9.86 0 0 Z " fill="#000000" transform="translate(754,353)"/>
<path d="M0 0 C2.31 0 4.62 0 7 0 C7 0.66 7 1.32 7 2 C6.34 2 5.68 2 5 2 C5.14168137 3.43791516 5.28851043 4.8753237 5.4375 6.3125 C5.51871094 7.11300781 5.59992188 7.91351563 5.68359375 8.73828125 C5.95265693 11.16087179 5.95265693 11.16087179 7 14 C4.69 14 2.38 14 0 14 C0 9.38 0 4.76 0 0 Z " fill="#000000" transform="translate(469,368)"/>
</g>
</svg>
