<svg xmlns="http://www.w3.org/2000/svg" viewBox="0 0 230.18668 185.25333">
  <g fill="#7faed7">
    <path d="M182.08799545 102.16066541H49.08906544v-1.07559997h132.99893v1.07559997M29.04639927 127.08359812h-.8125333c-.24426667-1.69173329-.57133333-2.06626661-1.71306663-2.06626661h-1.95466662v7.01826649c0 1.48706663.20733333 1.72453329 1.90359995 1.72453329v.80106664h-6.71133316v-.80106664c1.69426662 0 1.90306662-.23746666 1.90306662-1.7245333v-7.01826648H19.6035995c-.81346665 0-1.3661333.32666665-1.60879996 2.06626661h-.81199998l.32866666-3.41519991h.74319998c.0704.10426666.13853333.17186666.276.22346666.12093332.0328.31253332.04946666.58866665.04946666h7.7827998c.81186665 0 .91613331-.01666666 1.08746664-.27293332h.74533331l.31146666 3.41519991m13.71346634 1.4853333v-2.13386662c0-1.34999996-.276-1.65626662-1.45199997-1.69013329v-.80359998h5.86239986v.80359998c-1.2629333.03386667-1.5057333.34013333-1.5057333 1.46626663v5.85773319c0 1.19839997.13853333 1.67346662 1.5057333 1.69119996v.80106664h-5.86239986v-.80106664c1.12279998-.05213333 1.45199997-.324 1.45199997-1.65839996v-2.47239994h-5.1885332v2.52613327c0 1.03906664.12133332 1.5697333 1.50519996 1.60466663v.80106664h-5.93226652v-.80106664c1.19266663-.05213333 1.52079996-.25893333 1.52079996-1.65839996v-5.7161332c0-1.36826662-.38013332-1.64066662-1.52079996-1.64066662v-.80359998h5.93226652v.80359998c-1.1593333.06773333-1.50519997.22146666-1.50519997 1.62239996v2.20159995h5.1885332m18.90159954-4.62759989.15826666 2.5442666h-.81613332c-.15413332-1.15986663-.41506665-1.48386662-1.2609333-1.48386662H56.3535986v3.72133324h2.23026661c1.2281333 0 1.55626663-.25666666 1.55626663-1.29839997h.81253331v3.56773324h-.81253331c0-.95306664-.2776-1.2109333-1.5385333-1.2109333H56.3535986v2.74999993c0 .90466665.1032.96973331 1.03706664.96973331h2.00519995c1.5057333 0 1.90306662-.64519998 2.16346661-1.77293329h.81306665l-.22706666 2.83293326H51.59733204v-.80106664c1.5729333 0 1.84999996-.35893333 1.84999996-1.57079996v-5.87559986c0-1.4489333-.49999999-1.56879996-1.73066663-1.56879996v-.80359998h9.94479976m24.87239937 0v.80359998c-1.45319996 0-1.74373329.2568-1.74373329 1.62239996v3.77093324c0 3.41666658-2.14319994 4.69626655-5.1021332 4.69626655-3.14946659 0-5.2077332-1.38119996-5.2077332-3.9087999v-4.52453322c0-1.16239997-.24226667-1.65626663-1.4521333-1.65626663v-.80359998h5.89946652v.80359998c-1.2473333 0-1.5421333.35786666-1.5421333 1.50426663v4.54013322c0 1.58586663.86719998 2.58013327 2.99573326 2.58013327 2.29853328 0 3.17813325-1.21399997 3.17813325-3.38386658v-3.59999991c0-1.31866664-.32653332-1.64066663-1.72813329-1.64066663v-.80359998h4.70266655m17.36399957 0v.80359998c-1.24319997 0-1.5541333.34013333-1.5541333 1.5365333v8.40106645h-1.36506663l-7.8359998-8.16146646v5.63439986c0 1.1285333.17293333 1.60466663 1.64173329 1.60466663v.80106664h-4.44373322v-.80106664c1.21399997 0 1.57439996-.25893333 1.57439996-1.69119996v-6.88119983c-.2072-.20573333-.62293332-.44279999-1.4505333-.44279999v-.80359998h4.0791999l6.5702665 6.8974665v-4.57293322c0-1.04279998-.18746666-1.5209333-1.58799996-1.5209333v-.80359998h4.37186656m4.06773323 10.6198664v-.80106664c1.22706664 0 1.48746663-.4448 1.48746663-1.53706663v-5.83746652c0-1.19786664-.24266666-1.64066663-1.48746663-1.64066663v-.80359998h5.96719985v.80359998c-1.38546663 0-1.5749333.4428-1.5749333 1.64066663v5.73599985c0 1.05719998.10413334 1.6385333 1.5749333 1.6385333v.80106664h-5.96719985m22.29066611-9.81626642c-1.26039997 0-1.5713333.23706666-2.33439994 1.91413329l-3.7515999 8.17546646h-1.26559998l-3.6275999-7.95826647c-.90359998-1.97919995-1.08853331-2.13133328-2.25106662-2.13133328v-.80359998h6.51933317v.80359998c-1.27599996 0-1.76039995.23706666-1.76039995.68386665 0 .21986666.10146666.54533332.32959999 1.04013331l2.29693328 4.97039988 1.98959995-4.3895999c.48173332-1.07559997.60519998-1.38279996.60519998-1.67453329 0-.44266665-.44893332-.66559998-1.52346663-.63026665v-.80359998h4.77346655v.80359998m12.21973303-.80359998.152 2.5442666h-.81066665c-.15733333-1.15986663-.41466666-1.48386662-1.2653333-1.48386662h-3.38666659v3.72133324h2.23066662c1.22666663 0 1.55333329-.25666666 1.55333329-1.29839997h.81466665v3.56773324h-.81466665c0-.95306664-.276-1.2109333-1.53599996-1.2109333h-2.24799995v2.74999993c0 .90466665.1.96973331 1.03866664.96973331h2.00533329c1.50399996 0 1.90133328-.64519998 2.16133328-1.77293329h.81199998l-.22 2.83293326h-10.55533307v-.80106664c1.5753333 0 1.85266662-.35893333 1.85266662-1.57079996v-5.87559986c0-1.4489333-.50133332-1.56879996-1.72879995-1.56879996v-.80359998h9.94479975m9.94933308 5.2765332c2.50933327.03493334 3.40799992-.73333331 3.40799992-2.49373327 0-1.3489333-.87999998-2.23533327-2.5586666-2.23533327h-.84933332v4.72906654m9.28666644 5.4969332h-2.12666662c-1.5533333 0-2.52533327-.288-3.26933325-1.0229333-1.1213333-1.10826665-2.14266661-2.9182666-2.97199992-3.63853325h-.91866665v2.28799994c0 1.26506664.50266666 1.41879997 1.85333329 1.41879997v.80106664h-6.5546665v-.80106664c1.4533333 0 1.79999995-.25893333 1.79999995-1.50319997v-5.95879985c0-1.28079996-.31333332-1.55319996-1.79999995-1.55319996v-.80359998c1.0533333-.0672 1.76399995-.1208 3.14799992-.18853333 1.08666664-.04946666 2.15999994-.0844 2.74933326-.0844 2.76399993 0 5.29199987.46093333 5.29199987 3.0906666 0 1.29946663-.84799998 2.2530666-2.47333327 2.7838666 1.1053333.85306664 1.74399996 2.34013327 2.85199993 3.43226657.75999998.74999998 1.49066663.91933331 2.41999994.93799998v.80159998m3.09999992-3.37973325c.48666665 1.6401333 1.62399996 2.59533327 3.06399992 2.59533327 1.05466664 0 1.7813333-.63226665 1.7813333-1.51719996 0-2.25413328-5.5013332-2.4770666-5.5013332-5.7905332 0-1.21199996.84666664-2.95426658 3.68533324-2.95426658 1.27999997 0 2.18133328.34226665 2.6826666.34226665.188 0 .29199999-.05213333.37733332-.22239999h.57199999l.29199999 3.03999992h-.81199998c-.46799999-1.47026663-1.67466663-2.25519994-2.92399993-2.25519994-.89599998 0-1.5213333.44426666-1.5213333 1.07559997 0 1.77599996 5.77866653 2.27186661 5.77866653 5.94266652 0 1.93133329-1.6453333 3.24319992-4.0439999 3.24319992-1.23466664 0-2.49199994-.37439999-2.78399993-.37439999-.28266666 0-.39999999.15306666-.43466666.25466666h-.55466665l-.46799999-3.37973325h.81066665m11.71199971 3.22613325v-.80106664c1.22666663 0 1.48799996-.4448 1.48799996-1.53706663v-5.83746652c0-1.19786664-.24133333-1.64066663-1.48799996-1.64066663v-.80359998h5.97066651v.80359998c-1.38666663 0-1.57599996.4428-1.57599996 1.64066663v5.73599985c0 1.05719998.104 1.6385333 1.57599996 1.6385333v.80106664h-5.97066651m21.47599946-7.47759981h-.81333331c-.23866666-1.69173329-.57199999-2.06626661-1.71199996-2.06626661h-1.95333328v7.01826649c0 1.48706663.20799999 1.72453329 1.90399995 1.72453329v.80106664h-6.7106665v-.80106664c1.69733329 0 1.90133328-.23746666 1.90133328-1.7245333v-7.01826648h-2.05733328c-.81333331 0-1.3653333.32666665-1.60933329 2.06626661h-.81333331l.33066666-3.41519991h.73999998c.07466666.10426666.14.17186666.27599999.22346666.12533333.0328.312.04946666.58933332.04946666h7.7839998c.81466665 0 .91733331-.01666666 1.09199998-.27293332h.73999998l.31199999 3.41519991m15.68933295-2.33866661c-1.17466665 0-1.46799997.23706666-2.40266662 1.65626663l-2.54133327 3.85786657v1.88066662c0 1.2297333.168 1.62039996 1.71199996 1.62039996v.80106664h-6.34799984v-.80106664c1.52399996 0 1.7293333-.41093333 1.7293333-1.6385333v-1.75839995l-3.18533326-4.2519999c-.82666665-1.10946663-1.1573333-1.36626663-2.13999995-1.36626663v-.80359998h6.22666651v.80359998c-.84799998 0-1.1773333.1016-1.1773333.4256 0 .13799999.11733333.36093332.276.56306664l2.41733326 3.24573326 1.74799996-2.6978666c.31066666-.49746666.45333332-.78653332.45333332-.98959998 0-.39479999-.29466666-.54693332-1.14266664-.54693332v-.80359998h4.37466656v.80359998M3.37499992 159.16533065c.75051998 0 1.83697328-1.92653328 1.83697328-4.34693322 0-1.28639997-.51353332-2.41559994-1.0864533-2.41559994-.80833332 0-1.8354133 1.96933328-1.8354133 4.32653322 0 1.40426663.45312 2.43599994 1.08489332 2.43599994m1.97499995-7.56253314c1.2848933 0 2.11197328 1.1317333 2.11197328 2.8666666 0 3.37186658-3.21718659 5.51453319-5.3088532 5.51453319C.8885413 159.9839973 0 158.83359733 0 157.19706403c0-2.84533326 2.64635993-5.59426652 5.34999987-5.59426652m6.93854649 7.50519981c-.25677333 1.4641333-.73021332 2.7494666-1.95521328 3.95733323-.78906665.78013332-1.7572933 1.24786664-3.09895993 1.24786664-1.20363997 0-2.05259995-.48799999-2.05259995-1.18906664 0-.50679998.53177332-.9749333 1.12499998-.9749333 1.20415997 0 1.1630133 1.46146662 2.09270661 1.46146662.71041332 0 1.16406664-.81719998 1.3817733-2.12559994l1.4817733-8.79053312h-1.4817733l.09844-.46666665c.47447998 0 1.1854133-.19586666 1.5598933-.43079999.41458665-2.72919993 2.03281327-5.12759987 4.7396132-5.12759987 1.1833333 0 1.85466663.41039999 1.85466663 1.11039997 0 .56666665-.474 1.0161333-1.06666664 1.0161333-1.10466664 0-1.5193333-1.34426662-2.19066662-1.34426662-.47346665 0-.63119998.72039998-.90826664 2.41613327l-.31613333 1.92919995h1.42239997l-.198.89746664h-1.40146663l-1.08651997 6.41346651m26.68491934-9.95879975v.80413331c-1.24426664 0-1.55679997.34013333-1.55679997 1.53599996v8.3999998H36.0499991l-7.83333314-8.16146647v5.63746653c0 1.12546664.17346666 1.60413329 1.64266663 1.60413329v.80359998h-4.4447999v-.80359998c1.21053331 0 1.57399997-.25733333 1.57399997-1.69066662v-6.88279983c-.20786666-.20253333-.62133332-.44266666-1.4525333-.44266666v-.80413331h4.08173323l6.57079984 6.8962665v-4.5707999c0-1.0453333-.19013333-1.52133329-1.59119996-1.52133329v-.80413331h4.37613322m9.26666644.54946665c-1.5573333 0-3.19893326 1.09066664-3.19893326 4.04533323 0 3.22653326 1.5733333 5.4801332 3.83946657 5.4801332 1.71106663 0 3.07719993-1.31346663 3.07719993-4.06146656 0-3.23226659-1.5209333-5.46399987-3.71773324-5.46399987m.08533333 10.34533308c-4.85933321 0-6.36399984-3.14013326-6.36399984-5.51466653 0-2.87079993 2.07493328-5.65359986 6.81399983-5.65359986 4.80839988 0 6.2594665 3.14426659 6.2594665 5.46399986 0 2.27093328-1.45106662 5.70426653-6.7094665 5.70426653m14.55786631-5.61719986c2.50733327.0344 3.40679992-.73493332 3.40679992-2.49639994 0-1.34639997-.88133332-2.23173328-2.5598666-2.23173328h-.84693332v4.72813322m9.28439977 5.49999986h-2.12559995c-1.55986663 0-2.5238666-.29226666-3.26919992-1.02559997-1.12346663-1.11039998-2.14319994-2.91973326-2.97599992-3.63586658h-.91359998v2.28639994c0 1.26306664.50053332 1.4177333 1.85053329 1.4177333v.80359998h-6.5546665v-.80359998c1.45106663 0 1.79733328-.25733333 1.79733328-1.5041333v-5.95893318c0-1.27959997-.31199999-1.55306663-1.79733328-1.55306663v-.80413331c1.05306664-.0652 1.76146662-.1188 3.14733325-.18653333 1.08746664-.052 2.16146661-.08693333 2.7474666-.08693333 2.76919993 0 5.29426653.46146665 5.29426653 3.09213326 0 1.29586663-.84639998 2.25053327-2.47239994 2.7838666 1.10466664.8537333 1.74586663 2.33759993 2.8546666 3.43226657.75933331.75053332 1.4849333.92146665 2.41719994.93759998v.80519998m13.68639966-7.63333314h-.81199998c-.24426666-1.69226663-.57079999-2.06666662-1.7129333-2.06666662H81.3729313v7.0186665c0 1.48239996.20733333 1.72399995 1.90159995 1.72399995v.80359998H76.5671981v-.80359998c1.69373329 0 1.89946662-.2416 1.89946662-1.72399996v-7.01866649H76.4087981c-.81186665 0-1.36399997.3224-1.6061333 2.06666662h-.81199997l.32706666-3.41773325h.74213331c.0708.10413333.1396.1708.27706666.22453333.12186666.03426666.31466666.04893333.58599999.04893333h7.78493313c.81293332 0 .91666665-.01466667 1.08999998-.27346666h.74226664l.314 3.41773325m13.37706632 1.48533329v-2.13639994c0-1.3489333-.27706666-1.6557333-1.4525333-1.68906663v-.80413331h5.85933319v.80413331c-1.2609333.03333334-1.50306663.34013333-1.50306663 1.4693333v5.85613319c0 1.19586663.1344 1.67293329 1.50306663 1.69066662v.80359998h-5.85933319v-.80359998c1.12346664-.05213333 1.4525333-.324 1.4525333-1.65626662v-2.47706661h-5.1921332v2.52919994c0 1.0401333.12293333 1.56919996 1.50786662 1.60413329v.80359998H89.6145311v-.80359998c1.19226664-.05213333 1.52146663-.25733333 1.52146663-1.65626662v-5.7213332c0-1.36506663-.38239999-1.63853329-1.52146663-1.63853329v-.80413331h5.93239985v.80413331c-1.15946663.06666667-1.50786662.2224-1.50786662 1.6213333v2.20413327h5.1921332m27.41466597 2.64639994c-.1396.97346664-.55213332 2.23493327-1.05466664 3.39639991l-.04946667.11973333c-.15893332-.052-.32973332-.08533333-.50266665-.1016-.1536-.03426666-.3464-.03426666-.55466665-.03426666-.46773332 0-.96613331.05053333-1.50519996.12133333-.5172.04893333-1.07186664.1172-1.6745333.1172-2.3202666 0-3.91146656-.76826665-4.89426654-1.82666662-.98799998-1.05986664-1.41866663-2.38946661-1.41866663-3.56919991 0-1.70679996.69159998-3.12399993 1.90146662-4.1655999 1.1937333-1.02506664 2.9062666-1.60679996 4.91146654-1.60679996 1.84746662 0 2.87079993.51359999 3.30053325.51359999.1588 0 .2448-.06933333.31413333-.24013333h.64053332l.15373332 3.57079991h-.81146664c-.19013333-.87079998-.62239999-1.58799996-1.22759997-2.08279995-.60426665-.49746665-1.36879997-.76933331-2.23186661-.76933331-2.29946661 0-3.87386657 1.85999995-3.87386657 4.50679989 0 2.78279993 1.6421333 4.68026654 4.0639999 4.68026654 1.62599996 0 2.87239992-.8709333 3.7015999-2.62973326h.81146665m7.85413314-5.41306653-1.43386663 4.0463999h3.02586659l-1.59199996-4.0463999m7.43733314 8.76093311h-6.2786665v-.80359998c1.1773333 0 1.59466662-.13586666 1.59466662-.58279998 0-.22133333-.124-.62813332-.36933332-1.2625333l-.39733333-1.00573331h-3.80066657l-.31519999.90426664c-.24053333.69999998-.37599999 1.17759997-.37599999 1.31706663 0 .45893332.57026665.62973332 1.51986663.62973332v.80359998h-4.44173322v-.80359998c1.27706663 0 1.4349333-.2896 2.05733328-2.06559995l2.69639993-7.64893314-.15333333-.3792h3.11066659l3.14799992 8.0791998c.62133332 1.58479997 1.00266664 1.96239996 2.00533328 2.01453329v.80359998m7.85599981-5.34626653c2.50399994.0344 3.40533325-.73493332 3.40533325-2.49639994 0-1.34639997-.88133331-2.23173328-2.56133327-2.23173328h-.84399998v4.72813322m9.28399977 5.49999986h-2.12933328c-1.55466663 0-2.5226666-.29226666-3.26533326-1.02559997-1.12666663-1.11039998-2.1426666-2.91973326-2.97733325-3.63586658h-.91199998v2.28639994c0 1.26306664.49866665 1.4177333 1.84533329 1.4177333v.80359998h-6.55333317v-.80359998c1.45066663 0 1.79866662-.25733333 1.79866662-1.5041333v-5.95893318c0-1.27959997-.312-1.55306663-1.79866662-1.55306663v-.80413331c1.05599997-.0652 1.76533329-.1188 3.15066658-.18653333 1.08933331-.052 2.16133328-.08693333 2.74933327-.08693333 2.7666666 0 5.28799987.46146665 5.28799987 3.09213326 0 1.29586663-.84799998 2.25053327-2.46933328 2.7838666 1.10799998.8537333 1.7413333 2.33759993 2.85199993 3.43226657.75866665.75053332 1.4893333.92146665 2.42133328.93759998v.80519998m8.04666646-10.22813308c-1.55466663 0-3.20133325 1.09066664-3.20133325 4.04533323 0 3.22653326 1.57599996 5.4801332 3.8399999 5.4801332 1.7173333 0 3.0826666-1.31346663 3.0826666-4.06146656 0-3.23226659-1.52399997-5.46399987-3.72133325-5.46399987m.08533333 10.34533308c-4.85466654 0-6.3626665-3.14013326-6.3626665-5.51466653 0-2.87079993 2.07599994-5.65359986 6.81333316-5.65359986 4.80933321 0 6.25999984 3.14426659 6.25999984 5.46399986 0 2.27093328-1.45066663 5.70426653-6.7106665 5.70426653m16.59199959-10.89479973v.80413331c-1.46666663 0-1.7613333.27346666-1.7613333 1.6213333v5.92559985c0 1.03946664.12133334 1.21186663 1.27733331 1.21186663h1.31866663c1.05066664 0 1.4173333-.03226666 2.86799993-2.02959995h.81466665l-1.31866664 3.09053326h-9.56266642v-.80359998c1.50666663 0 1.69733329-.44266666 1.69733329-1.65626662v-5.7385332c0-1.2281333-.19066666-1.62133329-1.6973333-1.62133329v-.80413331h6.36399985m7.8879998 10.6238664v-.80359998c1.22666664 0 1.48799996-.44266666 1.48799996-1.53906663v-5.83853319c0-1.19586663-.24399999-1.63853329-1.48799996-1.63853329v-.80413331h5.96533319v.80413331c-1.38266664 0-1.57466663.44266666-1.57466663 1.6385333v5.73746652c0 1.0573333.10666666 1.64013329 1.57466663 1.64013329v.80359998h-5.96533319m23.92533274-10.6238664v.80413331c-1.2453333 0-1.55466663.34013333-1.55466663 1.53599996v8.3999998h-1.36666663l-7.83066647-8.16146647v5.63746653c0 1.12546664.168 1.60413329 1.63999995 1.60413329v.80359998h-4.44266655v-.80359998c1.2093333 0 1.57199996-.25733333 1.57199996-1.69066662v-6.88279983c-.20666666-.20253333-.62133332-.44266666-1.4533333-.44266666v-.80413331h4.07866657l6.57599983 6.8962665v-4.5707999c0-1.0453333-.19066666-1.52133329-1.5933333-1.52133329v-.80413331h4.37466657m7.13199982 1.86293329-1.43866663 4.0463999h3.02399992l-1.5853333-4.0463999m7.43599982 8.76093311h-6.2786665v-.80359998c1.17599996 0 1.59333329-.13586666 1.59333329-.58279998 0-.22133333-.124-.62813332-.36666666-1.2625333l-.396-1.00573331h-3.8039999l-.31466666.90426664c-.24133332.69999998-.37733332 1.17759997-.37733332 1.31706663 0 .45893332.56933332.62973332 1.5173333.62973332v.80359998h-4.44133323v-.80359998c1.27999997 0 1.43466663-.2896 2.05599995-2.06559995l2.70133327-7.64893314-.15866666-.3792h3.11333325l3.14933326 8.0791998c.61999998 1.58479997 1.0053333 1.96239996 2.00666661 2.01453329v.80359998M32.30573253 178.00125018c-1.00626665 0-1.65879996.29218666-2.27186661.89478665-.67079999.66250665-1.2229333 2.04791994-1.2229333 3.15989325 0 .79999998.31613332 1.34427997.8093333 1.34427997.4548 0 1.06666665-.60417332 1.87559996-1.42291997l.80986665-3.9760399m1.0661333 5.0895732c-.09786666.42657333-.13746666.73594666.0792.73594666.21773333 0 .94786664-.65885332 1.36146663-1.14791998v.64374665c-1.00786664 1.05208798-2.07293328 1.87187916-2.8218666 1.87187916-.51413331 0-.7901333-.4291672-.7901333-1.16927117 0-.352088 0-.52812799.13799999-1.22916797h-.03906667c-1.24479996 1.26666797-2.36973327 2.39843914-2.96306659 2.39843914-.45306665 0-1.36186663-.54531252-1.36186663-1.88906582 0-1.26926664.45466665-2.8682266 2.15253328-4.54426655 1.61879996-1.5786533 3.00053326-1.94895996 5.54746653-1.94895996l-1.30266664 6.27863985m6.26613317.30938666c-.07959999.35311999.09946667.62499465.35466667.62499465.25733332 0 .9485333-.50780799 1.5213333-1.14947464l.35533332.36666666c-1.02719998 1.1536413-2.36879994 1.95207915-3.33653325 1.95207915-.73226665 0-1.2437333-.56510452-1.02759998-1.6572925l1.1645333-5.63437319h-.96666664l.0792-.42811999c1.3021333-.42813332 2.4098666-1.46146663 3.57293325-3.05990659h.51413332c-.3756.77969332-.63186665 1.53854663-.90786665 2.5906266h1.5593333l-.1776.89739998h-1.5609333l-1.14426663 5.49739987m24.64586605-1.76666663c-.13746666.97290665-.55466665 2.23697328-1.05626664 3.39843192l-.05213333.117188c-.15466667-.05052134-.32853333-.08385467-.50039999-.10104133-.15573333-.034896-.3464-.034896-.55426665-.034896-.46666666 0-.96719998.05208266-1.50519997.121354-.51826665.0505208-1.07186664.11874999-1.67599995.11874999-2.31719995 0-3.90893324-.76927065-4.89479988-1.82655995-.98546664-1.05885331-1.41879997-2.39062661-1.41879997-3.57239992 0-1.70521329.69279999-3.12082658 1.90319996-4.16354656 1.19266663-1.02551997 2.90519992-1.60571996 4.91039987-1.60571996 1.85159996 0 2.87239993.51197332 3.30359992.51197332.1552 0 .2412-.06666666.312-.23697332h.64013331l.15573333 3.56666657h-.81359998c-.19053333-.86927998-.62293332-1.58698662-1.22706664-2.08437328-.60626665-.49427999-1.36559996-.76510665-2.23173327-.76510665-2.29999995 0-3.87346657 1.8588533-3.87346657 4.50677323 0 2.78385326 1.64213329 4.67864121 4.06413323 4.67864121 1.62599996 0 2.87133326-.87188131 3.6999999-2.62916127h.81453332m13.56719966-2.64947993v-2.12969328c0-1.35051997-.2776-1.6572933-1.4521333-1.69322662v-.80103998h5.86253319v.80103998c-1.2609333.03593333-1.50359996.34270665-1.50359996 1.46822663v5.85885318c0 1.19166664.13746666 1.67031463 1.50359996 1.6890653v.80416664h-5.86253319v-.80416665c1.1229333-.05052133 1.4521333-.32291866 1.4521333-1.65469196v-2.47863993h-5.18746654v2.52655993c0 1.04270664.12026667 1.57343863 1.50359997 1.60677196v.80416665h-5.93079986v-.80416665c1.1933333-.05052133 1.52199997-.25572932 1.52199997-1.65469196v-5.72395985c0-1.3640533-.3824-1.6374933-1.52199997-1.6374933v-.80103997h5.93079986v.80103998c-1.15839998.06926666-1.50359997.22134666-1.50359997 1.62134662v2.20157328h5.18746654m12.62759968-2.76406659-1.4349333 4.0468799h3.02759993l-1.59266663-4.0468799m7.43639982 8.76145844h-6.27653318v-.80416665c1.17506664 0 1.59066663-.13593733 1.59066663-.58125198 0-.22134666-.12186666-.63229332-.36413332-1.26406664l-.39573333-1.00675997h-3.8067999l-.31146666.90675998c-.2412.69739998-.38173333 1.1760533-.38173333 1.31198663 0 .46406132.57333332.63333198 1.5233333.63333198v.80416665h-4.44479989v-.80416665c1.28026664 0 1.4365333-.28906532 2.05893328-2.06666528l2.69999993-7.6479198-.15893332-.3776H92.762531l3.14679993 8.0760398c.62239998 1.59218663 1.00426664 1.96562395 2.00573328 2.01614528v.80416665m7.46519982-5.26145854c.2744.06926667.53426666.08645334.81186665.08645334 1.4385333 0 2.30159994-.93853331 2.30159994-2.4932266 0-1.50103997-.81399998-2.40781328-2.14533328-2.40781328-.34533332 0-.69373331.03437333-.9681333.12136v4.69322654m-2.90373327-2.4401066c0-1.82915995-.0724-2.03333328-1.5405333-2.11874661v-.80103998c.95199998-.05104 2.23119995-.13854667 3.40719992-.18698667 1.1573333-.05312 2.12399995-.08801333 2.38653328-.08801333 2.92186659 0 4.84106654 1.1614533 4.84106654 3.31510659 0 1.45155996-1.00359997 3.34374658-4.30413322 3.34374658-.55213332 0-1.38546664-.08541333-1.88639996-.18646666v2.26927994c0 1.0078133.31093333 1.35051863 1.95413329 1.35051863v.80416665h-6.39839984v-.80416665c1.2301333 0 1.5405333-.34270532 1.5405333-1.65469196v-5.24270653m22.56359942-2.9197866.15626667 2.5427066h-.81093331c-.15786667-1.1604133-.41146666-1.48437329-1.26039997-1.48437329H119.732797v3.72134658h2.22919994c1.23066664 0 1.55626663-.25729333 1.55626663-1.29582664h.81346665v3.56666658h-.81346665c0-.95573331-.27506666-1.2093733-1.53546663-1.2093733H119.732797v2.7468666c0 .9062533.10413333.97344264 1.0365333.97344264h2.00666662c1.50786663 0 1.90213329-.64948265 2.16146661-1.77604263h.81253332l-.224 2.8359386h-10.5494664v-.80416665c1.5713333 0 1.84999995-.36146532 1.84999995-1.57083862v-5.87290652c0-1.4546933-.50146665-1.57239996-1.72919995-1.57239996v-.80103998h9.94279975m11.33053306-1e-8v.80103999c-1.47066663 0-1.76399996.27343999-1.76399996 1.62134662v5.92395985c0 1.04687998.11866667 1.2151093 1.2813333 1.2151093h1.31066664c1.0533333 0 1.41866663-.033336 2.87333326-2.03229594h.80933331l-1.3133333 3.09219192h-9.5601331v-.80416665c1.5025333 0 1.6937333-.44114532 1.6937333-1.65469196v-5.74010652c0-1.22915997-.1912-1.62134662-1.6937333-1.62134662v-.80103998h6.36279985m24.34933272 4.62395988v-2.12969328c0-1.35051997-.27733332-1.6572933-1.45199996-1.69322662v-.80103998h5.86266652v.80103998c-1.2653333.03593333-1.5053333.34270665-1.5053333 1.46822663v5.85885318c0 1.19166664.13866667 1.67031463 1.5053333 1.6890653v.80416664h-5.86266652v-.80416665c1.12266664-.05052133 1.45199996-.32291866 1.45199996-1.65469196v-2.47863993h-5.18666653v2.52655993c0 1.04270664.11733333 1.57343863 1.50266662 1.60677196v.80416665h-5.93199985v-.80416665c1.1973333-.05052133 1.5253333-.25572932 1.5253333-1.65469196v-5.72395985c0-1.3640533-.38266666-1.6374933-1.5253333-1.6374933v-.80103997h5.93199985v.80103998c-1.1573333.06926666-1.50266663.22134666-1.50266663 1.62134662v2.20157328h5.18666654m9.07066644 5.99739185v-.80416665c1.22666664 0 1.48666663-.44114532 1.48666663-1.5375053v-5.84114651c0-1.19322664-.24133333-1.6374933-1.48666663-1.6374933v-.80103997h5.96666652v.80103998c-1.38399997 0-1.57466663.44426665-1.57466663 1.63749329v5.74010652c0 1.0572933.10666667 1.6385453 1.57466663 1.6385453v.80416664h-5.96666652m16.37333293-10.62135174v.80103999c-1.4693333 0-1.7613333.27343999-1.7613333 1.62134662v5.92395985c0 1.04687998.12 1.2151093 1.27599997 1.2151093h1.31866664c1.05466664 0 1.41599996-.033336 2.86933326-2.03229594h.81333331l-1.31599996 3.09219192h-9.5613331v-.80416665c1.50399996 0 1.69199996-.44114532 1.69199996-1.65469196v-5.74010652c0-1.22915997-.188-1.62134662-1.69199996-1.62134662v-.80103998h6.36133318m12.90533301-1e-8v.80103999c-1.4733333 0-1.76666663.27343999-1.76666663 1.62134662v5.92395985c0 1.04687998.124 1.2151093 1.27999997 1.2151093h1.31599997c1.0533333 0 1.41466663-.033336 2.87199993-2.03229594h.81066664l-1.3133333 3.09219192h-9.56399976v-.80416665c1.5013333 0 1.69199996-.44114532 1.69199996-1.65469196v-5.74010652c0-1.22915997-.19066666-1.62134662-1.69199996-1.62134662v-.80103998h6.36533318M117.11719707 18.24400084c.14946666.14533333.2432.124.2432.124 11.22559972-.43866666 17.65826622 3.8279999 18.20359954 5.57999986l4.48666656-.08 1.39466663-3.03466659c.08533333-.252.04266666-.62399998-.04533333-.72133331-1.3493333-1.49999997-12.64733302-4.72666655-26.27973268-4.72666655-14.54519964 0-23.77186607 2.87199992-25.7145327 4.31066656 0 0-.46719998.27999999-.48026665.70533331-.00773333.19733333.2776.74933332.2776.74933332l.39426665.85466664c.124.248.29586666.232.59119999.06133333 0 0 .26453333-.08266666.3172-.256.05106666-.17466665-.112-.47466665-.112-.47466665-.29106667-.59199998.09373332-.66933331.11666666-.67999998l.83279998-.37866666c.39639999-.11466666.44319999.096.57613332.40933333 0 0 .152.43599999.26239999.50399998.20626666.12933334.87039998-.24933332 2.85213326-.73199998.13493333-.02533333.20786666-.03866666.47186666-.14533333.19213332-.07733333.0208-.74133331.0208-.74133331-.07026667-.332-.22346667-.66533332.49893332-.78399998l1.2385333-.24666666c.57666665-.152.63026665.14933333.70053331.47999999 0 0 .036.50399998.16573333.71199998.164.264.46146666-.156 4.24426656-.55999999 0 0 .54946666-.016.65773332-.20533333.1136-.19866666.0208-.64533331.0208-.64533331-.04053333-.456-.228-.79199998.64853332-.84666665l1.65519996-.15066666c1.23959997-.20266666 1.02959997.21333333 1.07386664.66933331 0 0 .0412.49333333.13493333.58133332.0932.09066667.48439998.08266667.48439998.08266667 2.12239995-.21733333 3.30733325-.20666666 5.55879986-.30266666 0 0 .3136-.00266667.43026666-.132.114-.12933333.08386667-.27066666.08386667-.27066666 0-.25333332-.05466667-.65866665.10826666-.83599998.18813333-.19333333.47666665-.10533333.77239998-.10533333l1.89333329-.00266666c.29106666 0 .88799997-.12933333 1.0561333.07733333.10946667.13466666.07666667.93999997.07666667.93999997s0 .12933333.08746666.21733333"/>
    <path d="M115.20786379.00533463c-10.9766664 0-17.72559956 3.52133325-22.04906612 7.76533314 0 0-.07546666.072-.11506666.18266666-.07973333.216-.1.53599999.34639999.38266666 9.3989331-3.9439999 19.66973284-1.4733333 22.9426661 2.24666661.11506666.17066666.01093332.21466666-.12653334.21733333-3.30679992.03466666-6.07759985-.16-12.1879997.69466665-3.30426658.46799999-6.24279984.94799997-8.72559978 1.5933333-4.0879999 1.06266663-6.98479982 2.39199993-8.60306645 3.46533324-.59319998.32133332-.64013331.54933332-.78853331.82399998-.17346666.53199998-.1532.52933332-.2672.8933333-.20213332.684-.30573332 1.12533331-.34479999 1.3533333-.07026666.41466666.38493333.26933333.61973332.028.49279999-.49199998 1.84226662-1.68266662 3.82346657-2.60533326 2.01719995-.93999998 5.35839987-2.00799995 8.97866645-2.67733327 4.83079987-.8933333 10.71039973-1.45999996 16.0879996-1.4733333 6.23333317-.016 11.82186636.63199999 16.49533291 1.53999997 4.74973322.9293333 8.5083998 2.2146666 10.93639973 3.39866658 1.13999997.55466665 1.77866662 1.06266664 2.5426666 1.71466662.60399999.61733332.63999999.084.63199999-.076 0 0-.11466667-.8253333-1.12666664-2.68399993C141.17599647 11.08533435 132.88639668.00533463 115.20786379.00533463M83.32026458 73.4069328c0 2.5494666 10.59333307 7.77613314 32.51573252 7.77613314 21.2733328 0 32.50933252-5.22666654 32.50933252-7.77613314l-.108-3.91146657c0 .0828-.01733333-.2536-.04666666-.1656-.03866666-.70519998-1.16399997-.84733331-4.59999988-.89213331l-.07733333-2.16826661c0 .22293333-.72666665.69479998-1.1773333.95359997-2.79999994 1.61879996-13.50679967 4.02666657-26.89479934 4.02666657-15.5051996 0-26.35999934-3.21666659-28.07146596-4.98026654l-.03906667 3.34479991c5.1037332 3.64479991 20.82146615 6.9166665 36.69533242 5.22919987.47239999-.01773333.63279998-.11413333 1.11306664.02386667.1292.03866667.56666665.42239999-.29786666.73959998-9.20319977 3.04373326-31.93133254 2.36253328-41.55679896-4.94319988l.04373333 2.74319994"/>
    <path d="m128.81879678 21.3413341-5.99333318-.00533334c-.2932-.00666666-.42333333.14533333-.42853333.436v.67199998c-.00266666.31466666.13533333.45466665.452.45733332h1.85786661c.1708-.00933333.21506666.068.22293333.09466666.07293333.18666667-.26986666.34266666-.38546666.42l-.91399997.59466664c-.12666667.08-.24746666.248-.24386666.57599999l-.03906667 42.9530656c.0876.75106664 1.28546663.8245333 2.59279993.82146664 1.10159998-.0068 2.40106661-.0652 2.54013327-.80053331 0 0-.03653333-40.88199898.00253334-44.41133223.0052-.164.07813333-.20133333.1032-.216.0416-.02666666.22759999-.04133332.22759999-.04133332.276-.01066667.42079999-.14533333.42333332-.41733333v-.72399998c-.01293333-.264-.18386666-.40266666-.41813332-.40933332m-9.84746642 29.87999925.1432-.28533333h.40373332l-.00266667-.27066666h-8.32293312l-.00306667.27066666h.44373332l.1224.25866666.50053332 1.04826665s.088.0932.1968.1396c.10786666.04733332.32666665.06239999.40479999.06506666 2.18639994.01826666 1.71186662-.00266667 2.05666661-.00266667.16053333.00533333.3808.0068.49013332.14013333.0724.09226666.13226666.34533332-.1708.54799999-.71253331.47386665-1.90359995 1.2525333-2.46359993 1.61919996-.06866667.03853333-.2552.16253333-.3172.31359999-.0676.1744-.05413333.30413332-.05413333.30413332v8.0723998l-.70826665.27346666s-.21199999 1.61039996.0312 1.7749333c.23226666.15839999 7.01879983.15839999 7.25213316.01146666.23279999-.15106667.0312-1.81719996.0312-1.81719996l-.71613332-.24266666V52.60439998l.68226665-1.38306663m21.47399946-27.54133265-5.99733318-.00533333c-.28933333-.00533333-.42533332.148-.43066666.44v.66799998c0 .31999999.13466667.45333332.45333332.45999998h1.85999996c.168-.01066666.21333333.06533334.22133333.092.072.188-.26933333.34266666-.38666666.42133332l-.91333331.59599999c-.12933333.07866666-.24933333.244-.244.57466665l-.03866666 38.7250657c.088.75733331 1.28399997.82506665 2.59199993.81826665 1.10399998-.0016 2.40133328-.06093334 2.54133327-.79426665 0 0-.036-36.65706575.00533334-40.18773233 0-.16266666.07333333-.19866666.09733333-.216.04133333-.024.22933333-.04.22933333-.04.27466666-.01066666.42266665-.14533332.42533332-.41866665v-.72399998c-.01333333-.264-.18133333-.4-.41466666-.40933332m-32.76466585-2.33866661-5.99213318-.00533334c-.29213332 0-.42453332.148-.42973332.44133333v.66799998c0 .31733333.13493333.45599999.45426665.45599999h1.85719996c.16773333-.00933333.212.07333333.21986666.09466666.07293333.18666667-.26933333.34533333-.38386666.42l-.91359998.59466664c-.12866666.08-.24893332.25066666-.24533332.57866666l-.03853334 42.95559892c.0876.75106665 1.28599997.82199998 2.59279994.81626665 1.10466664 0 2.40199994-.0636 2.53959994-.79586665 0 0-.03386667-40.88266564.0052-44.41333222.00253333-.16533333.07493333-.204.10146666-.21866666.0412-.02666667.2276-.04133333.2276-.04133333.27506665-.00533334.42093332-.14533333.42346665-.416v-.72266664c-.01293333-.264-.18493333-.40533333-.41826666-.412M96.0187976 23.7920007l-5.99533318-.008c-.2912 0-.42613333.15066667-.43133333.44133333v.66799998c0 .31733332.13493333.45733332.4548.45733332l1.85933328.00533333c.16773333-.01466666.21306666.068.21973333.09333334.07293333.18399999-.2692.34266665-.3864.41999998l-.91306664.59333332c-.1292.076-.24946666.24666666-.2432.57333332l-.03959999 38.7298657c.08653333.75146665 1.2869333.82239998 2.5922666.81919998 1.10359997-.00106667 2.40093327-.06773333 2.5410666-.79839998 0 0-.0364-36.65466575.0052-40.18533233 0-.16133333.0724-.2.09893334-.21733333.04173333-.028.22759999-.04266666.22759999-.04266666.27506666-.00533334.42346666-.14.42559999-.416v-.7213333c-.01253333-.26533333-.1844-.404-.41559999-.412"/>
  </g>
</svg>
